<ttFont>
<head>
    <!-- Most of this table will be recalculated by the compiler -->
    <tableVersion value="1.0"/>
    <fontRevision value="1.0"/>
    <checkSumAdjustment value="0x5cc62aba"/>
    <magicNumber value="0x5f0f3cf5"/>
    <flags value="00000000 00001011"/>
    <unitsPerEm value="1000"/>
    <created value="Fri Apr  8 21:24:22 2016"/>
    <modified value="Fri Apr  8 21:24:22 2016"/>
    <xMin value="-315"/>
    <yMin value="-337"/>
    <xMax value="1239"/>
    <yMax value="930"/>
    <macStyle value="00000000 00000000"/>
    <lowestRecPPEM value="8"/>
    <fontDirectionHint value="2"/>
    <indexToLocFormat value="0"/>
    <glyphDataFormat value="0"/>
  </head>
    <TTGlyph name=".notdef" xMin="40" yMin="0" xMax="440" yMax="660">
      <contour>
        <pt x="40" y="0" on="1"/>
        <pt x="40" y="660" on="1"/>
        <pt x="440" y="660" on="1"/>
        <pt x="440" y="0" on="1"/>
      </contour>
      <contour>
        <pt x="120" y="80" on="1"/>
        <pt x="360" y="80" on="1"/>
        <pt x="360" y="580" on="1"/>
        <pt x="120" y="580" on="1"/>
      </contour>
    </TTGlyph>
    <TTGlyph name="A" xMin="16" yMin="0" xMax="624" yMax="660">
      <contour>
        <pt x="539" y="0" on="1"/>
        <pt x="480" y="155" on="1"/>
        <pt x="159" y="155" on="1"/>
        <pt x="100" y="0" on="1"/>
        <pt x="16" y="0" on="1"/>
        <pt x="273" y="660" on="1"/>
        <pt x="368" y="660" on="1"/>
        <pt x="624" y="0" on="1"/>
      </contour>
      <contour>
        <pt x="188" y="230" on="1"/>
        <pt x="451" y="230" on="1"/>
        <pt x="351" y="492" on="1"/>
        <pt x="320" y="584" on="1"/>
        <pt x="318" y="584" on="1"/>
        <pt x="289" y="495" on="1"/>
      </contour>
    </TTGlyph>
    <TTGlyph name="A.swsh" xMin="-45" yMin="-110" xMax="834" yMax="660">
      <contour>
        <pt x="749" y="0" on="1"/>
        <pt x="707" y="111" on="1"/>
        <pt x="352" y="111" on="1"/>
        <pt x="326" y="42" on="1"/>
        <pt x="298" y="-35" on="0"/>
        <pt x="203" y="-110" on="0"/>
        <pt x="128" y="-110" on="1"/>
        <pt x="50" y="-110" on="0"/>
        <pt x="-40" y="-40" on="0"/>
        <pt x="-45" y="22" on="1"/>
        <pt x="13" y="65" on="1"/>
        <pt x="22" y="4" on="0"/>
        <pt x="75" y="-40" on="0"/>
        <pt x="127" y="-40" on="1"/>
        <pt x="178" y="-40" on="0"/>
        <pt x="231" y="14" on="0"/>
        <pt x="263" y="95" on="1"/>
        <pt x="458" y="595" on="1"/>
        <pt x="320" y="595" on="1"/>
        <pt x="252" y="595" on="0"/>
        <pt x="174" y="537" on="0"/>
        <pt x="174" y="480" on="1"/>
        <pt x="174" y="435" on="0"/>
        <pt x="235" y="374" on="0"/>
        <pt x="284" y="366" on="1"/>
        <pt x="253" y="302" on="1"/>
        <pt x="186" y="312" on="0"/>
        <pt x="94" y="410" on="0"/>
        <pt x="94" y="481" on="1"/>
        <pt x="94" y="564" on="0"/>
        <pt x="207" y="660" on="0"/>
        <pt x="303" y="660" on="1"/>
        <pt x="517" y="660" on="1"/>
        <pt x="578" y="660" on="1"/>
        <pt x="834" y="0" on="1"/>
      </contour>
      <contour>
        <pt x="381" y="186" on="1"/>
        <pt x="678" y="186" on="1"/>
        <pt x="561" y="492" on="1"/>
        <pt x="530" y="584" on="1"/>
        <pt x="528" y="584" on="1"/>
        <pt x="499" y="495" on="1"/>
      </contour>
    </TTGlyph>
    <TTGlyph name="AE" xMin="-4" yMin="0" xMax="892" yMax="660">
      <contour>
        <pt x="521" y="75" on="1"/>
        <pt x="892" y="75" on="1"/>
        <pt x="892" y="0" on="1"/>
        <pt x="483" y="0" on="1"/>
        <pt x="441" y="0" on="1"/>
        <pt x="441" y="213" on="1"/>
        <pt x="205" y="213" on="1"/>
        <pt x="82" y="0" on="1"/>
        <pt x="-4" y="0" on="1"/>
        <pt x="382" y="660" on="1"/>
        <pt x="441" y="660" on="1"/>
        <pt x="521" y="660" on="1"/>
        <pt x="877" y="660" on="1"/>
        <pt x="877" y="585" on="1"/>
        <pt x="521" y="585" on="1"/>
        <pt x="521" y="372" on="1"/>
        <pt x="792" y="372" on="1"/>
        <pt x="792" y="297" on="1"/>
        <pt x="521" y="297" on="1"/>
      </contour>
      <contour>
        <pt x="249" y="288" on="1"/>
        <pt x="441" y="288" on="1"/>
        <pt x="441" y="585" on="1"/>
        <pt x="421" y="585" on="1"/>
      </contour>
    </TTGlyph>
    <TTGlyph name="Aacute" xMin="16" yMin="0" xMax="624" yMax="891">
      <contour>
        <pt x="420" y="891" on="1"/>
        <pt x="359" y="743" on="1"/>
        <pt x="278" y="743" on="1"/>
        <pt x="335" y="891" on="1"/>
      </contour>
      <contour>
        <pt x="539" y="0" on="1"/>
        <pt x="480" y="155" on="1"/>
        <pt x="159" y="155" on="1"/>
        <pt x="100" y="0" on="1"/>
        <pt x="16" y="0" on="1"/>
        <pt x="273" y="660" on="1"/>
        <pt x="368" y="660" on="1"/>
        <pt x="624" y="0" on="1"/>
      </contour>
      <contour>
        <pt x="188" y="230" on="1"/>
        <pt x="451" y="230" on="1"/>
        <pt x="351" y="492" on="1"/>
        <pt x="320" y="584" on="1"/>
        <pt x="318" y="584" on="1"/>
        <pt x="289" y="495" on="1"/>
      </contour>
    </TTGlyph>
    <TTGlyph name="Aacute.swsh" xMin="-45" yMin="-110" xMax="834" yMax="891">
      <contour>
        <pt x="630" y="891" on="1"/>
        <pt x="569" y="743" on="1"/>
        <pt x="488" y="743" on="1"/>
        <pt x="545" y="891" on="1"/>
      </contour>
      <contour>
        <pt x="749" y="0" on="1"/>
        <pt x="707" y="111" on="1"/>
        <pt x="352" y="111" on="1"/>
        <pt x="326" y="42" on="1"/>
        <pt x="298" y="-35" on="0"/>
        <pt x="203" y="-110" on="0"/>
        <pt x="128" y="-110" on="1"/>
        <pt x="50" y="-110" on="0"/>
        <pt x="-40" y="-40" on="0"/>
        <pt x="-45" y="22" on="1"/>
        <pt x="13" y="65" on="1"/>
        <pt x="22" y="4" on="0"/>
        <pt x="75" y="-40" on="0"/>
        <pt x="127" y="-40" on="1"/>
        <pt x="178" y="-40" on="0"/>
        <pt x="231" y="14" on="0"/>
        <pt x="263" y="95" on="1"/>
        <pt x="458" y="595" on="1"/>
        <pt x="320" y="595" on="1"/>
        <pt x="252" y="595" on="0"/>
        <pt x="174" y="537" on="0"/>
        <pt x="174" y="480" on="1"/>
        <pt x="174" y="435" on="0"/>
        <pt x="235" y="374" on="0"/>
        <pt x="284" y="366" on="1"/>
        <pt x="253" y="302" on="1"/>
        <pt x="186" y="312" on="0"/>
        <pt x="94" y="410" on="0"/>
        <pt x="94" y="481" on="1"/>
        <pt x="94" y="564" on="0"/>
        <pt x="207" y="660" on="0"/>
        <pt x="303" y="660" on="1"/>
        <pt x="517" y="660" on="1"/>
        <pt x="578" y="660" on="1"/>
        <pt x="834" y="0" on="1"/>
      </contour>
      <contour>
        <pt x="381" y="186" on="1"/>
        <pt x="678" y="186" on="1"/>
        <pt x="561" y="492" on="1"/>
        <pt x="530" y="584" on="1"/>
        <pt x="528" y="584" on="1"/>
        <pt x="499" y="495" on="1"/>
      </contour>
    </TTGlyph>
    <TTGlyph name="Abreve" xMin="16" yMin="0" xMax="624" yMax="885">
      <contour>
        <pt x="386" y="737" on="0"/>
        <pt x="254" y="737" on="0"/>
        <pt x="172" y="819" on="0"/>
        <pt x="172" y="885" on="1"/>
        <pt x="238" y="885" on="1"/>
        <pt x="238" y="849" on="0"/>
        <pt x="285" y="797" on="0"/>
        <pt x="355" y="797" on="0"/>
        <pt x="402" y="849" on="0"/>
        <pt x="402" y="885" on="1"/>
        <pt x="468" y="885" on="1"/>
        <pt x="468" y="819" on="0"/>
      </contour>
      <contour>
        <pt x="539" y="0" on="1"/>
        <pt x="480" y="155" on="1"/>
        <pt x="159" y="155" on="1"/>
        <pt x="100" y="0" on="1"/>
        <pt x="16" y="0" on="1"/>
        <pt x="273" y="660" on="1"/>
        <pt x="368" y="660" on="1"/>
        <pt x="624" y="0" on="1"/>
      </contour>
      <contour>
        <pt x="188" y="230" on="1"/>
        <pt x="451" y="230" on="1"/>
        <pt x="351" y="492" on="1"/>
        <pt x="320" y="584" on="1"/>
        <pt x="318" y="584" on="1"/>
        <pt x="289" y="495" on="1"/>
      </contour>
    </TTGlyph>
    <TTGlyph name="Abreve.swsh" xMin="-45" yMin="-110" xMax="834" yMax="885">
      <contour>
        <pt x="596" y="737" on="0"/>
        <pt x="464" y="737" on="0"/>
        <pt x="382" y="819" on="0"/>
        <pt x="382" y="885" on="1"/>
        <pt x="448" y="885" on="1"/>
        <pt x="448" y="849" on="0"/>
        <pt x="495" y="797" on="0"/>
        <pt x="565" y="797" on="0"/>
        <pt x="612" y="849" on="0"/>
        <pt x="612" y="885" on="1"/>
        <pt x="678" y="885" on="1"/>
        <pt x="678" y="819" on="0"/>
      </contour>
      <contour>
        <pt x="749" y="0" on="1"/>
        <pt x="707" y="111" on="1"/>
        <pt x="352" y="111" on="1"/>
        <pt x="326" y="42" on="1"/>
        <pt x="298" y="-35" on="0"/>
        <pt x="203" y="-110" on="0"/>
        <pt x="128" y="-110" on="1"/>
        <pt x="50" y="-110" on="0"/>
        <pt x="-40" y="-40" on="0"/>
        <pt x="-45" y="22" on="1"/>
        <pt x="13" y="65" on="1"/>
        <pt x="22" y="4" on="0"/>
        <pt x="75" y="-40" on="0"/>
        <pt x="127" y="-40" on="1"/>
        <pt x="178" y="-40" on="0"/>
        <pt x="231" y="14" on="0"/>
        <pt x="263" y="95" on="1"/>
        <pt x="458" y="595" on="1"/>
        <pt x="320" y="595" on="1"/>
        <pt x="252" y="595" on="0"/>
        <pt x="174" y="537" on="0"/>
        <pt x="174" y="480" on="1"/>
        <pt x="174" y="435" on="0"/>
        <pt x="235" y="374" on="0"/>
        <pt x="284" y="366" on="1"/>
        <pt x="253" y="302" on="1"/>
        <pt x="186" y="312" on="0"/>
        <pt x="94" y="410" on="0"/>
        <pt x="94" y="481" on="1"/>
        <pt x="94" y="564" on="0"/>
        <pt x="207" y="660" on="0"/>
        <pt x="303" y="660" on="1"/>
        <pt x="517" y="660" on="1"/>
        <pt x="578" y="660" on="1"/>
        <pt x="834" y="0" on="1"/>
      </contour>
      <contour>
        <pt x="381" y="186" on="1"/>
        <pt x="678" y="186" on="1"/>
        <pt x="561" y="492" on="1"/>
        <pt x="530" y="584" on="1"/>
        <pt x="528" y="584" on="1"/>
        <pt x="499" y="495" on="1"/>
      </contour>
    </TTGlyph>
    <TTGlyph name="Acircumflex" xMin="16" yMin="0" xMax="624" yMax="903">
      <contour>
        <pt x="320" y="851" on="1"/>
        <pt x="234" y="736" on="1"/>
        <pt x="161" y="736" on="1"/>
        <pt x="275" y="903" on="1"/>
        <pt x="365" y="903" on="1"/>
        <pt x="479" y="736" on="1"/>
        <pt x="406" y="736" on="1"/>
      </contour>
      <contour>
        <pt x="539" y="0" on="1"/>
        <pt x="480" y="155" on="1"/>
        <pt x="159" y="155" on="1"/>
        <pt x="100" y="0" on="1"/>
        <pt x="16" y="0" on="1"/>
        <pt x="273" y="660" on="1"/>
        <pt x="368" y="660" on="1"/>
        <pt x="624" y="0" on="1"/>
      </contour>
      <contour>
        <pt x="188" y="230" on="1"/>
        <pt x="451" y="230" on="1"/>
        <pt x="351" y="492" on="1"/>
        <pt x="320" y="584" on="1"/>
        <pt x="318" y="584" on="1"/>
        <pt x="289" y="495" on="1"/>
      </contour>
    </TTGlyph>
    <TTGlyph name="Acircumflex.swsh" xMin="-45" yMin="-110" xMax="834" yMax="903">
      <contour>
        <pt x="530" y="851" on="1"/>
        <pt x="444" y="736" on="1"/>
        <pt x="371" y="736" on="1"/>
        <pt x="485" y="903" on="1"/>
        <pt x="575" y="903" on="1"/>
        <pt x="689" y="736" on="1"/>
        <pt x="616" y="736" on="1"/>
      </contour>
      <contour>
        <pt x="749" y="0" on="1"/>
        <pt x="707" y="111" on="1"/>
        <pt x="352" y="111" on="1"/>
        <pt x="326" y="42" on="1"/>
        <pt x="298" y="-35" on="0"/>
        <pt x="203" y="-110" on="0"/>
        <pt x="128" y="-110" on="1"/>
        <pt x="50" y="-110" on="0"/>
        <pt x="-40" y="-40" on="0"/>
        <pt x="-45" y="22" on="1"/>
        <pt x="13" y="65" on="1"/>
        <pt x="22" y="4" on="0"/>
        <pt x="75" y="-40" on="0"/>
        <pt x="127" y="-40" on="1"/>
        <pt x="178" y="-40" on="0"/>
        <pt x="231" y="14" on="0"/>
        <pt x="263" y="95" on="1"/>
        <pt x="458" y="595" on="1"/>
        <pt x="320" y="595" on="1"/>
        <pt x="252" y="595" on="0"/>
        <pt x="174" y="537" on="0"/>
        <pt x="174" y="480" on="1"/>
        <pt x="174" y="435" on="0"/>
        <pt x="235" y="374" on="0"/>
        <pt x="284" y="366" on="1"/>
        <pt x="253" y="302" on="1"/>
        <pt x="186" y="312" on="0"/>
        <pt x="94" y="410" on="0"/>
        <pt x="94" y="481" on="1"/>
        <pt x="94" y="564" on="0"/>
        <pt x="207" y="660" on="0"/>
        <pt x="303" y="660" on="1"/>
        <pt x="517" y="660" on="1"/>
        <pt x="578" y="660" on="1"/>
        <pt x="834" y="0" on="1"/>
      </contour>
      <contour>
        <pt x="381" y="186" on="1"/>
        <pt x="678" y="186" on="1"/>
        <pt x="561" y="492" on="1"/>
        <pt x="530" y="584" on="1"/>
        <pt x="528" y="584" on="1"/>
        <pt x="499" y="495" on="1"/>
      </contour>
    </TTGlyph>
    <TTGlyph name="Adieresis" xMin="16" yMin="0" xMax="624" yMax="856">
      <contour>
        <pt x="223" y="742" on="1"/>
        <pt x="199" y="742" on="0"/>
        <pt x="166" y="776" on="0"/>
        <pt x="166" y="822" on="0"/>
        <pt x="199" y="856" on="0"/>
        <pt x="223" y="856" on="1"/>
        <pt x="246" y="856" on="0"/>
        <pt x="280" y="822" on="0"/>
        <pt x="280" y="776" on="0"/>
        <pt x="246" y="742" on="0"/>
      </contour>
      <contour>
        <pt x="417" y="742" on="1"/>
        <pt x="393" y="742" on="0"/>
        <pt x="360" y="776" on="0"/>
        <pt x="360" y="822" on="0"/>
        <pt x="393" y="856" on="0"/>
        <pt x="417" y="856" on="1"/>
        <pt x="440" y="856" on="0"/>
        <pt x="474" y="822" on="0"/>
        <pt x="474" y="776" on="0"/>
        <pt x="440" y="742" on="0"/>
      </contour>
      <contour>
        <pt x="539" y="0" on="1"/>
        <pt x="480" y="155" on="1"/>
        <pt x="159" y="155" on="1"/>
        <pt x="100" y="0" on="1"/>
        <pt x="16" y="0" on="1"/>
        <pt x="273" y="660" on="1"/>
        <pt x="368" y="660" on="1"/>
        <pt x="624" y="0" on="1"/>
      </contour>
      <contour>
        <pt x="188" y="230" on="1"/>
        <pt x="451" y="230" on="1"/>
        <pt x="351" y="492" on="1"/>
        <pt x="320" y="584" on="1"/>
        <pt x="318" y="584" on="1"/>
        <pt x="289" y="495" on="1"/>
      </contour>
    </TTGlyph>
    <TTGlyph name="Adieresis.swsh" xMin="-45" yMin="-110" xMax="834" yMax="856">
      <contour>
        <pt x="433" y="742" on="1"/>
        <pt x="409" y="742" on="0"/>
        <pt x="376" y="776" on="0"/>
        <pt x="376" y="822" on="0"/>
        <pt x="409" y="856" on="0"/>
        <pt x="433" y="856" on="1"/>
        <pt x="456" y="856" on="0"/>
        <pt x="490" y="822" on="0"/>
        <pt x="490" y="776" on="0"/>
        <pt x="456" y="742" on="0"/>
      </contour>
      <contour>
        <pt x="627" y="742" on="1"/>
        <pt x="603" y="742" on="0"/>
        <pt x="570" y="776" on="0"/>
        <pt x="570" y="822" on="0"/>
        <pt x="603" y="856" on="0"/>
        <pt x="627" y="856" on="1"/>
        <pt x="650" y="856" on="0"/>
        <pt x="684" y="822" on="0"/>
        <pt x="684" y="776" on="0"/>
        <pt x="650" y="742" on="0"/>
      </contour>
      <contour>
        <pt x="749" y="0" on="1"/>
        <pt x="707" y="111" on="1"/>
        <pt x="352" y="111" on="1"/>
        <pt x="326" y="42" on="1"/>
        <pt x="298" y="-35" on="0"/>
        <pt x="203" y="-110" on="0"/>
        <pt x="128" y="-110" on="1"/>
        <pt x="50" y="-110" on="0"/>
        <pt x="-40" y="-40" on="0"/>
        <pt x="-45" y="22" on="1"/>
        <pt x="13" y="65" on="1"/>
        <pt x="22" y="4" on="0"/>
        <pt x="75" y="-40" on="0"/>
        <pt x="127" y="-40" on="1"/>
        <pt x="178" y="-40" on="0"/>
        <pt x="231" y="14" on="0"/>
        <pt x="263" y="95" on="1"/>
        <pt x="458" y="595" on="1"/>
        <pt x="320" y="595" on="1"/>
        <pt x="252" y="595" on="0"/>
        <pt x="174" y="537" on="0"/>
        <pt x="174" y="480" on="1"/>
        <pt x="174" y="435" on="0"/>
        <pt x="235" y="374" on="0"/>
        <pt x="284" y="366" on="1"/>
        <pt x="253" y="302" on="1"/>
        <pt x="186" y="312" on="0"/>
        <pt x="94" y="410" on="0"/>
        <pt x="94" y="481" on="1"/>
        <pt x="94" y="564" on="0"/>
        <pt x="207" y="660" on="0"/>
        <pt x="303" y="660" on="1"/>
        <pt x="517" y="660" on="1"/>
        <pt x="578" y="660" on="1"/>
        <pt x="834" y="0" on="1"/>
      </contour>
      <contour>
        <pt x="381" y="186" on="1"/>
        <pt x="678" y="186" on="1"/>
        <pt x="561" y="492" on="1"/>
        <pt x="530" y="584" on="1"/>
        <pt x="528" y="584" on="1"/>
        <pt x="499" y="495" on="1"/>
      </contour>
    </TTGlyph>
    <TTGlyph name="Adieresis.titl" xMin="16" yMin="0" xMax="624" yMax="662">
      <contour>
        <pt x="163" y="553" on="1"/>
        <pt x="139" y="553" on="0"/>
        <pt x="109" y="583" on="0"/>
        <pt x="109" y="608" on="1"/>
        <pt x="109" y="632" on="0"/>
        <pt x="139" y="662" on="0"/>
        <pt x="163" y="662" on="1"/>
        <pt x="188" y="662" on="0"/>
        <pt x="218" y="632" on="0"/>
        <pt x="218" y="608" on="1"/>
        <pt x="218" y="583" on="0"/>
        <pt x="188" y="553" on="0"/>
      </contour>
      <contour>
        <pt x="478" y="553" on="1"/>
        <pt x="453" y="553" on="0"/>
        <pt x="423" y="583" on="0"/>
        <pt x="423" y="608" on="1"/>
        <pt x="423" y="632" on="0"/>
        <pt x="453" y="662" on="0"/>
        <pt x="478" y="662" on="1"/>
        <pt x="502" y="662" on="0"/>
        <pt x="532" y="632" on="0"/>
        <pt x="532" y="608" on="1"/>
        <pt x="532" y="583" on="0"/>
        <pt x="502" y="553" on="0"/>
      </contour>
      <contour>
        <pt x="539" y="0" on="1"/>
        <pt x="469" y="183" on="1"/>
        <pt x="170" y="183" on="1"/>
        <pt x="100" y="0" on="1"/>
        <pt x="16" y="0" on="1"/>
        <pt x="273" y="660" on="1"/>
        <pt x="368" y="660" on="1"/>
        <pt x="624" y="0" on="1"/>
      </contour>
      <contour>
        <pt x="199" y="258" on="1"/>
        <pt x="440" y="258" on="1"/>
        <pt x="351" y="492" on="1"/>
        <pt x="320" y="584" on="1"/>
        <pt x="318" y="584" on="1"/>
        <pt x="289" y="495" on="1"/>
      </contour>
    </TTGlyph>
    <TTGlyph name="Agrave" xMin="16" yMin="0" xMax="624" yMax="891">
      <contour>
        <pt x="353" y="743" on="1"/>
        <pt x="272" y="743" on="1"/>
        <pt x="211" y="891" on="1"/>
        <pt x="296" y="891" on="1"/>
      </contour>
      <contour>
        <pt x="539" y="0" on="1"/>
        <pt x="480" y="155" on="1"/>
        <pt x="159" y="155" on="1"/>
        <pt x="100" y="0" on="1"/>
        <pt x="16" y="0" on="1"/>
        <pt x="273" y="660" on="1"/>
        <pt x="368" y="660" on="1"/>
        <pt x="624" y="0" on="1"/>
      </contour>
      <contour>
        <pt x="188" y="230" on="1"/>
        <pt x="451" y="230" on="1"/>
        <pt x="351" y="492" on="1"/>
        <pt x="320" y="584" on="1"/>
        <pt x="318" y="584" on="1"/>
        <pt x="289" y="495" on="1"/>
      </contour>
    </TTGlyph>
    <TTGlyph name="Agrave.swsh" xMin="-45" yMin="-110" xMax="834" yMax="891">
      <contour>
        <pt x="563" y="743" on="1"/>
        <pt x="482" y="743" on="1"/>
        <pt x="421" y="891" on="1"/>
        <pt x="506" y="891" on="1"/>
      </contour>
      <contour>
        <pt x="749" y="0" on="1"/>
        <pt x="707" y="111" on="1"/>
        <pt x="352" y="111" on="1"/>
        <pt x="326" y="42" on="1"/>
        <pt x="298" y="-35" on="0"/>
        <pt x="203" y="-110" on="0"/>
        <pt x="128" y="-110" on="1"/>
        <pt x="50" y="-110" on="0"/>
        <pt x="-40" y="-40" on="0"/>
        <pt x="-45" y="22" on="1"/>
        <pt x="13" y="65" on="1"/>
        <pt x="22" y="4" on="0"/>
        <pt x="75" y="-40" on="0"/>
        <pt x="127" y="-40" on="1"/>
        <pt x="178" y="-40" on="0"/>
        <pt x="231" y="14" on="0"/>
        <pt x="263" y="95" on="1"/>
        <pt x="458" y="595" on="1"/>
        <pt x="320" y="595" on="1"/>
        <pt x="252" y="595" on="0"/>
        <pt x="174" y="537" on="0"/>
        <pt x="174" y="480" on="1"/>
        <pt x="174" y="435" on="0"/>
        <pt x="235" y="374" on="0"/>
        <pt x="284" y="366" on="1"/>
        <pt x="253" y="302" on="1"/>
        <pt x="186" y="312" on="0"/>
        <pt x="94" y="410" on="0"/>
        <pt x="94" y="481" on="1"/>
        <pt x="94" y="564" on="0"/>
        <pt x="207" y="660" on="0"/>
        <pt x="303" y="660" on="1"/>
        <pt x="517" y="660" on="1"/>
        <pt x="578" y="660" on="1"/>
        <pt x="834" y="0" on="1"/>
      </contour>
      <contour>
        <pt x="381" y="186" on="1"/>
        <pt x="678" y="186" on="1"/>
        <pt x="561" y="492" on="1"/>
        <pt x="530" y="584" on="1"/>
        <pt x="528" y="584" on="1"/>
        <pt x="499" y="495" on="1"/>
      </contour>
    </TTGlyph>
    <TTGlyph name="Amacron" xMin="16" yMin="0" xMax="624" yMax="823">
      <contour>
        <pt x="494" y="823" on="1"/>
        <pt x="494" y="756" on="1"/>
        <pt x="146" y="756" on="1"/>
        <pt x="146" y="823" on="1"/>
      </contour>
      <contour>
        <pt x="539" y="0" on="1"/>
        <pt x="480" y="155" on="1"/>
        <pt x="159" y="155" on="1"/>
        <pt x="100" y="0" on="1"/>
        <pt x="16" y="0" on="1"/>
        <pt x="273" y="660" on="1"/>
        <pt x="368" y="660" on="1"/>
        <pt x="624" y="0" on="1"/>
      </contour>
      <contour>
        <pt x="188" y="230" on="1"/>
        <pt x="451" y="230" on="1"/>
        <pt x="351" y="492" on="1"/>
        <pt x="320" y="584" on="1"/>
        <pt x="318" y="584" on="1"/>
        <pt x="289" y="495" on="1"/>
      </contour>
    </TTGlyph>
    <TTGlyph name="Amacron.swsh" xMin="-45" yMin="-110" xMax="834" yMax="823">
      <contour>
        <pt x="704" y="823" on="1"/>
        <pt x="704" y="756" on="1"/>
        <pt x="356" y="756" on="1"/>
        <pt x="356" y="823" on="1"/>
      </contour>
      <contour>
        <pt x="749" y="0" on="1"/>
        <pt x="707" y="111" on="1"/>
        <pt x="352" y="111" on="1"/>
        <pt x="326" y="42" on="1"/>
        <pt x="298" y="-35" on="0"/>
        <pt x="203" y="-110" on="0"/>
        <pt x="128" y="-110" on="1"/>
        <pt x="50" y="-110" on="0"/>
        <pt x="-40" y="-40" on="0"/>
        <pt x="-45" y="22" on="1"/>
        <pt x="13" y="65" on="1"/>
        <pt x="22" y="4" on="0"/>
        <pt x="75" y="-40" on="0"/>
        <pt x="127" y="-40" on="1"/>
        <pt x="178" y="-40" on="0"/>
        <pt x="231" y="14" on="0"/>
        <pt x="263" y="95" on="1"/>
        <pt x="458" y="595" on="1"/>
        <pt x="320" y="595" on="1"/>
        <pt x="252" y="595" on="0"/>
        <pt x="174" y="537" on="0"/>
        <pt x="174" y="480" on="1"/>
        <pt x="174" y="435" on="0"/>
        <pt x="235" y="374" on="0"/>
        <pt x="284" y="366" on="1"/>
        <pt x="253" y="302" on="1"/>
        <pt x="186" y="312" on="0"/>
        <pt x="94" y="410" on="0"/>
        <pt x="94" y="481" on="1"/>
        <pt x="94" y="564" on="0"/>
        <pt x="207" y="660" on="0"/>
        <pt x="303" y="660" on="1"/>
        <pt x="517" y="660" on="1"/>
        <pt x="578" y="660" on="1"/>
        <pt x="834" y="0" on="1"/>
      </contour>
      <contour>
        <pt x="381" y="186" on="1"/>
        <pt x="678" y="186" on="1"/>
        <pt x="561" y="492" on="1"/>
        <pt x="530" y="584" on="1"/>
        <pt x="528" y="584" on="1"/>
        <pt x="499" y="495" on="1"/>
      </contour>
    </TTGlyph>
    <TTGlyph name="Aogonek" xMin="16" yMin="-215" xMax="636" yMax="660">
      <contour>
        <pt x="620" y="-145" on="1"/>
        <pt x="636" y="-196" on="1"/>
        <pt x="608" y="-215" on="0"/>
        <pt x="554" y="-215" on="1"/>
        <pt x="499" y="-215" on="0"/>
        <pt x="435" y="-160" on="0"/>
        <pt x="435" y="-111" on="1"/>
        <pt x="435" y="-28" on="0"/>
        <pt x="533" y="14" on="1"/>
        <pt x="480" y="155" on="1"/>
        <pt x="159" y="155" on="1"/>
        <pt x="100" y="0" on="1"/>
        <pt x="16" y="0" on="1"/>
        <pt x="273" y="660" on="1"/>
        <pt x="368" y="660" on="1"/>
        <pt x="624" y="0" on="1"/>
        <pt x="553" y="-23" on="0"/>
        <pt x="500" y="-74" on="0"/>
        <pt x="500" y="-106" on="1"/>
        <pt x="500" y="-131" on="0"/>
        <pt x="534" y="-158" on="0"/>
        <pt x="564" y="-158" on="1"/>
        <pt x="601" y="-158" on="0"/>
      </contour>
      <contour>
        <pt x="188" y="230" on="1"/>
        <pt x="451" y="230" on="1"/>
        <pt x="351" y="492" on="1"/>
        <pt x="320" y="584" on="1"/>
        <pt x="318" y="584" on="1"/>
        <pt x="289" y="495" on="1"/>
      </contour>
    </TTGlyph>
    <TTGlyph name="Aogonek.swsh" xMin="-45" yMin="-215" xMax="846" yMax="660">
      <contour>
        <pt x="830" y="-145" on="1"/>
        <pt x="846" y="-196" on="1"/>
        <pt x="818" y="-215" on="0"/>
        <pt x="764" y="-215" on="1"/>
        <pt x="709" y="-215" on="0"/>
        <pt x="645" y="-160" on="0"/>
        <pt x="645" y="-111" on="1"/>
        <pt x="645" y="-28" on="0"/>
        <pt x="743" y="14" on="1"/>
        <pt x="707" y="111" on="1"/>
        <pt x="352" y="111" on="1"/>
        <pt x="326" y="42" on="1"/>
        <pt x="298" y="-35" on="0"/>
        <pt x="203" y="-110" on="0"/>
        <pt x="128" y="-110" on="1"/>
        <pt x="50" y="-110" on="0"/>
        <pt x="-40" y="-40" on="0"/>
        <pt x="-45" y="22" on="1"/>
        <pt x="13" y="65" on="1"/>
        <pt x="22" y="4" on="0"/>
        <pt x="75" y="-40" on="0"/>
        <pt x="127" y="-40" on="1"/>
        <pt x="178" y="-40" on="0"/>
        <pt x="231" y="14" on="0"/>
        <pt x="263" y="95" on="1"/>
        <pt x="458" y="595" on="1"/>
        <pt x="320" y="595" on="1"/>
        <pt x="252" y="595" on="0"/>
        <pt x="174" y="537" on="0"/>
        <pt x="174" y="480" on="1"/>
        <pt x="174" y="435" on="0"/>
        <pt x="235" y="374" on="0"/>
        <pt x="284" y="366" on="1"/>
        <pt x="253" y="302" on="1"/>
        <pt x="186" y="312" on="0"/>
        <pt x="94" y="410" on="0"/>
        <pt x="94" y="481" on="1"/>
        <pt x="94" y="564" on="0"/>
        <pt x="207" y="660" on="0"/>
        <pt x="303" y="660" on="1"/>
        <pt x="517" y="660" on="1"/>
        <pt x="578" y="660" on="1"/>
        <pt x="834" y="0" on="1"/>
        <pt x="763" y="-23" on="0"/>
        <pt x="710" y="-74" on="0"/>
        <pt x="710" y="-106" on="1"/>
        <pt x="710" y="-131" on="0"/>
        <pt x="744" y="-158" on="0"/>
        <pt x="774" y="-158" on="1"/>
        <pt x="811" y="-158" on="0"/>
      </contour>
      <contour>
        <pt x="381" y="186" on="1"/>
        <pt x="678" y="186" on="1"/>
        <pt x="561" y="492" on="1"/>
        <pt x="530" y="584" on="1"/>
        <pt x="528" y="584" on="1"/>
        <pt x="499" y="495" on="1"/>
      </contour>
    </TTGlyph>
    <TTGlyph name="Aogonek_j" xMin="16" yMin="-215" xMax="843" yMax="716">
      <contour>
        <pt x="758" y="716" on="0"/>
        <pt x="808" y="716" on="0"/>
        <pt x="843" y="681" on="0"/>
        <pt x="843" y="631" on="0"/>
        <pt x="808" y="596" on="0"/>
        <pt x="758" y="596" on="0"/>
        <pt x="723" y="631" on="0"/>
        <pt x="723" y="681" on="0"/>
      </contour>
      <contour>
        <pt x="542" y="-158" on="1"/>
        <pt x="564" y="-158" on="0"/>
        <pt x="578" y="-146" on="1"/>
        <pt x="586" y="-201" on="1"/>
        <pt x="562" y="-215" on="0"/>
        <pt x="522" y="-215" on="1"/>
        <pt x="475" y="-215" on="0"/>
        <pt x="413" y="-162" on="0"/>
        <pt x="413" y="-119" on="1"/>
        <pt x="413" y="-31" on="0"/>
        <pt x="534" y="13" on="1"/>
        <pt x="480" y="155" on="1"/>
        <pt x="159" y="155" on="1"/>
        <pt x="100" y="0" on="1"/>
        <pt x="16" y="0" on="1"/>
        <pt x="273" y="660" on="1"/>
        <pt x="368" y="660" on="1"/>
        <pt x="624" y="0" on="1"/>
        <pt x="546" y="-24" on="0"/>
        <pt x="478" y="-69" on="0"/>
        <pt x="478" y="-105" on="1"/>
        <pt x="478" y="-129" on="0"/>
        <pt x="513" y="-158" on="0"/>
      </contour>
      <contour>
        <pt x="188" y="230" on="1"/>
        <pt x="451" y="230" on="1"/>
        <pt x="351" y="492" on="1"/>
        <pt x="320" y="584" on="1"/>
        <pt x="318" y="584" on="1"/>
        <pt x="289" y="495" on="1"/>
      </contour>
      <contour>
        <pt x="743" y="-43" on="1"/>
        <pt x="743" y="500" on="1"/>
        <pt x="823" y="500" on="1"/>
        <pt x="823" y="-51" on="1"/>
        <pt x="823" y="-138" on="0"/>
        <pt x="749" y="-215" on="0"/>
        <pt x="691" y="-215" on="1"/>
        <pt x="651" y="-215" on="0"/>
        <pt x="623" y="-202" on="1"/>
        <pt x="638" y="-126" on="1"/>
        <pt x="659" y="-137" on="0"/>
        <pt x="690" y="-137" on="1"/>
        <pt x="719" y="-137" on="0"/>
        <pt x="743" y="-95" on="0"/>
      </contour>
    </TTGlyph>
    <TTGlyph name="Aogonek_y" xMin="16" yMin="-215" xMax="1120" yMax="660">
      <contour>
        <pt x="624" y="0" on="1"/>
        <pt x="551" y="-22" on="0"/>
        <pt x="490" y="-73" on="0"/>
        <pt x="490" y="-107" on="1"/>
        <pt x="490" y="-158" on="0"/>
        <pt x="543" y="-158" on="1"/>
        <pt x="576" y="-158" on="0"/>
        <pt x="595" y="-145" on="1"/>
        <pt x="614" y="-196" on="1"/>
        <pt x="586" y="-215" on="0"/>
        <pt x="537" y="-215" on="1"/>
        <pt x="483" y="-215" on="0"/>
        <pt x="425" y="-161" on="0"/>
        <pt x="425" y="-111" on="1"/>
        <pt x="425" y="-27" on="0"/>
        <pt x="533" y="16" on="1"/>
        <pt x="480" y="155" on="1"/>
        <pt x="159" y="155" on="1"/>
        <pt x="100" y="0" on="1"/>
        <pt x="16" y="0" on="1"/>
        <pt x="273" y="660" on="1"/>
        <pt x="368" y="660" on="1"/>
      </contour>
      <contour>
        <pt x="188" y="230" on="1"/>
        <pt x="451" y="230" on="1"/>
        <pt x="351" y="492" on="1"/>
        <pt x="320" y="584" on="1"/>
        <pt x="318" y="584" on="1"/>
        <pt x="289" y="495" on="1"/>
      </contour>
      <contour>
        <pt x="1034" y="500" on="1"/>
        <pt x="1120" y="500" on="1"/>
        <pt x="873" y="-114" on="1"/>
        <pt x="833" y="-215" on="0"/>
        <pt x="731" y="-215" on="1"/>
        <pt x="688" y="-215" on="0"/>
        <pt x="658" y="-195" on="1"/>
        <pt x="675" y="-131" on="1"/>
        <pt x="695" y="-147" on="0"/>
        <pt x="725" y="-147" on="1"/>
        <pt x="783" y="-147" on="0"/>
        <pt x="814" y="-70" on="1"/>
        <pt x="843" y="1" on="1"/>
        <pt x="634" y="500" on="1"/>
        <pt x="725" y="500" on="1"/>
        <pt x="850" y="174" on="1"/>
        <pt x="881" y="85" on="1"/>
        <pt x="917" y="184" on="1"/>
      </contour>
    </TTGlyph>
    <TTGlyph name="Aring" xMin="16" yMin="0" xMax="624" yMax="852">
      <contour>
        <pt x="539" y="0" on="1"/>
        <pt x="480" y="155" on="1"/>
        <pt x="159" y="155" on="1"/>
        <pt x="100" y="0" on="1"/>
        <pt x="16" y="0" on="1"/>
        <pt x="260" y="627" on="1"/>
        <pt x="195" y="658" on="0"/>
        <pt x="195" y="734" on="1"/>
        <pt x="195" y="787" on="0"/>
        <pt x="265" y="852" on="0"/>
        <pt x="377" y="852" on="0"/>
        <pt x="446" y="787" on="0"/>
        <pt x="446" y="734" on="1"/>
        <pt x="446" y="658" on="0"/>
        <pt x="381" y="627" on="1"/>
        <pt x="624" y="0" on="1"/>
      </contour>
      <contour>
        <pt x="351" y="803" on="0"/>
        <pt x="289" y="803" on="0"/>
        <pt x="249" y="764" on="0"/>
        <pt x="249" y="704" on="0"/>
        <pt x="289" y="665" on="0"/>
        <pt x="351" y="665" on="0"/>
        <pt x="391" y="704" on="0"/>
        <pt x="391" y="764" on="0"/>
      </contour>
      <contour>
        <pt x="188" y="230" on="1"/>
        <pt x="451" y="230" on="1"/>
        <pt x="351" y="492" on="1"/>
        <pt x="320" y="584" on="1"/>
        <pt x="318" y="584" on="1"/>
        <pt x="289" y="495" on="1"/>
      </contour>
    </TTGlyph>
    <TTGlyph name="Atilde" xMin="16" yMin="0" xMax="624" yMax="877">
      <contour>
        <pt x="250" y="811" on="1"/>
        <pt x="212" y="811" on="0"/>
        <pt x="201" y="742" on="1"/>
        <pt x="138" y="742" on="1"/>
        <pt x="149" y="876" on="0"/>
        <pt x="251" y="876" on="1"/>
        <pt x="282" y="876" on="0"/>
        <pt x="333" y="842" on="0"/>
        <pt x="371" y="808" on="0"/>
        <pt x="387" y="808" on="1"/>
        <pt x="426" y="808" on="0"/>
        <pt x="437" y="877" on="1"/>
        <pt x="500" y="877" on="1"/>
        <pt x="489" y="743" on="0"/>
        <pt x="388" y="743" on="1"/>
        <pt x="356" y="743" on="0"/>
        <pt x="305" y="777" on="0"/>
        <pt x="267" y="811" on="0"/>
      </contour>
      <contour>
        <pt x="539" y="0" on="1"/>
        <pt x="480" y="155" on="1"/>
        <pt x="159" y="155" on="1"/>
        <pt x="100" y="0" on="1"/>
        <pt x="16" y="0" on="1"/>
        <pt x="273" y="660" on="1"/>
        <pt x="368" y="660" on="1"/>
        <pt x="624" y="0" on="1"/>
      </contour>
      <contour>
        <pt x="188" y="230" on="1"/>
        <pt x="451" y="230" on="1"/>
        <pt x="351" y="492" on="1"/>
        <pt x="320" y="584" on="1"/>
        <pt x="318" y="584" on="1"/>
        <pt x="289" y="495" on="1"/>
      </contour>
    </TTGlyph>
    <TTGlyph name="Atilde.swsh" xMin="-45" yMin="-110" xMax="834" yMax="877">
      <contour>
        <pt x="460" y="811" on="1"/>
        <pt x="422" y="811" on="0"/>
        <pt x="411" y="742" on="1"/>
        <pt x="348" y="742" on="1"/>
        <pt x="359" y="876" on="0"/>
        <pt x="461" y="876" on="1"/>
        <pt x="492" y="876" on="0"/>
        <pt x="543" y="842" on="0"/>
        <pt x="581" y="808" on="0"/>
        <pt x="597" y="808" on="1"/>
        <pt x="636" y="808" on="0"/>
        <pt x="647" y="877" on="1"/>
        <pt x="710" y="877" on="1"/>
        <pt x="699" y="743" on="0"/>
        <pt x="598" y="743" on="1"/>
        <pt x="566" y="743" on="0"/>
        <pt x="515" y="777" on="0"/>
        <pt x="477" y="811" on="0"/>
      </contour>
      <contour>
        <pt x="749" y="0" on="1"/>
        <pt x="707" y="111" on="1"/>
        <pt x="352" y="111" on="1"/>
        <pt x="326" y="42" on="1"/>
        <pt x="298" y="-35" on="0"/>
        <pt x="203" y="-110" on="0"/>
        <pt x="128" y="-110" on="1"/>
        <pt x="50" y="-110" on="0"/>
        <pt x="-40" y="-40" on="0"/>
        <pt x="-45" y="22" on="1"/>
        <pt x="13" y="65" on="1"/>
        <pt x="22" y="4" on="0"/>
        <pt x="75" y="-40" on="0"/>
        <pt x="127" y="-40" on="1"/>
        <pt x="178" y="-40" on="0"/>
        <pt x="231" y="14" on="0"/>
        <pt x="263" y="95" on="1"/>
        <pt x="458" y="595" on="1"/>
        <pt x="320" y="595" on="1"/>
        <pt x="252" y="595" on="0"/>
        <pt x="174" y="537" on="0"/>
        <pt x="174" y="480" on="1"/>
        <pt x="174" y="435" on="0"/>
        <pt x="235" y="374" on="0"/>
        <pt x="284" y="366" on="1"/>
        <pt x="253" y="302" on="1"/>
        <pt x="186" y="312" on="0"/>
        <pt x="94" y="410" on="0"/>
        <pt x="94" y="481" on="1"/>
        <pt x="94" y="564" on="0"/>
        <pt x="207" y="660" on="0"/>
        <pt x="303" y="660" on="1"/>
        <pt x="517" y="660" on="1"/>
        <pt x="578" y="660" on="1"/>
        <pt x="834" y="0" on="1"/>
      </contour>
      <contour>
        <pt x="381" y="186" on="1"/>
        <pt x="678" y="186" on="1"/>
        <pt x="561" y="492" on="1"/>
        <pt x="530" y="584" on="1"/>
        <pt x="528" y="584" on="1"/>
        <pt x="499" y="495" on="1"/>
      </contour>
    </TTGlyph>
    <TTGlyph name="B" xMin="98" yMin="0" xMax="575" yMax="660">
      <contour>
        <pt x="98" y="0" on="1"/>
        <pt x="98" y="660" on="1"/>
        <pt x="333" y="660" on="1"/>
        <pt x="446" y="660" on="0"/>
        <pt x="558" y="565" on="0"/>
        <pt x="558" y="484" on="1"/>
        <pt x="558" y="424" on="0"/>
        <pt x="498" y="347" on="0"/>
        <pt x="447" y="336" on="1"/>
        <pt x="447" y="335" on="1"/>
        <pt x="508" y="322" on="0"/>
        <pt x="575" y="239" on="0"/>
        <pt x="575" y="180" on="1"/>
        <pt x="575" y="99" on="0"/>
        <pt x="446" y="0" on="0"/>
        <pt x="332" y="0" on="1"/>
      </contour>
      <contour>
        <pt x="178" y="370" on="1"/>
        <pt x="334" y="370" on="1"/>
        <pt x="474" y="370" on="0"/>
        <pt x="474" y="478" on="1"/>
        <pt x="474" y="585" on="0"/>
        <pt x="334" y="585" on="1"/>
        <pt x="178" y="585" on="1"/>
      </contour>
      <contour>
        <pt x="178" y="75" on="1"/>
        <pt x="351" y="75" on="1"/>
        <pt x="491" y="75" on="0"/>
        <pt x="491" y="295" on="0"/>
        <pt x="351" y="295" on="1"/>
        <pt x="178" y="295" on="1"/>
      </contour>
    </TTGlyph>
    <TTGlyph name="C" xMin="40" yMin="-9" xMax="639" yMax="669">
      <contour>
        <pt x="40" y="331" on="1"/>
        <pt x="40" y="470" on="0"/>
        <pt x="238" y="669" on="0"/>
        <pt x="377" y="669" on="1"/>
        <pt x="454" y="669" on="0"/>
        <pt x="591" y="602" on="0"/>
        <pt x="638" y="544" on="1"/>
        <pt x="578" y="494" on="1"/>
        <pt x="500" y="590" on="0"/>
        <pt x="377" y="590" on="1"/>
        <pt x="270" y="590" on="0"/>
        <pt x="119" y="438" on="0"/>
        <pt x="119" y="330" on="1"/>
        <pt x="119" y="223" on="0"/>
        <pt x="271" y="70" on="0"/>
        <pt x="377" y="70" on="1"/>
        <pt x="500" y="70" on="0"/>
        <pt x="578" y="168" on="1"/>
        <pt x="639" y="118" on="1"/>
        <pt x="592" y="59" on="0"/>
        <pt x="455" y="-9" on="0"/>
        <pt x="377" y="-9" on="1"/>
        <pt x="238" y="-9" on="0"/>
        <pt x="40" y="190" on="0"/>
      </contour>
    </TTGlyph>
    <TTGlyph name="Cacute" xMin="40" yMin="-9" xMax="639" yMax="891">
      <contour>
        <pt x="374" y="891" on="1"/>
        <pt x="459" y="891" on="1"/>
        <pt x="398" y="743" on="1"/>
        <pt x="317" y="743" on="1"/>
      </contour>
      <contour>
        <pt x="40" y="331" on="1"/>
        <pt x="40" y="470" on="0"/>
        <pt x="238" y="669" on="0"/>
        <pt x="377" y="669" on="1"/>
        <pt x="454" y="669" on="0"/>
        <pt x="591" y="602" on="0"/>
        <pt x="638" y="544" on="1"/>
        <pt x="578" y="494" on="1"/>
        <pt x="500" y="590" on="0"/>
        <pt x="377" y="590" on="1"/>
        <pt x="270" y="590" on="0"/>
        <pt x="119" y="438" on="0"/>
        <pt x="119" y="330" on="1"/>
        <pt x="119" y="223" on="0"/>
        <pt x="271" y="70" on="0"/>
        <pt x="377" y="70" on="1"/>
        <pt x="500" y="70" on="0"/>
        <pt x="578" y="168" on="1"/>
        <pt x="639" y="118" on="1"/>
        <pt x="592" y="59" on="0"/>
        <pt x="455" y="-9" on="0"/>
        <pt x="377" y="-9" on="1"/>
        <pt x="238" y="-9" on="0"/>
        <pt x="40" y="190" on="0"/>
      </contour>
    </TTGlyph>
    <TTGlyph name="Ccaron" xMin="40" yMin="-9" xMax="639" yMax="905">
      <contour>
        <pt x="533" y="905" on="1"/>
        <pt x="419" y="738" on="1"/>
        <pt x="329" y="738" on="1"/>
        <pt x="215" y="905" on="1"/>
        <pt x="288" y="905" on="1"/>
        <pt x="374" y="790" on="1"/>
        <pt x="460" y="905" on="1"/>
      </contour>
      <contour>
        <pt x="40" y="331" on="1"/>
        <pt x="40" y="470" on="0"/>
        <pt x="238" y="669" on="0"/>
        <pt x="377" y="669" on="1"/>
        <pt x="454" y="669" on="0"/>
        <pt x="591" y="602" on="0"/>
        <pt x="638" y="544" on="1"/>
        <pt x="578" y="494" on="1"/>
        <pt x="500" y="590" on="0"/>
        <pt x="377" y="590" on="1"/>
        <pt x="270" y="590" on="0"/>
        <pt x="119" y="438" on="0"/>
        <pt x="119" y="330" on="1"/>
        <pt x="119" y="223" on="0"/>
        <pt x="271" y="70" on="0"/>
        <pt x="377" y="70" on="1"/>
        <pt x="500" y="70" on="0"/>
        <pt x="578" y="168" on="1"/>
        <pt x="639" y="118" on="1"/>
        <pt x="592" y="59" on="0"/>
        <pt x="455" y="-9" on="0"/>
        <pt x="377" y="-9" on="1"/>
        <pt x="238" y="-9" on="0"/>
        <pt x="40" y="190" on="0"/>
      </contour>
    </TTGlyph>
    <TTGlyph name="Ccedilla" xMin="40" yMin="-215" xMax="639" yMax="669">
      <contour>
        <pt x="639" y="118" on="1"/>
        <pt x="553" y="10" on="0"/>
        <pt x="417" y="-7" on="1"/>
        <pt x="472" y="-49" on="0"/>
        <pt x="472" y="-108" on="1"/>
        <pt x="472" y="-152" on="0"/>
        <pt x="409" y="-215" on="0"/>
        <pt x="356" y="-215" on="1"/>
        <pt x="285" y="-215" on="0"/>
        <pt x="246" y="-180" on="1"/>
        <pt x="276" y="-125" on="1"/>
        <pt x="304" y="-155" on="0"/>
        <pt x="345" y="-155" on="1"/>
        <pt x="369" y="-155" on="0"/>
        <pt x="402" y="-123" on="0"/>
        <pt x="402" y="-97" on="1"/>
        <pt x="402" y="-67" on="0"/>
        <pt x="366" y="-27" on="0"/>
        <pt x="317" y="-4" on="1"/>
        <pt x="198" y="18" on="0"/>
        <pt x="40" y="207" on="0"/>
        <pt x="40" y="331" on="1"/>
        <pt x="40" y="470" on="0"/>
        <pt x="238" y="669" on="0"/>
        <pt x="377" y="669" on="1"/>
        <pt x="454" y="669" on="0"/>
        <pt x="591" y="602" on="0"/>
        <pt x="638" y="544" on="1"/>
        <pt x="578" y="494" on="1"/>
        <pt x="500" y="590" on="0"/>
        <pt x="377" y="590" on="1"/>
        <pt x="270" y="590" on="0"/>
        <pt x="119" y="438" on="0"/>
        <pt x="119" y="330" on="1"/>
        <pt x="119" y="223" on="0"/>
        <pt x="271" y="70" on="0"/>
        <pt x="377" y="70" on="1"/>
        <pt x="500" y="70" on="0"/>
        <pt x="578" y="168" on="1"/>
      </contour>
    </TTGlyph>
    <TTGlyph name="D" xMin="98" yMin="0" xMax="674" yMax="660">
      <contour>
        <pt x="342" y="660" on="1"/>
        <pt x="498" y="660" on="0"/>
        <pt x="674" y="488" on="0"/>
        <pt x="674" y="172" on="0"/>
        <pt x="498" y="0" on="0"/>
        <pt x="342" y="0" on="1"/>
        <pt x="138" y="0" on="1"/>
        <pt x="98" y="0" on="1"/>
        <pt x="98" y="660" on="1"/>
        <pt x="178" y="660" on="1"/>
      </contour>
      <contour>
        <pt x="350" y="75" on="1"/>
        <pt x="463" y="75" on="0"/>
        <pt x="590" y="210" on="0"/>
        <pt x="590" y="450" on="0"/>
        <pt x="463" y="585" on="0"/>
        <pt x="350" y="585" on="1"/>
        <pt x="178" y="585" on="1"/>
        <pt x="178" y="75" on="1"/>
      </contour>
    </TTGlyph>
    <TTGlyph name="Dcaron" xMin="98" yMin="0" xMax="674" yMax="905">
      <contour>
        <pt x="381" y="738" on="1"/>
        <pt x="291" y="738" on="1"/>
        <pt x="177" y="905" on="1"/>
        <pt x="250" y="905" on="1"/>
        <pt x="336" y="790" on="1"/>
        <pt x="422" y="905" on="1"/>
        <pt x="495" y="905" on="1"/>
      </contour>
      <contour>
        <pt x="342" y="660" on="1"/>
        <pt x="498" y="660" on="0"/>
        <pt x="674" y="488" on="0"/>
        <pt x="674" y="172" on="0"/>
        <pt x="498" y="0" on="0"/>
        <pt x="342" y="0" on="1"/>
        <pt x="138" y="0" on="1"/>
        <pt x="98" y="0" on="1"/>
        <pt x="98" y="660" on="1"/>
        <pt x="178" y="660" on="1"/>
      </contour>
      <contour>
        <pt x="350" y="75" on="1"/>
        <pt x="463" y="75" on="0"/>
        <pt x="590" y="210" on="0"/>
        <pt x="590" y="450" on="0"/>
        <pt x="463" y="585" on="0"/>
        <pt x="350" y="585" on="1"/>
        <pt x="178" y="585" on="1"/>
        <pt x="178" y="75" on="1"/>
      </contour>
    </TTGlyph>
    <TTGlyph name="Dcroat" xMin="16" yMin="0" xMax="690" yMax="660">
      <contour>
        <pt x="358" y="660" on="1"/>
        <pt x="514" y="660" on="0"/>
        <pt x="690" y="488" on="0"/>
        <pt x="690" y="172" on="0"/>
        <pt x="514" y="0" on="0"/>
        <pt x="358" y="0" on="1"/>
        <pt x="154" y="0" on="1"/>
        <pt x="114" y="0" on="1"/>
        <pt x="114" y="303" on="1"/>
        <pt x="16" y="303" on="1"/>
        <pt x="16" y="363" on="1"/>
        <pt x="114" y="363" on="1"/>
        <pt x="114" y="660" on="1"/>
        <pt x="194" y="660" on="1"/>
      </contour>
      <contour>
        <pt x="366" y="75" on="1"/>
        <pt x="479" y="75" on="0"/>
        <pt x="606" y="210" on="0"/>
        <pt x="606" y="450" on="0"/>
        <pt x="479" y="585" on="0"/>
        <pt x="366" y="585" on="1"/>
        <pt x="194" y="585" on="1"/>
        <pt x="194" y="363" on="1"/>
        <pt x="391" y="363" on="1"/>
        <pt x="391" y="303" on="1"/>
        <pt x="194" y="303" on="1"/>
        <pt x="194" y="75" on="1"/>
      </contour>
    </TTGlyph>
    <TTGlyph name="E" xMin="98" yMin="0" xMax="576" yMax="660">
      <contour>
        <pt x="178" y="75" on="1"/>
        <pt x="576" y="75" on="1"/>
        <pt x="576" y="0" on="1"/>
        <pt x="140" y="0" on="1"/>
        <pt x="98" y="0" on="1"/>
        <pt x="98" y="660" on="1"/>
        <pt x="178" y="660" on="1"/>
        <pt x="561" y="660" on="1"/>
        <pt x="561" y="585" on="1"/>
        <pt x="178" y="585" on="1"/>
        <pt x="178" y="365" on="1"/>
        <pt x="513" y="365" on="1"/>
        <pt x="513" y="287" on="1"/>
        <pt x="178" y="287" on="1"/>
      </contour>
    </TTGlyph>
    <TTGlyph name="E.swsh" xMin="0" yMin="0" xMax="795" yMax="660">
      <contour>
        <pt x="397" y="75" on="1"/>
        <pt x="795" y="75" on="1"/>
        <pt x="795" y="0" on="1"/>
        <pt x="359" y="0" on="1"/>
        <pt x="317" y="0" on="1"/>
        <pt x="317" y="595" on="1"/>
        <pt x="226" y="595" on="1"/>
        <pt x="158" y="595" on="0"/>
        <pt x="80" y="537" on="0"/>
        <pt x="80" y="480" on="1"/>
        <pt x="80" y="435" on="0"/>
        <pt x="141" y="374" on="0"/>
        <pt x="190" y="366" on="1"/>
        <pt x="159" y="302" on="1"/>
        <pt x="92" y="312" on="0"/>
        <pt x="0" y="410" on="0"/>
        <pt x="0" y="481" on="1"/>
        <pt x="0" y="564" on="0"/>
        <pt x="113" y="660" on="0"/>
        <pt x="209" y="660" on="1"/>
        <pt x="359" y="660" on="1"/>
        <pt x="423" y="660" on="1"/>
        <pt x="780" y="660" on="1"/>
        <pt x="780" y="585" on="1"/>
        <pt x="397" y="585" on="1"/>
        <pt x="397" y="365" on="1"/>
        <pt x="732" y="365" on="1"/>
        <pt x="732" y="287" on="1"/>
        <pt x="397" y="287" on="1"/>
      </contour>
    </TTGlyph>
    <TTGlyph name="E.swsh.001" xMin="98" yMin="0" xMax="727" yMax="660">
      <contour>
        <pt x="604" y="338" on="1"/>
        <pt x="655" y="336" on="0"/>
        <pt x="727" y="247" on="0"/>
        <pt x="727" y="175" on="1"/>
        <pt x="727" y="91" on="0"/>
        <pt x="615" y="0" on="0"/>
        <pt x="518" y="0" on="1"/>
        <pt x="344" y="0" on="1"/>
        <pt x="140" y="0" on="1"/>
        <pt x="98" y="0" on="1"/>
        <pt x="98" y="660" on="1"/>
        <pt x="178" y="660" on="1"/>
        <pt x="586" y="660" on="1"/>
        <pt x="586" y="585" on="1"/>
        <pt x="178" y="585" on="1"/>
        <pt x="178" y="363" on="1"/>
        <pt x="396" y="363" on="1"/>
        <pt x="396" y="288" on="1"/>
        <pt x="178" y="288" on="1"/>
        <pt x="178" y="75" on="1"/>
        <pt x="491" y="75" on="1"/>
        <pt x="501" y="75" on="1"/>
        <pt x="576" y="75" on="0"/>
        <pt x="647" y="123" on="0"/>
        <pt x="647" y="176" on="1"/>
        <pt x="647" y="222" on="0"/>
        <pt x="606" y="273" on="0"/>
        <pt x="573" y="274" on="1"/>
      </contour>
    </TTGlyph>
    <TTGlyph name="Eacute" xMin="98" yMin="0" xMax="576" yMax="891">
      <contour>
        <pt x="429" y="891" on="1"/>
        <pt x="368" y="743" on="1"/>
        <pt x="287" y="743" on="1"/>
        <pt x="344" y="891" on="1"/>
      </contour>
      <contour>
        <pt x="178" y="75" on="1"/>
        <pt x="576" y="75" on="1"/>
        <pt x="576" y="0" on="1"/>
        <pt x="140" y="0" on="1"/>
        <pt x="98" y="0" on="1"/>
        <pt x="98" y="660" on="1"/>
        <pt x="178" y="660" on="1"/>
        <pt x="561" y="660" on="1"/>
        <pt x="561" y="585" on="1"/>
        <pt x="178" y="585" on="1"/>
        <pt x="178" y="365" on="1"/>
        <pt x="513" y="365" on="1"/>
        <pt x="513" y="287" on="1"/>
        <pt x="178" y="287" on="1"/>
      </contour>
    </TTGlyph>
    <TTGlyph name="Eacute.swsh" xMin="0" yMin="0" xMax="795" yMax="891">
      <contour>
        <pt x="648" y="891" on="1"/>
        <pt x="587" y="743" on="1"/>
        <pt x="506" y="743" on="1"/>
        <pt x="563" y="891" on="1"/>
      </contour>
      <contour>
        <pt x="397" y="75" on="1"/>
        <pt x="795" y="75" on="1"/>
        <pt x="795" y="0" on="1"/>
        <pt x="359" y="0" on="1"/>
        <pt x="317" y="0" on="1"/>
        <pt x="317" y="595" on="1"/>
        <pt x="226" y="595" on="1"/>
        <pt x="158" y="595" on="0"/>
        <pt x="80" y="537" on="0"/>
        <pt x="80" y="480" on="1"/>
        <pt x="80" y="435" on="0"/>
        <pt x="141" y="374" on="0"/>
        <pt x="190" y="366" on="1"/>
        <pt x="159" y="302" on="1"/>
        <pt x="92" y="312" on="0"/>
        <pt x="0" y="410" on="0"/>
        <pt x="0" y="481" on="1"/>
        <pt x="0" y="564" on="0"/>
        <pt x="113" y="660" on="0"/>
        <pt x="209" y="660" on="1"/>
        <pt x="359" y="660" on="1"/>
        <pt x="423" y="660" on="1"/>
        <pt x="780" y="660" on="1"/>
        <pt x="780" y="585" on="1"/>
        <pt x="397" y="585" on="1"/>
        <pt x="397" y="365" on="1"/>
        <pt x="732" y="365" on="1"/>
        <pt x="732" y="287" on="1"/>
        <pt x="397" y="287" on="1"/>
      </contour>
    </TTGlyph>
    <TTGlyph name="Eacute.swsh.001" xMin="98" yMin="0" xMax="727" yMax="891">
      <contour>
        <pt x="455" y="891" on="1"/>
        <pt x="394" y="743" on="1"/>
        <pt x="313" y="743" on="1"/>
        <pt x="370" y="891" on="1"/>
      </contour>
      <contour>
        <pt x="604" y="338" on="1"/>
        <pt x="655" y="336" on="0"/>
        <pt x="727" y="247" on="0"/>
        <pt x="727" y="175" on="1"/>
        <pt x="727" y="91" on="0"/>
        <pt x="615" y="0" on="0"/>
        <pt x="518" y="0" on="1"/>
        <pt x="344" y="0" on="1"/>
        <pt x="140" y="0" on="1"/>
        <pt x="98" y="0" on="1"/>
        <pt x="98" y="660" on="1"/>
        <pt x="178" y="660" on="1"/>
        <pt x="586" y="660" on="1"/>
        <pt x="586" y="585" on="1"/>
        <pt x="178" y="585" on="1"/>
        <pt x="178" y="363" on="1"/>
        <pt x="396" y="363" on="1"/>
        <pt x="396" y="288" on="1"/>
        <pt x="178" y="288" on="1"/>
        <pt x="178" y="75" on="1"/>
        <pt x="491" y="75" on="1"/>
        <pt x="501" y="75" on="1"/>
        <pt x="576" y="75" on="0"/>
        <pt x="647" y="123" on="0"/>
        <pt x="647" y="176" on="1"/>
        <pt x="647" y="222" on="0"/>
        <pt x="606" y="273" on="0"/>
        <pt x="573" y="274" on="1"/>
      </contour>
    </TTGlyph>
    <TTGlyph name="Ecaron" xMin="98" yMin="0" xMax="576" yMax="905">
      <contour>
        <pt x="374" y="738" on="1"/>
        <pt x="284" y="738" on="1"/>
        <pt x="170" y="905" on="1"/>
        <pt x="243" y="905" on="1"/>
        <pt x="329" y="790" on="1"/>
        <pt x="415" y="905" on="1"/>
        <pt x="488" y="905" on="1"/>
      </contour>
      <contour>
        <pt x="178" y="75" on="1"/>
        <pt x="576" y="75" on="1"/>
        <pt x="576" y="0" on="1"/>
        <pt x="140" y="0" on="1"/>
        <pt x="98" y="0" on="1"/>
        <pt x="98" y="660" on="1"/>
        <pt x="178" y="660" on="1"/>
        <pt x="561" y="660" on="1"/>
        <pt x="561" y="585" on="1"/>
        <pt x="178" y="585" on="1"/>
        <pt x="178" y="365" on="1"/>
        <pt x="513" y="365" on="1"/>
        <pt x="513" y="287" on="1"/>
        <pt x="178" y="287" on="1"/>
      </contour>
    </TTGlyph>
    <TTGlyph name="Ecaron.swsh" xMin="0" yMin="0" xMax="795" yMax="905">
      <contour>
        <pt x="593" y="738" on="1"/>
        <pt x="503" y="738" on="1"/>
        <pt x="389" y="905" on="1"/>
        <pt x="462" y="905" on="1"/>
        <pt x="548" y="790" on="1"/>
        <pt x="634" y="905" on="1"/>
        <pt x="707" y="905" on="1"/>
      </contour>
      <contour>
        <pt x="397" y="75" on="1"/>
        <pt x="795" y="75" on="1"/>
        <pt x="795" y="0" on="1"/>
        <pt x="359" y="0" on="1"/>
        <pt x="317" y="0" on="1"/>
        <pt x="317" y="595" on="1"/>
        <pt x="226" y="595" on="1"/>
        <pt x="158" y="595" on="0"/>
        <pt x="80" y="537" on="0"/>
        <pt x="80" y="480" on="1"/>
        <pt x="80" y="435" on="0"/>
        <pt x="141" y="374" on="0"/>
        <pt x="190" y="366" on="1"/>
        <pt x="159" y="302" on="1"/>
        <pt x="92" y="312" on="0"/>
        <pt x="0" y="410" on="0"/>
        <pt x="0" y="481" on="1"/>
        <pt x="0" y="564" on="0"/>
        <pt x="113" y="660" on="0"/>
        <pt x="209" y="660" on="1"/>
        <pt x="359" y="660" on="1"/>
        <pt x="423" y="660" on="1"/>
        <pt x="780" y="660" on="1"/>
        <pt x="780" y="585" on="1"/>
        <pt x="397" y="585" on="1"/>
        <pt x="397" y="365" on="1"/>
        <pt x="732" y="365" on="1"/>
        <pt x="732" y="287" on="1"/>
        <pt x="397" y="287" on="1"/>
      </contour>
    </TTGlyph>
    <TTGlyph name="Ecaron.swsh.001" xMin="98" yMin="0" xMax="727" yMax="905">
      <contour>
        <pt x="400" y="738" on="1"/>
        <pt x="310" y="738" on="1"/>
        <pt x="196" y="905" on="1"/>
        <pt x="269" y="905" on="1"/>
        <pt x="355" y="790" on="1"/>
        <pt x="441" y="905" on="1"/>
        <pt x="514" y="905" on="1"/>
      </contour>
      <contour>
        <pt x="604" y="338" on="1"/>
        <pt x="655" y="336" on="0"/>
        <pt x="727" y="247" on="0"/>
        <pt x="727" y="175" on="1"/>
        <pt x="727" y="91" on="0"/>
        <pt x="615" y="0" on="0"/>
        <pt x="518" y="0" on="1"/>
        <pt x="344" y="0" on="1"/>
        <pt x="140" y="0" on="1"/>
        <pt x="98" y="0" on="1"/>
        <pt x="98" y="660" on="1"/>
        <pt x="178" y="660" on="1"/>
        <pt x="586" y="660" on="1"/>
        <pt x="586" y="585" on="1"/>
        <pt x="178" y="585" on="1"/>
        <pt x="178" y="363" on="1"/>
        <pt x="396" y="363" on="1"/>
        <pt x="396" y="288" on="1"/>
        <pt x="178" y="288" on="1"/>
        <pt x="178" y="75" on="1"/>
        <pt x="491" y="75" on="1"/>
        <pt x="501" y="75" on="1"/>
        <pt x="576" y="75" on="0"/>
        <pt x="647" y="123" on="0"/>
        <pt x="647" y="176" on="1"/>
        <pt x="647" y="222" on="0"/>
        <pt x="606" y="273" on="0"/>
        <pt x="573" y="274" on="1"/>
      </contour>
    </TTGlyph>
    <TTGlyph name="Ecircumflex" xMin="98" yMin="0" xMax="576" yMax="903">
      <contour>
        <pt x="329" y="851" on="1"/>
        <pt x="243" y="736" on="1"/>
        <pt x="170" y="736" on="1"/>
        <pt x="284" y="903" on="1"/>
        <pt x="374" y="903" on="1"/>
        <pt x="488" y="736" on="1"/>
        <pt x="415" y="736" on="1"/>
      </contour>
      <contour>
        <pt x="178" y="75" on="1"/>
        <pt x="576" y="75" on="1"/>
        <pt x="576" y="0" on="1"/>
        <pt x="140" y="0" on="1"/>
        <pt x="98" y="0" on="1"/>
        <pt x="98" y="660" on="1"/>
        <pt x="178" y="660" on="1"/>
        <pt x="561" y="660" on="1"/>
        <pt x="561" y="585" on="1"/>
        <pt x="178" y="585" on="1"/>
        <pt x="178" y="365" on="1"/>
        <pt x="513" y="365" on="1"/>
        <pt x="513" y="287" on="1"/>
        <pt x="178" y="287" on="1"/>
      </contour>
    </TTGlyph>
    <TTGlyph name="Ecircumflex.swsh" xMin="0" yMin="0" xMax="795" yMax="903">
      <contour>
        <pt x="548" y="851" on="1"/>
        <pt x="462" y="736" on="1"/>
        <pt x="389" y="736" on="1"/>
        <pt x="503" y="903" on="1"/>
        <pt x="593" y="903" on="1"/>
        <pt x="707" y="736" on="1"/>
        <pt x="634" y="736" on="1"/>
      </contour>
      <contour>
        <pt x="397" y="75" on="1"/>
        <pt x="795" y="75" on="1"/>
        <pt x="795" y="0" on="1"/>
        <pt x="359" y="0" on="1"/>
        <pt x="317" y="0" on="1"/>
        <pt x="317" y="595" on="1"/>
        <pt x="226" y="595" on="1"/>
        <pt x="158" y="595" on="0"/>
        <pt x="80" y="537" on="0"/>
        <pt x="80" y="480" on="1"/>
        <pt x="80" y="435" on="0"/>
        <pt x="141" y="374" on="0"/>
        <pt x="190" y="366" on="1"/>
        <pt x="159" y="302" on="1"/>
        <pt x="92" y="312" on="0"/>
        <pt x="0" y="410" on="0"/>
        <pt x="0" y="481" on="1"/>
        <pt x="0" y="564" on="0"/>
        <pt x="113" y="660" on="0"/>
        <pt x="209" y="660" on="1"/>
        <pt x="359" y="660" on="1"/>
        <pt x="423" y="660" on="1"/>
        <pt x="780" y="660" on="1"/>
        <pt x="780" y="585" on="1"/>
        <pt x="397" y="585" on="1"/>
        <pt x="397" y="365" on="1"/>
        <pt x="732" y="365" on="1"/>
        <pt x="732" y="287" on="1"/>
        <pt x="397" y="287" on="1"/>
      </contour>
    </TTGlyph>
    <TTGlyph name="Ecircumflex.swsh.001" xMin="98" yMin="0" xMax="727" yMax="903">
      <contour>
        <pt x="355" y="851" on="1"/>
        <pt x="269" y="736" on="1"/>
        <pt x="196" y="736" on="1"/>
        <pt x="310" y="903" on="1"/>
        <pt x="400" y="903" on="1"/>
        <pt x="514" y="736" on="1"/>
        <pt x="441" y="736" on="1"/>
      </contour>
      <contour>
        <pt x="604" y="338" on="1"/>
        <pt x="655" y="336" on="0"/>
        <pt x="727" y="247" on="0"/>
        <pt x="727" y="175" on="1"/>
        <pt x="727" y="91" on="0"/>
        <pt x="615" y="0" on="0"/>
        <pt x="518" y="0" on="1"/>
        <pt x="344" y="0" on="1"/>
        <pt x="140" y="0" on="1"/>
        <pt x="98" y="0" on="1"/>
        <pt x="98" y="660" on="1"/>
        <pt x="178" y="660" on="1"/>
        <pt x="586" y="660" on="1"/>
        <pt x="586" y="585" on="1"/>
        <pt x="178" y="585" on="1"/>
        <pt x="178" y="363" on="1"/>
        <pt x="396" y="363" on="1"/>
        <pt x="396" y="288" on="1"/>
        <pt x="178" y="288" on="1"/>
        <pt x="178" y="75" on="1"/>
        <pt x="491" y="75" on="1"/>
        <pt x="501" y="75" on="1"/>
        <pt x="576" y="75" on="0"/>
        <pt x="647" y="123" on="0"/>
        <pt x="647" y="176" on="1"/>
        <pt x="647" y="222" on="0"/>
        <pt x="606" y="273" on="0"/>
        <pt x="573" y="274" on="1"/>
      </contour>
    </TTGlyph>
    <TTGlyph name="Edieresis" xMin="98" yMin="0" xMax="576" yMax="856">
      <contour>
        <pt x="232" y="742" on="1"/>
        <pt x="208" y="742" on="0"/>
        <pt x="175" y="776" on="0"/>
        <pt x="175" y="822" on="0"/>
        <pt x="208" y="856" on="0"/>
        <pt x="232" y="856" on="1"/>
        <pt x="255" y="856" on="0"/>
        <pt x="289" y="822" on="0"/>
        <pt x="289" y="776" on="0"/>
        <pt x="255" y="742" on="0"/>
      </contour>
      <contour>
        <pt x="426" y="742" on="1"/>
        <pt x="402" y="742" on="0"/>
        <pt x="369" y="776" on="0"/>
        <pt x="369" y="822" on="0"/>
        <pt x="402" y="856" on="0"/>
        <pt x="426" y="856" on="1"/>
        <pt x="449" y="856" on="0"/>
        <pt x="483" y="822" on="0"/>
        <pt x="483" y="776" on="0"/>
        <pt x="449" y="742" on="0"/>
      </contour>
      <contour>
        <pt x="178" y="75" on="1"/>
        <pt x="576" y="75" on="1"/>
        <pt x="576" y="0" on="1"/>
        <pt x="140" y="0" on="1"/>
        <pt x="98" y="0" on="1"/>
        <pt x="98" y="660" on="1"/>
        <pt x="178" y="660" on="1"/>
        <pt x="561" y="660" on="1"/>
        <pt x="561" y="585" on="1"/>
        <pt x="178" y="585" on="1"/>
        <pt x="178" y="365" on="1"/>
        <pt x="513" y="365" on="1"/>
        <pt x="513" y="287" on="1"/>
        <pt x="178" y="287" on="1"/>
      </contour>
    </TTGlyph>
    <TTGlyph name="Edieresis.swsh" xMin="0" yMin="0" xMax="795" yMax="856">
      <contour>
        <pt x="451" y="742" on="1"/>
        <pt x="427" y="742" on="0"/>
        <pt x="394" y="776" on="0"/>
        <pt x="394" y="822" on="0"/>
        <pt x="427" y="856" on="0"/>
        <pt x="451" y="856" on="1"/>
        <pt x="474" y="856" on="0"/>
        <pt x="508" y="822" on="0"/>
        <pt x="508" y="776" on="0"/>
        <pt x="474" y="742" on="0"/>
      </contour>
      <contour>
        <pt x="645" y="742" on="1"/>
        <pt x="621" y="742" on="0"/>
        <pt x="588" y="776" on="0"/>
        <pt x="588" y="822" on="0"/>
        <pt x="621" y="856" on="0"/>
        <pt x="645" y="856" on="1"/>
        <pt x="668" y="856" on="0"/>
        <pt x="702" y="822" on="0"/>
        <pt x="702" y="776" on="0"/>
        <pt x="668" y="742" on="0"/>
      </contour>
      <contour>
        <pt x="397" y="75" on="1"/>
        <pt x="795" y="75" on="1"/>
        <pt x="795" y="0" on="1"/>
        <pt x="359" y="0" on="1"/>
        <pt x="317" y="0" on="1"/>
        <pt x="317" y="595" on="1"/>
        <pt x="226" y="595" on="1"/>
        <pt x="158" y="595" on="0"/>
        <pt x="80" y="537" on="0"/>
        <pt x="80" y="480" on="1"/>
        <pt x="80" y="435" on="0"/>
        <pt x="141" y="374" on="0"/>
        <pt x="190" y="366" on="1"/>
        <pt x="159" y="302" on="1"/>
        <pt x="92" y="312" on="0"/>
        <pt x="0" y="410" on="0"/>
        <pt x="0" y="481" on="1"/>
        <pt x="0" y="564" on="0"/>
        <pt x="113" y="660" on="0"/>
        <pt x="209" y="660" on="1"/>
        <pt x="359" y="660" on="1"/>
        <pt x="423" y="660" on="1"/>
        <pt x="780" y="660" on="1"/>
        <pt x="780" y="585" on="1"/>
        <pt x="397" y="585" on="1"/>
        <pt x="397" y="365" on="1"/>
        <pt x="732" y="365" on="1"/>
        <pt x="732" y="287" on="1"/>
        <pt x="397" y="287" on="1"/>
      </contour>
    </TTGlyph>
    <TTGlyph name="Edieresis.swsh.001" xMin="98" yMin="0" xMax="727" yMax="856">
      <contour>
        <pt x="258" y="742" on="1"/>
        <pt x="234" y="742" on="0"/>
        <pt x="201" y="776" on="0"/>
        <pt x="201" y="822" on="0"/>
        <pt x="234" y="856" on="0"/>
        <pt x="258" y="856" on="1"/>
        <pt x="281" y="856" on="0"/>
        <pt x="315" y="822" on="0"/>
        <pt x="315" y="776" on="0"/>
        <pt x="281" y="742" on="0"/>
      </contour>
      <contour>
        <pt x="452" y="742" on="1"/>
        <pt x="428" y="742" on="0"/>
        <pt x="395" y="776" on="0"/>
        <pt x="395" y="822" on="0"/>
        <pt x="428" y="856" on="0"/>
        <pt x="452" y="856" on="1"/>
        <pt x="475" y="856" on="0"/>
        <pt x="509" y="822" on="0"/>
        <pt x="509" y="776" on="0"/>
        <pt x="475" y="742" on="0"/>
      </contour>
      <contour>
        <pt x="604" y="338" on="1"/>
        <pt x="655" y="336" on="0"/>
        <pt x="727" y="247" on="0"/>
        <pt x="727" y="175" on="1"/>
        <pt x="727" y="91" on="0"/>
        <pt x="615" y="0" on="0"/>
        <pt x="518" y="0" on="1"/>
        <pt x="344" y="0" on="1"/>
        <pt x="140" y="0" on="1"/>
        <pt x="98" y="0" on="1"/>
        <pt x="98" y="660" on="1"/>
        <pt x="178" y="660" on="1"/>
        <pt x="586" y="660" on="1"/>
        <pt x="586" y="585" on="1"/>
        <pt x="178" y="585" on="1"/>
        <pt x="178" y="363" on="1"/>
        <pt x="396" y="363" on="1"/>
        <pt x="396" y="288" on="1"/>
        <pt x="178" y="288" on="1"/>
        <pt x="178" y="75" on="1"/>
        <pt x="491" y="75" on="1"/>
        <pt x="501" y="75" on="1"/>
        <pt x="576" y="75" on="0"/>
        <pt x="647" y="123" on="0"/>
        <pt x="647" y="176" on="1"/>
        <pt x="647" y="222" on="0"/>
        <pt x="606" y="273" on="0"/>
        <pt x="573" y="274" on="1"/>
      </contour>
    </TTGlyph>
    <TTGlyph name="Edotaccent" xMin="98" yMin="0" xMax="576" yMax="875">
      <contour>
        <pt x="330" y="756" on="1"/>
        <pt x="305" y="756" on="0"/>
        <pt x="270" y="791" on="0"/>
        <pt x="270" y="816" on="1"/>
        <pt x="270" y="840" on="0"/>
        <pt x="305" y="875" on="0"/>
        <pt x="330" y="875" on="1"/>
        <pt x="354" y="875" on="0"/>
        <pt x="389" y="840" on="0"/>
        <pt x="389" y="816" on="1"/>
        <pt x="389" y="791" on="0"/>
        <pt x="354" y="756" on="0"/>
      </contour>
      <contour>
        <pt x="178" y="75" on="1"/>
        <pt x="576" y="75" on="1"/>
        <pt x="576" y="0" on="1"/>
        <pt x="140" y="0" on="1"/>
        <pt x="98" y="0" on="1"/>
        <pt x="98" y="660" on="1"/>
        <pt x="178" y="660" on="1"/>
        <pt x="561" y="660" on="1"/>
        <pt x="561" y="585" on="1"/>
        <pt x="178" y="585" on="1"/>
        <pt x="178" y="365" on="1"/>
        <pt x="513" y="365" on="1"/>
        <pt x="513" y="287" on="1"/>
        <pt x="178" y="287" on="1"/>
      </contour>
    </TTGlyph>
    <TTGlyph name="Edotaccent.swsh" xMin="0" yMin="0" xMax="795" yMax="875">
      <contour>
        <pt x="549" y="756" on="1"/>
        <pt x="524" y="756" on="0"/>
        <pt x="489" y="791" on="0"/>
        <pt x="489" y="816" on="1"/>
        <pt x="489" y="840" on="0"/>
        <pt x="524" y="875" on="0"/>
        <pt x="549" y="875" on="1"/>
        <pt x="573" y="875" on="0"/>
        <pt x="608" y="840" on="0"/>
        <pt x="608" y="816" on="1"/>
        <pt x="608" y="791" on="0"/>
        <pt x="573" y="756" on="0"/>
      </contour>
      <contour>
        <pt x="397" y="75" on="1"/>
        <pt x="795" y="75" on="1"/>
        <pt x="795" y="0" on="1"/>
        <pt x="359" y="0" on="1"/>
        <pt x="317" y="0" on="1"/>
        <pt x="317" y="595" on="1"/>
        <pt x="226" y="595" on="1"/>
        <pt x="158" y="595" on="0"/>
        <pt x="80" y="537" on="0"/>
        <pt x="80" y="480" on="1"/>
        <pt x="80" y="435" on="0"/>
        <pt x="141" y="374" on="0"/>
        <pt x="190" y="366" on="1"/>
        <pt x="159" y="302" on="1"/>
        <pt x="92" y="312" on="0"/>
        <pt x="0" y="410" on="0"/>
        <pt x="0" y="481" on="1"/>
        <pt x="0" y="564" on="0"/>
        <pt x="113" y="660" on="0"/>
        <pt x="209" y="660" on="1"/>
        <pt x="359" y="660" on="1"/>
        <pt x="423" y="660" on="1"/>
        <pt x="780" y="660" on="1"/>
        <pt x="780" y="585" on="1"/>
        <pt x="397" y="585" on="1"/>
        <pt x="397" y="365" on="1"/>
        <pt x="732" y="365" on="1"/>
        <pt x="732" y="287" on="1"/>
        <pt x="397" y="287" on="1"/>
      </contour>
    </TTGlyph>
    <TTGlyph name="Edotaccent.swsh.001" xMin="98" yMin="0" xMax="727" yMax="875">
      <contour>
        <pt x="356" y="756" on="1"/>
        <pt x="331" y="756" on="0"/>
        <pt x="296" y="791" on="0"/>
        <pt x="296" y="816" on="1"/>
        <pt x="296" y="840" on="0"/>
        <pt x="331" y="875" on="0"/>
        <pt x="356" y="875" on="1"/>
        <pt x="380" y="875" on="0"/>
        <pt x="415" y="840" on="0"/>
        <pt x="415" y="816" on="1"/>
        <pt x="415" y="791" on="0"/>
        <pt x="380" y="756" on="0"/>
      </contour>
      <contour>
        <pt x="604" y="338" on="1"/>
        <pt x="655" y="336" on="0"/>
        <pt x="727" y="247" on="0"/>
        <pt x="727" y="175" on="1"/>
        <pt x="727" y="91" on="0"/>
        <pt x="615" y="0" on="0"/>
        <pt x="518" y="0" on="1"/>
        <pt x="344" y="0" on="1"/>
        <pt x="140" y="0" on="1"/>
        <pt x="98" y="0" on="1"/>
        <pt x="98" y="660" on="1"/>
        <pt x="178" y="660" on="1"/>
        <pt x="586" y="660" on="1"/>
        <pt x="586" y="585" on="1"/>
        <pt x="178" y="585" on="1"/>
        <pt x="178" y="363" on="1"/>
        <pt x="396" y="363" on="1"/>
        <pt x="396" y="288" on="1"/>
        <pt x="178" y="288" on="1"/>
        <pt x="178" y="75" on="1"/>
        <pt x="491" y="75" on="1"/>
        <pt x="501" y="75" on="1"/>
        <pt x="576" y="75" on="0"/>
        <pt x="647" y="123" on="0"/>
        <pt x="647" y="176" on="1"/>
        <pt x="647" y="222" on="0"/>
        <pt x="606" y="273" on="0"/>
        <pt x="573" y="274" on="1"/>
      </contour>
    </TTGlyph>
    <TTGlyph name="Egrave" xMin="98" yMin="0" xMax="576" yMax="891">
      <contour>
        <pt x="377" y="743" on="1"/>
        <pt x="296" y="743" on="1"/>
        <pt x="235" y="891" on="1"/>
        <pt x="320" y="891" on="1"/>
      </contour>
      <contour>
        <pt x="178" y="75" on="1"/>
        <pt x="576" y="75" on="1"/>
        <pt x="576" y="0" on="1"/>
        <pt x="140" y="0" on="1"/>
        <pt x="98" y="0" on="1"/>
        <pt x="98" y="660" on="1"/>
        <pt x="178" y="660" on="1"/>
        <pt x="561" y="660" on="1"/>
        <pt x="561" y="585" on="1"/>
        <pt x="178" y="585" on="1"/>
        <pt x="178" y="365" on="1"/>
        <pt x="513" y="365" on="1"/>
        <pt x="513" y="287" on="1"/>
        <pt x="178" y="287" on="1"/>
      </contour>
    </TTGlyph>
    <TTGlyph name="Egrave.swsh" xMin="0" yMin="0" xMax="795" yMax="891">
      <contour>
        <pt x="581" y="743" on="1"/>
        <pt x="500" y="743" on="1"/>
        <pt x="439" y="891" on="1"/>
        <pt x="524" y="891" on="1"/>
      </contour>
      <contour>
        <pt x="397" y="75" on="1"/>
        <pt x="795" y="75" on="1"/>
        <pt x="795" y="0" on="1"/>
        <pt x="359" y="0" on="1"/>
        <pt x="317" y="0" on="1"/>
        <pt x="317" y="595" on="1"/>
        <pt x="226" y="595" on="1"/>
        <pt x="158" y="595" on="0"/>
        <pt x="80" y="537" on="0"/>
        <pt x="80" y="480" on="1"/>
        <pt x="80" y="435" on="0"/>
        <pt x="141" y="374" on="0"/>
        <pt x="190" y="366" on="1"/>
        <pt x="159" y="302" on="1"/>
        <pt x="92" y="312" on="0"/>
        <pt x="0" y="410" on="0"/>
        <pt x="0" y="481" on="1"/>
        <pt x="0" y="564" on="0"/>
        <pt x="113" y="660" on="0"/>
        <pt x="209" y="660" on="1"/>
        <pt x="359" y="660" on="1"/>
        <pt x="423" y="660" on="1"/>
        <pt x="780" y="660" on="1"/>
        <pt x="780" y="585" on="1"/>
        <pt x="397" y="585" on="1"/>
        <pt x="397" y="365" on="1"/>
        <pt x="732" y="365" on="1"/>
        <pt x="732" y="287" on="1"/>
        <pt x="397" y="287" on="1"/>
      </contour>
    </TTGlyph>
    <TTGlyph name="Egrave.swsh.001" xMin="98" yMin="0" xMax="727" yMax="891">
      <contour>
        <pt x="388" y="743" on="1"/>
        <pt x="307" y="743" on="1"/>
        <pt x="246" y="891" on="1"/>
        <pt x="331" y="891" on="1"/>
      </contour>
      <contour>
        <pt x="604" y="338" on="1"/>
        <pt x="655" y="336" on="0"/>
        <pt x="727" y="247" on="0"/>
        <pt x="727" y="175" on="1"/>
        <pt x="727" y="91" on="0"/>
        <pt x="615" y="0" on="0"/>
        <pt x="518" y="0" on="1"/>
        <pt x="344" y="0" on="1"/>
        <pt x="140" y="0" on="1"/>
        <pt x="98" y="0" on="1"/>
        <pt x="98" y="660" on="1"/>
        <pt x="178" y="660" on="1"/>
        <pt x="586" y="660" on="1"/>
        <pt x="586" y="585" on="1"/>
        <pt x="178" y="585" on="1"/>
        <pt x="178" y="363" on="1"/>
        <pt x="396" y="363" on="1"/>
        <pt x="396" y="288" on="1"/>
        <pt x="178" y="288" on="1"/>
        <pt x="178" y="75" on="1"/>
        <pt x="491" y="75" on="1"/>
        <pt x="501" y="75" on="1"/>
        <pt x="576" y="75" on="0"/>
        <pt x="647" y="123" on="0"/>
        <pt x="647" y="176" on="1"/>
        <pt x="647" y="222" on="0"/>
        <pt x="606" y="273" on="0"/>
        <pt x="573" y="274" on="1"/>
      </contour>
    </TTGlyph>
    <TTGlyph name="Emacron" xMin="98" yMin="0" xMax="576" yMax="823">
      <contour>
        <pt x="503" y="823" on="1"/>
        <pt x="503" y="756" on="1"/>
        <pt x="155" y="756" on="1"/>
        <pt x="155" y="823" on="1"/>
      </contour>
      <contour>
        <pt x="178" y="75" on="1"/>
        <pt x="576" y="75" on="1"/>
        <pt x="576" y="0" on="1"/>
        <pt x="140" y="0" on="1"/>
        <pt x="98" y="0" on="1"/>
        <pt x="98" y="660" on="1"/>
        <pt x="178" y="660" on="1"/>
        <pt x="561" y="660" on="1"/>
        <pt x="561" y="585" on="1"/>
        <pt x="178" y="585" on="1"/>
        <pt x="178" y="365" on="1"/>
        <pt x="513" y="365" on="1"/>
        <pt x="513" y="287" on="1"/>
        <pt x="178" y="287" on="1"/>
      </contour>
    </TTGlyph>
    <TTGlyph name="Emacron.swsh" xMin="0" yMin="0" xMax="795" yMax="823">
      <contour>
        <pt x="722" y="823" on="1"/>
        <pt x="722" y="756" on="1"/>
        <pt x="374" y="756" on="1"/>
        <pt x="374" y="823" on="1"/>
      </contour>
      <contour>
        <pt x="397" y="75" on="1"/>
        <pt x="795" y="75" on="1"/>
        <pt x="795" y="0" on="1"/>
        <pt x="359" y="0" on="1"/>
        <pt x="317" y="0" on="1"/>
        <pt x="317" y="595" on="1"/>
        <pt x="226" y="595" on="1"/>
        <pt x="158" y="595" on="0"/>
        <pt x="80" y="537" on="0"/>
        <pt x="80" y="480" on="1"/>
        <pt x="80" y="435" on="0"/>
        <pt x="141" y="374" on="0"/>
        <pt x="190" y="366" on="1"/>
        <pt x="159" y="302" on="1"/>
        <pt x="92" y="312" on="0"/>
        <pt x="0" y="410" on="0"/>
        <pt x="0" y="481" on="1"/>
        <pt x="0" y="564" on="0"/>
        <pt x="113" y="660" on="0"/>
        <pt x="209" y="660" on="1"/>
        <pt x="359" y="660" on="1"/>
        <pt x="423" y="660" on="1"/>
        <pt x="780" y="660" on="1"/>
        <pt x="780" y="585" on="1"/>
        <pt x="397" y="585" on="1"/>
        <pt x="397" y="365" on="1"/>
        <pt x="732" y="365" on="1"/>
        <pt x="732" y="287" on="1"/>
        <pt x="397" y="287" on="1"/>
      </contour>
    </TTGlyph>
    <TTGlyph name="Emacron.swsh.001" xMin="98" yMin="0" xMax="727" yMax="823">
      <contour>
        <pt x="529" y="823" on="1"/>
        <pt x="529" y="756" on="1"/>
        <pt x="181" y="756" on="1"/>
        <pt x="181" y="823" on="1"/>
      </contour>
      <contour>
        <pt x="604" y="338" on="1"/>
        <pt x="655" y="336" on="0"/>
        <pt x="727" y="247" on="0"/>
        <pt x="727" y="175" on="1"/>
        <pt x="727" y="91" on="0"/>
        <pt x="615" y="0" on="0"/>
        <pt x="518" y="0" on="1"/>
        <pt x="344" y="0" on="1"/>
        <pt x="140" y="0" on="1"/>
        <pt x="98" y="0" on="1"/>
        <pt x="98" y="660" on="1"/>
        <pt x="178" y="660" on="1"/>
        <pt x="586" y="660" on="1"/>
        <pt x="586" y="585" on="1"/>
        <pt x="178" y="585" on="1"/>
        <pt x="178" y="363" on="1"/>
        <pt x="396" y="363" on="1"/>
        <pt x="396" y="288" on="1"/>
        <pt x="178" y="288" on="1"/>
        <pt x="178" y="75" on="1"/>
        <pt x="491" y="75" on="1"/>
        <pt x="501" y="75" on="1"/>
        <pt x="576" y="75" on="0"/>
        <pt x="647" y="123" on="0"/>
        <pt x="647" y="176" on="1"/>
        <pt x="647" y="222" on="0"/>
        <pt x="606" y="273" on="0"/>
        <pt x="573" y="274" on="1"/>
      </contour>
    </TTGlyph>
    <TTGlyph name="Eogonek" xMin="98" yMin="-215" xMax="588" yMax="660">
      <contour>
        <pt x="572" y="-145" on="1"/>
        <pt x="588" y="-196" on="1"/>
        <pt x="560" y="-215" on="0"/>
        <pt x="452" y="-215" on="0"/>
        <pt x="387" y="-162" on="0"/>
        <pt x="387" y="-117" on="1"/>
        <pt x="387" y="-38" on="0"/>
        <pt x="474" y="0" on="1"/>
        <pt x="140" y="0" on="1"/>
        <pt x="98" y="0" on="1"/>
        <pt x="98" y="660" on="1"/>
        <pt x="178" y="660" on="1"/>
        <pt x="561" y="660" on="1"/>
        <pt x="561" y="585" on="1"/>
        <pt x="178" y="585" on="1"/>
        <pt x="178" y="365" on="1"/>
        <pt x="513" y="365" on="1"/>
        <pt x="513" y="287" on="1"/>
        <pt x="178" y="287" on="1"/>
        <pt x="178" y="75" on="1"/>
        <pt x="576" y="75" on="1"/>
        <pt x="576" y="0" on="1"/>
        <pt x="505" y="-24" on="0"/>
        <pt x="452" y="-74" on="0"/>
        <pt x="452" y="-106" on="1"/>
        <pt x="452" y="-131" on="0"/>
        <pt x="486" y="-158" on="0"/>
        <pt x="516" y="-158" on="1"/>
        <pt x="553" y="-158" on="0"/>
      </contour>
    </TTGlyph>
    <TTGlyph name="Eogonek.swsh" xMin="0" yMin="-215" xMax="807" yMax="660">
      <contour>
        <pt x="791" y="-145" on="1"/>
        <pt x="807" y="-196" on="1"/>
        <pt x="779" y="-215" on="0"/>
        <pt x="671" y="-215" on="0"/>
        <pt x="606" y="-162" on="0"/>
        <pt x="606" y="-117" on="1"/>
        <pt x="606" y="-38" on="0"/>
        <pt x="693" y="0" on="1"/>
        <pt x="359" y="0" on="1"/>
        <pt x="317" y="0" on="1"/>
        <pt x="317" y="595" on="1"/>
        <pt x="226" y="595" on="1"/>
        <pt x="158" y="595" on="0"/>
        <pt x="80" y="537" on="0"/>
        <pt x="80" y="480" on="1"/>
        <pt x="80" y="435" on="0"/>
        <pt x="141" y="374" on="0"/>
        <pt x="190" y="366" on="1"/>
        <pt x="159" y="302" on="1"/>
        <pt x="92" y="312" on="0"/>
        <pt x="0" y="410" on="0"/>
        <pt x="0" y="481" on="1"/>
        <pt x="0" y="564" on="0"/>
        <pt x="113" y="660" on="0"/>
        <pt x="209" y="660" on="1"/>
        <pt x="359" y="660" on="1"/>
        <pt x="423" y="660" on="1"/>
        <pt x="780" y="660" on="1"/>
        <pt x="780" y="585" on="1"/>
        <pt x="397" y="585" on="1"/>
        <pt x="397" y="365" on="1"/>
        <pt x="732" y="365" on="1"/>
        <pt x="732" y="287" on="1"/>
        <pt x="397" y="287" on="1"/>
        <pt x="397" y="75" on="1"/>
        <pt x="795" y="75" on="1"/>
        <pt x="795" y="0" on="1"/>
        <pt x="724" y="-24" on="0"/>
        <pt x="671" y="-74" on="0"/>
        <pt x="671" y="-106" on="1"/>
        <pt x="671" y="-131" on="0"/>
        <pt x="705" y="-158" on="0"/>
        <pt x="735" y="-158" on="1"/>
        <pt x="772" y="-158" on="0"/>
      </contour>
    </TTGlyph>
    <TTGlyph name="Eth" xMin="16" yMin="0" xMax="690" yMax="660">
      <contour>
        <pt x="358" y="660" on="1"/>
        <pt x="514" y="660" on="0"/>
        <pt x="690" y="488" on="0"/>
        <pt x="690" y="172" on="0"/>
        <pt x="514" y="0" on="0"/>
        <pt x="358" y="0" on="1"/>
        <pt x="154" y="0" on="1"/>
        <pt x="114" y="0" on="1"/>
        <pt x="114" y="303" on="1"/>
        <pt x="16" y="303" on="1"/>
        <pt x="16" y="363" on="1"/>
        <pt x="114" y="363" on="1"/>
        <pt x="114" y="660" on="1"/>
        <pt x="194" y="660" on="1"/>
      </contour>
      <contour>
        <pt x="366" y="75" on="1"/>
        <pt x="479" y="75" on="0"/>
        <pt x="606" y="210" on="0"/>
        <pt x="606" y="450" on="0"/>
        <pt x="479" y="585" on="0"/>
        <pt x="366" y="585" on="1"/>
        <pt x="194" y="585" on="1"/>
        <pt x="194" y="363" on="1"/>
        <pt x="391" y="363" on="1"/>
        <pt x="391" y="303" on="1"/>
        <pt x="194" y="303" on="1"/>
        <pt x="194" y="75" on="1"/>
      </contour>
    </TTGlyph>
    <TTGlyph name="Euro" xMin="-43" yMin="-15" xMax="650" yMax="675">
      <contour>
        <pt x="588" y="164" on="1"/>
        <pt x="650" y="114" on="1"/>
        <pt x="601" y="54" on="0"/>
        <pt x="461" y="-15" on="0"/>
        <pt x="381" y="-15" on="1"/>
        <pt x="271" y="-15" on="0"/>
        <pt x="92" y="113" on="0"/>
        <pt x="55" y="214" on="1"/>
        <pt x="-43" y="214" on="1"/>
        <pt x="-16" y="279" on="1"/>
        <pt x="39" y="279" on="1"/>
        <pt x="35" y="302" on="0"/>
        <pt x="35" y="331" on="1"/>
        <pt x="35" y="343" on="0"/>
        <pt x="37" y="365" on="1"/>
        <pt x="-43" y="365" on="1"/>
        <pt x="-16" y="430" on="1"/>
        <pt x="50" y="430" on="1"/>
        <pt x="83" y="537" on="0"/>
        <pt x="266" y="675" on="0"/>
        <pt x="381" y="675" on="1"/>
        <pt x="460" y="675" on="0"/>
        <pt x="601" y="607" on="0"/>
        <pt x="649" y="548" on="1"/>
        <pt x="588" y="498" on="1"/>
        <pt x="550" y="544" on="0"/>
        <pt x="442" y="597" on="0"/>
        <pt x="381" y="597" on="1"/>
        <pt x="299" y="597" on="0"/>
        <pt x="164" y="505" on="0"/>
        <pt x="134" y="430" on="1"/>
        <pt x="457" y="430" on="1"/>
        <pt x="437" y="365" on="1"/>
        <pt x="116" y="365" on="1"/>
        <pt x="114" y="343" on="0"/>
        <pt x="114" y="330" on="1"/>
        <pt x="114" y="307" on="0"/>
        <pt x="119" y="279" on="1"/>
        <pt x="417" y="279" on="1"/>
        <pt x="397" y="214" on="1"/>
        <pt x="141" y="214" on="1"/>
        <pt x="175" y="146" on="0"/>
        <pt x="303" y="64" on="0"/>
        <pt x="381" y="64" on="1"/>
        <pt x="442" y="64" on="0"/>
        <pt x="551" y="117" on="0"/>
      </contour>
    </TTGlyph>
    <TTGlyph name="Euro.tf" xMin="9" yMin="-10" xMax="578" yMax="670">
      <contour>
        <pt x="505" y="196" on="1"/>
        <pt x="578" y="169" on="1"/>
        <pt x="558" y="84" on="0"/>
        <pt x="436" y="-10" on="0"/>
        <pt x="345" y="-10" on="1"/>
        <pt x="248" y="-10" on="0"/>
        <pt x="119" y="108" on="0"/>
        <pt x="96" y="214" on="1"/>
        <pt x="9" y="214" on="1"/>
        <pt x="9" y="279" on="1"/>
        <pt x="87" y="279" on="1"/>
        <pt x="85" y="311" on="0"/>
        <pt x="85" y="330" on="1"/>
        <pt x="85" y="354" on="0"/>
        <pt x="86" y="365" on="1"/>
        <pt x="9" y="365" on="1"/>
        <pt x="9" y="430" on="1"/>
        <pt x="94" y="430" on="1"/>
        <pt x="115" y="543" on="0"/>
        <pt x="248" y="670" on="0"/>
        <pt x="348" y="670" on="1"/>
        <pt x="433" y="670" on="0"/>
        <pt x="546" y="591" on="0"/>
        <pt x="565" y="516" on="1"/>
        <pt x="493" y="482" on="1"/>
        <pt x="484" y="538" on="0"/>
        <pt x="410" y="600" on="0"/>
        <pt x="355" y="600" on="1"/>
        <pt x="291" y="600" on="0"/>
        <pt x="195" y="510" on="0"/>
        <pt x="176" y="430" on="1"/>
        <pt x="404" y="430" on="1"/>
        <pt x="384" y="365" on="1"/>
        <pt x="166" y="365" on="1"/>
        <pt x="165" y="354" on="0"/>
        <pt x="165" y="330" on="1"/>
        <pt x="165" y="311" on="0"/>
        <pt x="167" y="279" on="1"/>
        <pt x="364" y="279" on="1"/>
        <pt x="344" y="214" on="1"/>
        <pt x="179" y="214" on="1"/>
        <pt x="198" y="141" on="0"/>
        <pt x="285" y="60" on="0"/>
        <pt x="346" y="60" on="1"/>
        <pt x="411" y="60" on="0"/>
        <pt x="495" y="130" on="0"/>
      </contour>
    </TTGlyph>
    <TTGlyph name="F" xMin="90" yMin="0" xMax="552" yMax="660">
      <contour>
        <pt x="552" y="585" on="1"/>
        <pt x="170" y="585" on="1"/>
        <pt x="170" y="365" on="1"/>
        <pt x="505" y="365" on="1"/>
        <pt x="505" y="287" on="1"/>
        <pt x="170" y="287" on="1"/>
        <pt x="170" y="0" on="1"/>
        <pt x="90" y="0" on="1"/>
        <pt x="90" y="660" on="1"/>
        <pt x="170" y="660" on="1"/>
        <pt x="552" y="660" on="1"/>
      </contour>
    </TTGlyph>
    <TTGlyph name="F.swsh" xMin="0" yMin="0" xMax="771" yMax="660">
      <contour>
        <pt x="771" y="585" on="1"/>
        <pt x="389" y="585" on="1"/>
        <pt x="389" y="365" on="1"/>
        <pt x="724" y="365" on="1"/>
        <pt x="724" y="287" on="1"/>
        <pt x="389" y="287" on="1"/>
        <pt x="389" y="0" on="1"/>
        <pt x="309" y="0" on="1"/>
        <pt x="309" y="595" on="1"/>
        <pt x="226" y="595" on="1"/>
        <pt x="158" y="595" on="0"/>
        <pt x="80" y="537" on="0"/>
        <pt x="80" y="480" on="1"/>
        <pt x="80" y="435" on="0"/>
        <pt x="141" y="374" on="0"/>
        <pt x="190" y="366" on="1"/>
        <pt x="159" y="302" on="1"/>
        <pt x="92" y="312" on="0"/>
        <pt x="0" y="410" on="0"/>
        <pt x="0" y="481" on="1"/>
        <pt x="0" y="564" on="0"/>
        <pt x="113" y="660" on="0"/>
        <pt x="209" y="660" on="1"/>
        <pt x="351" y="660" on="1"/>
        <pt x="423" y="660" on="1"/>
        <pt x="771" y="660" on="1"/>
      </contour>
    </TTGlyph>
    <TTGlyph name="G" xMin="35" yMin="-10" xMax="715" yMax="671">
      <contour>
        <pt x="715" y="305" on="1"/>
        <pt x="705" y="171" on="0"/>
        <pt x="508" y="-10" on="0"/>
        <pt x="373" y="-10" on="1"/>
        <pt x="232" y="-10" on="0"/>
        <pt x="35" y="188" on="0"/>
        <pt x="35" y="331" on="1"/>
        <pt x="35" y="473" on="0"/>
        <pt x="232" y="671" on="0"/>
        <pt x="373" y="671" on="1"/>
        <pt x="455" y="671" on="0"/>
        <pt x="598" y="598" on="0"/>
        <pt x="646" y="535" on="1"/>
        <pt x="581" y="486" on="1"/>
        <pt x="545" y="535" on="0"/>
        <pt x="435" y="592" on="0"/>
        <pt x="373" y="592" on="1"/>
        <pt x="265" y="592" on="0"/>
        <pt x="117" y="440" on="0"/>
        <pt x="117" y="330" on="1"/>
        <pt x="117" y="221" on="0"/>
        <pt x="265" y="69" on="0"/>
        <pt x="373" y="69" on="1"/>
        <pt x="451" y="69" on="0"/>
        <pt x="580" y="153" on="0"/>
        <pt x="612" y="222" on="1"/>
        <pt x="415" y="222" on="1"/>
        <pt x="415" y="305" on="1"/>
      </contour>
    </TTGlyph>
    <TTGlyph name="G.ss04" xMin="35" yMin="-15" xMax="726" yMax="675">
      <contour>
        <pt x="726" y="305" on="1"/>
        <pt x="716" y="171" on="0"/>
        <pt x="517" y="-15" on="0"/>
        <pt x="381" y="-15" on="1"/>
        <pt x="238" y="-15" on="0"/>
        <pt x="35" y="188" on="0"/>
        <pt x="35" y="331" on="1"/>
        <pt x="35" y="473" on="0"/>
        <pt x="238" y="675" on="0"/>
        <pt x="381" y="675" on="1"/>
        <pt x="463" y="675" on="0"/>
        <pt x="608" y="602" on="0"/>
        <pt x="656" y="539" on="1"/>
        <pt x="591" y="490" on="1"/>
        <pt x="554" y="539" on="0"/>
        <pt x="444" y="596" on="0"/>
        <pt x="381" y="596" on="1"/>
        <pt x="272" y="596" on="0"/>
        <pt x="118" y="440" on="0"/>
        <pt x="118" y="330" on="1"/>
        <pt x="118" y="221" on="0"/>
        <pt x="273" y="64" on="0"/>
        <pt x="381" y="64" on="1"/>
        <pt x="460" y="64" on="0"/>
        <pt x="590" y="152" on="0"/>
        <pt x="622" y="222" on="1"/>
        <pt x="423" y="222" on="1"/>
        <pt x="423" y="305" on="1"/>
      </contour>
    </TTGlyph>
    <TTGlyph name="Gbreve" xMin="35" yMin="-10" xMax="715" yMax="885">
      <contour>
        <pt x="439" y="737" on="0"/>
        <pt x="307" y="737" on="0"/>
        <pt x="225" y="819" on="0"/>
        <pt x="225" y="885" on="1"/>
        <pt x="291" y="885" on="1"/>
        <pt x="291" y="849" on="0"/>
        <pt x="338" y="797" on="0"/>
        <pt x="408" y="797" on="0"/>
        <pt x="455" y="849" on="0"/>
        <pt x="455" y="885" on="1"/>
        <pt x="521" y="885" on="1"/>
        <pt x="521" y="819" on="0"/>
      </contour>
      <contour>
        <pt x="715" y="305" on="1"/>
        <pt x="705" y="171" on="0"/>
        <pt x="508" y="-10" on="0"/>
        <pt x="373" y="-10" on="1"/>
        <pt x="232" y="-10" on="0"/>
        <pt x="35" y="188" on="0"/>
        <pt x="35" y="331" on="1"/>
        <pt x="35" y="473" on="0"/>
        <pt x="232" y="671" on="0"/>
        <pt x="373" y="671" on="1"/>
        <pt x="455" y="671" on="0"/>
        <pt x="598" y="598" on="0"/>
        <pt x="646" y="535" on="1"/>
        <pt x="581" y="486" on="1"/>
        <pt x="545" y="535" on="0"/>
        <pt x="435" y="592" on="0"/>
        <pt x="373" y="592" on="1"/>
        <pt x="265" y="592" on="0"/>
        <pt x="117" y="440" on="0"/>
        <pt x="117" y="330" on="1"/>
        <pt x="117" y="221" on="0"/>
        <pt x="265" y="69" on="0"/>
        <pt x="373" y="69" on="1"/>
        <pt x="451" y="69" on="0"/>
        <pt x="580" y="153" on="0"/>
        <pt x="612" y="222" on="1"/>
        <pt x="415" y="222" on="1"/>
        <pt x="415" y="305" on="1"/>
      </contour>
    </TTGlyph>
    <TTGlyph name="Gbreve.ss04" xMin="35" yMin="-15" xMax="726" yMax="885">
      <contour>
        <pt x="429" y="737" on="0"/>
        <pt x="297" y="737" on="0"/>
        <pt x="215" y="819" on="0"/>
        <pt x="215" y="885" on="1"/>
        <pt x="281" y="885" on="1"/>
        <pt x="281" y="849" on="0"/>
        <pt x="328" y="797" on="0"/>
        <pt x="398" y="797" on="0"/>
        <pt x="445" y="849" on="0"/>
        <pt x="445" y="885" on="1"/>
        <pt x="511" y="885" on="1"/>
        <pt x="511" y="819" on="0"/>
      </contour>
      <contour>
        <pt x="726" y="305" on="1"/>
        <pt x="716" y="171" on="0"/>
        <pt x="517" y="-15" on="0"/>
        <pt x="381" y="-15" on="1"/>
        <pt x="238" y="-15" on="0"/>
        <pt x="35" y="188" on="0"/>
        <pt x="35" y="331" on="1"/>
        <pt x="35" y="473" on="0"/>
        <pt x="238" y="675" on="0"/>
        <pt x="381" y="675" on="1"/>
        <pt x="463" y="675" on="0"/>
        <pt x="608" y="602" on="0"/>
        <pt x="656" y="539" on="1"/>
        <pt x="591" y="490" on="1"/>
        <pt x="554" y="539" on="0"/>
        <pt x="444" y="596" on="0"/>
        <pt x="381" y="596" on="1"/>
        <pt x="272" y="596" on="0"/>
        <pt x="118" y="440" on="0"/>
        <pt x="118" y="330" on="1"/>
        <pt x="118" y="221" on="0"/>
        <pt x="273" y="64" on="0"/>
        <pt x="381" y="64" on="1"/>
        <pt x="460" y="64" on="0"/>
        <pt x="590" y="152" on="0"/>
        <pt x="622" y="222" on="1"/>
        <pt x="423" y="222" on="1"/>
        <pt x="423" y="305" on="1"/>
      </contour>
    </TTGlyph>
    <TTGlyph name="Gcommaaccent.sc" xMin="37" yMin="-237" xMax="621" yMax="570">
      <contour>
        <pt x="621" y="264" on="1"/>
        <pt x="614" y="148" on="0"/>
        <pt x="447" y="-10" on="0"/>
        <pt x="330" y="-10" on="1"/>
        <pt x="208" y="-10" on="0"/>
        <pt x="37" y="161" on="0"/>
        <pt x="37" y="283" on="1"/>
        <pt x="37" y="404" on="0"/>
        <pt x="208" y="570" on="0"/>
        <pt x="330" y="570" on="1"/>
        <pt x="411" y="570" on="0"/>
        <pt x="546" y="494" on="0"/>
        <pt x="584" y="428" on="1"/>
        <pt x="521" y="393" on="1"/>
        <pt x="493" y="442" on="0"/>
        <pt x="392" y="498" on="0"/>
        <pt x="330" y="498" on="1"/>
        <pt x="237" y="498" on="0"/>
        <pt x="109" y="374" on="0"/>
        <pt x="109" y="192" on="0"/>
        <pt x="238" y="64" on="0"/>
        <pt x="330" y="64" on="1"/>
        <pt x="399" y="64" on="0"/>
        <pt x="510" y="139" on="0"/>
        <pt x="534" y="200" on="1"/>
        <pt x="367" y="200" on="1"/>
        <pt x="367" y="264" on="1"/>
      </contour>
      <contour>
        <pt x="225" y="-237" on="1"/>
        <pt x="282" y="-76" on="1"/>
        <pt x="353" y="-76" on="1"/>
        <pt x="295" y="-237" on="1"/>
      </contour>
    </TTGlyph>
    <TTGlyph name="Gcommaaccent.sc.ss04" xMin="37" yMin="-237" xMax="621" yMax="570">
      <contour>
        <pt x="621" y="264" on="1"/>
        <pt x="614" y="148" on="0"/>
        <pt x="447" y="-10" on="0"/>
        <pt x="330" y="-10" on="1"/>
        <pt x="208" y="-10" on="0"/>
        <pt x="37" y="161" on="0"/>
        <pt x="37" y="283" on="1"/>
        <pt x="37" y="404" on="0"/>
        <pt x="208" y="570" on="0"/>
        <pt x="330" y="570" on="1"/>
        <pt x="411" y="570" on="0"/>
        <pt x="546" y="494" on="0"/>
        <pt x="584" y="428" on="1"/>
        <pt x="521" y="393" on="1"/>
        <pt x="493" y="442" on="0"/>
        <pt x="392" y="498" on="0"/>
        <pt x="330" y="498" on="1"/>
        <pt x="237" y="498" on="0"/>
        <pt x="109" y="374" on="0"/>
        <pt x="109" y="192" on="0"/>
        <pt x="238" y="64" on="0"/>
        <pt x="330" y="64" on="1"/>
        <pt x="399" y="64" on="0"/>
        <pt x="510" y="139" on="0"/>
        <pt x="534" y="200" on="1"/>
        <pt x="367" y="200" on="1"/>
        <pt x="367" y="264" on="1"/>
      </contour>
      <contour>
        <pt x="251" y="-237" on="1"/>
        <pt x="308" y="-76" on="1"/>
        <pt x="379" y="-76" on="1"/>
        <pt x="321" y="-237" on="1"/>
      </contour>
    </TTGlyph>
    <TTGlyph name="Gcommaaccent.ss04" xMin="35" yMin="-230" xMax="726" yMax="675">
      <contour>
        <pt x="726" y="305" on="1"/>
        <pt x="716" y="171" on="0"/>
        <pt x="517" y="-15" on="0"/>
        <pt x="381" y="-15" on="1"/>
        <pt x="238" y="-15" on="0"/>
        <pt x="35" y="188" on="0"/>
        <pt x="35" y="331" on="1"/>
        <pt x="35" y="473" on="0"/>
        <pt x="238" y="675" on="0"/>
        <pt x="381" y="675" on="1"/>
        <pt x="463" y="675" on="0"/>
        <pt x="608" y="602" on="0"/>
        <pt x="656" y="539" on="1"/>
        <pt x="591" y="490" on="1"/>
        <pt x="554" y="539" on="0"/>
        <pt x="444" y="596" on="0"/>
        <pt x="381" y="596" on="1"/>
        <pt x="272" y="596" on="0"/>
        <pt x="118" y="440" on="0"/>
        <pt x="118" y="330" on="1"/>
        <pt x="118" y="221" on="0"/>
        <pt x="273" y="64" on="0"/>
        <pt x="381" y="64" on="1"/>
        <pt x="460" y="64" on="0"/>
        <pt x="590" y="152" on="0"/>
        <pt x="622" y="222" on="1"/>
        <pt x="423" y="222" on="1"/>
        <pt x="423" y="305" on="1"/>
      </contour>
      <contour>
        <pt x="297" y="-230" on="1"/>
        <pt x="354" y="-69" on="1"/>
        <pt x="425" y="-69" on="1"/>
        <pt x="367" y="-230" on="1"/>
      </contour>
    </TTGlyph>
    <TTGlyph name="H" xMin="98" yMin="0" xMax="616" yMax="660">
      <contour>
        <pt x="536" y="660" on="1"/>
        <pt x="616" y="660" on="1"/>
        <pt x="616" y="0" on="1"/>
        <pt x="536" y="0" on="1"/>
        <pt x="536" y="287" on="1"/>
        <pt x="178" y="287" on="1"/>
        <pt x="178" y="0" on="1"/>
        <pt x="98" y="0" on="1"/>
        <pt x="98" y="660" on="1"/>
        <pt x="178" y="660" on="1"/>
        <pt x="178" y="365" on="1"/>
        <pt x="536" y="365" on="1"/>
      </contour>
    </TTGlyph>
    <TTGlyph name="Hinferior" xMin="45" yMin="-189" xMax="395" yMax="208">
      <contour>
        <pt x="323" y="208" on="1"/>
        <pt x="395" y="208" on="1"/>
        <pt x="395" y="-189" on="1"/>
        <pt x="323" y="-189" on="1"/>
        <pt x="323" y="-17" on="1"/>
        <pt x="117" y="-17" on="1"/>
        <pt x="117" y="-189" on="1"/>
        <pt x="45" y="-189" on="1"/>
        <pt x="45" y="208" on="1"/>
        <pt x="117" y="208" on="1"/>
        <pt x="117" y="41" on="1"/>
        <pt x="323" y="41" on="1"/>
      </contour>
    </TTGlyph>
    <TTGlyph name="Hsuperior" xMin="45" yMin="333" xMax="395" yMax="730">
      <contour>
        <pt x="323" y="730" on="1"/>
        <pt x="395" y="730" on="1"/>
        <pt x="395" y="333" on="1"/>
        <pt x="323" y="333" on="1"/>
        <pt x="323" y="505" on="1"/>
        <pt x="117" y="505" on="1"/>
        <pt x="117" y="333" on="1"/>
        <pt x="45" y="333" on="1"/>
        <pt x="45" y="730" on="1"/>
        <pt x="117" y="730" on="1"/>
        <pt x="117" y="563" on="1"/>
        <pt x="323" y="563" on="1"/>
      </contour>
    </TTGlyph>
    <TTGlyph name="I" xMin="96" yMin="0" xMax="180" yMax="660">
      <contour>
        <pt x="180" y="660" on="1"/>
        <pt x="180" y="0" on="1"/>
        <pt x="96" y="0" on="1"/>
        <pt x="96" y="660" on="1"/>
      </contour>
    </TTGlyph>
    <TTGlyph name="IJ" xMin="96" yMin="-10" xMax="731" yMax="660">
      <contour>
        <pt x="180" y="660" on="1"/>
        <pt x="180" y="0" on="1"/>
        <pt x="96" y="0" on="1"/>
        <pt x="96" y="660" on="1"/>
      </contour>
      <contour>
        <pt x="731" y="660" on="1"/>
        <pt x="731" y="226" on="1"/>
        <pt x="731" y="117" on="0"/>
        <pt x="608" y="-10" on="0"/>
        <pt x="512" y="-10" on="1"/>
        <pt x="426" y="-10" on="0"/>
        <pt x="319" y="101" on="0"/>
        <pt x="311" y="202" on="1"/>
        <pt x="310" y="212" on="0"/>
        <pt x="310" y="234" on="1"/>
        <pt x="387" y="233" on="1"/>
        <pt x="387" y="220" on="0"/>
        <pt x="389" y="196" on="1"/>
        <pt x="397" y="134" on="0"/>
        <pt x="459" y="65" on="0"/>
        <pt x="509" y="65" on="1"/>
        <pt x="627" y="65" on="0"/>
        <pt x="647" y="189" on="1"/>
        <pt x="651" y="212" on="0"/>
        <pt x="651" y="246" on="1"/>
        <pt x="651" y="660" on="1"/>
      </contour>
    </TTGlyph>
    <TTGlyph name="IJ.ss05" xMin="91" yMin="-10" xMax="522" yMax="660">
      <contour>
        <pt x="522" y="660" on="1"/>
        <pt x="522" y="226" on="1"/>
        <pt x="522" y="116" on="0"/>
        <pt x="404" y="-10" on="0"/>
        <pt x="303" y="-10" on="1"/>
        <pt x="196" y="-10" on="0"/>
        <pt x="91" y="95" on="0"/>
        <pt x="102" y="191" on="1"/>
        <pt x="179" y="191" on="1"/>
        <pt x="168" y="128" on="0"/>
        <pt x="235" y="65" on="0"/>
        <pt x="303" y="65" on="1"/>
        <pt x="369" y="65" on="0"/>
        <pt x="442" y="158" on="0"/>
        <pt x="442" y="246" on="1"/>
        <pt x="442" y="660" on="1"/>
      </contour>
      <contour>
        <pt x="178" y="660" on="1"/>
        <pt x="178" y="287" on="1"/>
        <pt x="98" y="287" on="1"/>
        <pt x="98" y="660" on="1"/>
      </contour>
    </TTGlyph>
    <TTGlyph name="Iacute" xMin="96" yMin="0" xMax="250" yMax="891">
      <contour>
        <pt x="165" y="891" on="1"/>
        <pt x="250" y="891" on="1"/>
        <pt x="189" y="743" on="1"/>
        <pt x="108" y="743" on="1"/>
      </contour>
      <contour>
        <pt x="180" y="660" on="1"/>
        <pt x="180" y="0" on="1"/>
        <pt x="96" y="0" on="1"/>
        <pt x="96" y="660" on="1"/>
      </contour>
    </TTGlyph>
    <TTGlyph name="Iacute_J.loclNLD" xMin="96" yMin="-10" xMax="821" yMax="891">
      <contour>
        <pt x="153" y="891" on="1"/>
        <pt x="238" y="891" on="1"/>
        <pt x="177" y="743" on="1"/>
        <pt x="96" y="743" on="1"/>
      </contour>
      <contour>
        <pt x="736" y="891" on="1"/>
        <pt x="821" y="891" on="1"/>
        <pt x="760" y="743" on="1"/>
        <pt x="679" y="743" on="1"/>
      </contour>
      <contour>
        <pt x="180" y="660" on="1"/>
        <pt x="180" y="0" on="1"/>
        <pt x="96" y="0" on="1"/>
        <pt x="96" y="660" on="1"/>
      </contour>
      <contour>
        <pt x="731" y="660" on="1"/>
        <pt x="731" y="226" on="1"/>
        <pt x="731" y="117" on="0"/>
        <pt x="608" y="-10" on="0"/>
        <pt x="512" y="-10" on="1"/>
        <pt x="426" y="-10" on="0"/>
        <pt x="319" y="101" on="0"/>
        <pt x="311" y="202" on="1"/>
        <pt x="310" y="212" on="0"/>
        <pt x="310" y="234" on="1"/>
        <pt x="387" y="233" on="1"/>
        <pt x="387" y="220" on="0"/>
        <pt x="389" y="196" on="1"/>
        <pt x="397" y="134" on="0"/>
        <pt x="459" y="65" on="0"/>
        <pt x="509" y="65" on="1"/>
        <pt x="627" y="65" on="0"/>
        <pt x="647" y="189" on="1"/>
        <pt x="651" y="212" on="0"/>
        <pt x="651" y="246" on="1"/>
        <pt x="651" y="660" on="1"/>
      </contour>
    </TTGlyph>
    <TTGlyph name="Iacute_J.loclNLD.ss05" xMin="84" yMin="-10" xMax="585" yMax="891">
      <contour>
        <pt x="146" y="891" on="1"/>
        <pt x="231" y="891" on="1"/>
        <pt x="170" y="743" on="1"/>
        <pt x="89" y="743" on="1"/>
      </contour>
      <contour>
        <pt x="500" y="891" on="1"/>
        <pt x="585" y="891" on="1"/>
        <pt x="524" y="743" on="1"/>
        <pt x="443" y="743" on="1"/>
      </contour>
      <contour>
        <pt x="515" y="660" on="1"/>
        <pt x="515" y="226" on="1"/>
        <pt x="515" y="116" on="0"/>
        <pt x="397" y="-10" on="0"/>
        <pt x="296" y="-10" on="1"/>
        <pt x="189" y="-10" on="0"/>
        <pt x="84" y="95" on="0"/>
        <pt x="95" y="191" on="1"/>
        <pt x="172" y="191" on="1"/>
        <pt x="161" y="128" on="0"/>
        <pt x="228" y="65" on="0"/>
        <pt x="296" y="65" on="1"/>
        <pt x="362" y="65" on="0"/>
        <pt x="435" y="158" on="0"/>
        <pt x="435" y="246" on="1"/>
        <pt x="435" y="660" on="1"/>
      </contour>
      <contour>
        <pt x="171" y="660" on="1"/>
        <pt x="171" y="287" on="1"/>
        <pt x="91" y="287" on="1"/>
        <pt x="91" y="660" on="1"/>
      </contour>
    </TTGlyph>
    <TTGlyph name="Icircumflex" xMin="-21" yMin="0" xMax="297" yMax="903">
      <contour>
        <pt x="297" y="736" on="1"/>
        <pt x="224" y="736" on="1"/>
        <pt x="138" y="851" on="1"/>
        <pt x="52" y="736" on="1"/>
        <pt x="-21" y="736" on="1"/>
        <pt x="93" y="903" on="1"/>
        <pt x="183" y="903" on="1"/>
      </contour>
      <contour>
        <pt x="180" y="660" on="1"/>
        <pt x="180" y="0" on="1"/>
        <pt x="96" y="0" on="1"/>
        <pt x="96" y="660" on="1"/>
      </contour>
    </TTGlyph>
    <TTGlyph name="Idieresis" xMin="-5" yMin="0" xMax="281" yMax="856">
      <contour>
        <pt x="26" y="856" on="0"/>
        <pt x="78" y="856" on="0"/>
        <pt x="109" y="824" on="0"/>
        <pt x="109" y="774" on="0"/>
        <pt x="78" y="742" on="0"/>
        <pt x="26" y="742" on="0"/>
        <pt x="-5" y="774" on="0"/>
        <pt x="-5" y="824" on="0"/>
      </contour>
      <contour>
        <pt x="198" y="856" on="0"/>
        <pt x="250" y="856" on="0"/>
        <pt x="281" y="824" on="0"/>
        <pt x="281" y="774" on="0"/>
        <pt x="250" y="742" on="0"/>
        <pt x="198" y="742" on="0"/>
        <pt x="167" y="774" on="0"/>
        <pt x="167" y="824" on="0"/>
      </contour>
      <contour>
        <pt x="180" y="660" on="1"/>
        <pt x="180" y="0" on="1"/>
        <pt x="96" y="0" on="1"/>
        <pt x="96" y="660" on="1"/>
      </contour>
    </TTGlyph>
    <TTGlyph name="Idotaccent" xMin="79" yMin="0" xMax="198" yMax="875">
      <contour>
        <pt x="139" y="756" on="1"/>
        <pt x="114" y="756" on="0"/>
        <pt x="79" y="791" on="0"/>
        <pt x="79" y="816" on="1"/>
        <pt x="79" y="840" on="0"/>
        <pt x="114" y="875" on="0"/>
        <pt x="139" y="875" on="1"/>
        <pt x="163" y="875" on="0"/>
        <pt x="198" y="840" on="0"/>
        <pt x="198" y="816" on="1"/>
        <pt x="198" y="791" on="0"/>
        <pt x="163" y="756" on="0"/>
      </contour>
      <contour>
        <pt x="180" y="660" on="1"/>
        <pt x="180" y="0" on="1"/>
        <pt x="96" y="0" on="1"/>
        <pt x="96" y="660" on="1"/>
      </contour>
    </TTGlyph>
    <TTGlyph name="Igrave" xMin="29" yMin="0" xMax="180" yMax="891">
      <contour>
        <pt x="114" y="891" on="1"/>
        <pt x="171" y="743" on="1"/>
        <pt x="90" y="743" on="1"/>
        <pt x="29" y="891" on="1"/>
      </contour>
      <contour>
        <pt x="180" y="660" on="1"/>
        <pt x="180" y="0" on="1"/>
        <pt x="96" y="0" on="1"/>
        <pt x="96" y="660" on="1"/>
      </contour>
    </TTGlyph>
    <TTGlyph name="Imacron" xMin="30" yMin="0" xMax="246" yMax="823">
      <contour>
        <pt x="246" y="823" on="1"/>
        <pt x="246" y="756" on="1"/>
        <pt x="30" y="756" on="1"/>
        <pt x="30" y="823" on="1"/>
      </contour>
      <contour>
        <pt x="180" y="660" on="1"/>
        <pt x="180" y="0" on="1"/>
        <pt x="96" y="0" on="1"/>
        <pt x="96" y="660" on="1"/>
      </contour>
    </TTGlyph>
    <TTGlyph name="Iogonek" xMin="7" yMin="-215" xMax="208" yMax="660">
      <contour>
        <pt x="189" y="-142" on="1"/>
        <pt x="208" y="-193" on="1"/>
        <pt x="176" y="-215" on="0"/>
        <pt x="70" y="-215" on="0"/>
        <pt x="7" y="-162" on="0"/>
        <pt x="7" y="-117" on="1"/>
        <pt x="7" y="-38" on="0"/>
        <pt x="96" y="6" on="1"/>
        <pt x="96" y="660" on="1"/>
        <pt x="180" y="660" on="1"/>
        <pt x="180" y="0" on="1"/>
        <pt x="178" y="0" on="1"/>
        <pt x="71" y="-49" on="0"/>
        <pt x="71" y="-157" on="0"/>
        <pt x="130" y="-157" on="1"/>
        <pt x="167" y="-157" on="0"/>
      </contour>
    </TTGlyph>
    <TTGlyph name="J" xMin="34" yMin="-10" xMax="455" yMax="660">
      <contour>
        <pt x="455" y="660" on="1"/>
        <pt x="455" y="226" on="1"/>
        <pt x="455" y="117" on="0"/>
        <pt x="332" y="-10" on="0"/>
        <pt x="236" y="-10" on="1"/>
        <pt x="150" y="-10" on="0"/>
        <pt x="43" y="101" on="0"/>
        <pt x="35" y="202" on="1"/>
        <pt x="34" y="212" on="0"/>
        <pt x="34" y="234" on="1"/>
        <pt x="111" y="233" on="1"/>
        <pt x="111" y="220" on="0"/>
        <pt x="113" y="196" on="1"/>
        <pt x="121" y="134" on="0"/>
        <pt x="183" y="65" on="0"/>
        <pt x="233" y="65" on="1"/>
        <pt x="351" y="65" on="0"/>
        <pt x="371" y="189" on="1"/>
        <pt x="375" y="212" on="0"/>
        <pt x="375" y="246" on="1"/>
        <pt x="375" y="660" on="1"/>
      </contour>
    </TTGlyph>
    <TTGlyph name="K" xMin="98" yMin="0" xMax="618" yMax="660">
      <contour>
        <pt x="522" y="0" on="1"/>
        <pt x="296" y="332" on="1"/>
        <pt x="178" y="212" on="1"/>
        <pt x="178" y="0" on="1"/>
        <pt x="98" y="0" on="1"/>
        <pt x="98" y="660" on="1"/>
        <pt x="178" y="660" on="1"/>
        <pt x="178" y="320" on="1"/>
        <pt x="510" y="660" on="1"/>
        <pt x="615" y="660" on="1"/>
        <pt x="352" y="391" on="1"/>
        <pt x="618" y="0" on="1"/>
      </contour>
    </TTGlyph>
    <TTGlyph name="Kcommaaccent.sc" xMin="84" yMin="-237" xMax="556" yMax="560">
      <contour>
        <pt x="326" y="330" on="1"/>
        <pt x="556" y="0" on="1"/>
        <pt x="458" y="0" on="1"/>
        <pt x="266" y="279" on="1"/>
        <pt x="164" y="180" on="1"/>
        <pt x="164" y="0" on="1"/>
        <pt x="84" y="0" on="1"/>
        <pt x="84" y="560" on="1"/>
        <pt x="164" y="560" on="1"/>
        <pt x="164" y="274" on="1"/>
        <pt x="453" y="560" on="1"/>
        <pt x="551" y="560" on="1"/>
      </contour>
      <contour>
        <pt x="223" y="-237" on="1"/>
        <pt x="280" y="-76" on="1"/>
        <pt x="351" y="-76" on="1"/>
        <pt x="293" y="-237" on="1"/>
      </contour>
    </TTGlyph>
    <TTGlyph name="L" xMin="90" yMin="0" xMax="548" yMax="660">
      <contour>
        <pt x="170" y="75" on="1"/>
        <pt x="548" y="75" on="1"/>
        <pt x="548" y="0" on="1"/>
        <pt x="132" y="0" on="1"/>
        <pt x="90" y="0" on="1"/>
        <pt x="90" y="660" on="1"/>
        <pt x="170" y="660" on="1"/>
      </contour>
    </TTGlyph>
    <TTGlyph name="L.swsh" xMin="98" yMin="0" xMax="617" yMax="660">
      <contour>
        <pt x="458" y="348" on="1"/>
        <pt x="526" y="346" on="0"/>
        <pt x="617" y="257" on="0"/>
        <pt x="617" y="179" on="1"/>
        <pt x="617" y="90" on="0"/>
        <pt x="506" y="0" on="0"/>
        <pt x="408" y="0" on="1"/>
        <pt x="264" y="0" on="1"/>
        <pt x="140" y="0" on="1"/>
        <pt x="98" y="0" on="1"/>
        <pt x="98" y="660" on="1"/>
        <pt x="178" y="660" on="1"/>
        <pt x="178" y="75" on="1"/>
        <pt x="336" y="75" on="1"/>
        <pt x="391" y="75" on="1"/>
        <pt x="462" y="75" on="0"/>
        <pt x="537" y="122" on="0"/>
        <pt x="537" y="180" on="1"/>
        <pt x="537" y="231" on="0"/>
        <pt x="477" y="283" on="0"/>
        <pt x="427" y="284" on="1"/>
      </contour>
    </TTGlyph>
    <TTGlyph name="Lacute" xMin="88" yMin="0" xMax="548" yMax="891">
      <contour>
        <pt x="230" y="891" on="1"/>
        <pt x="169" y="743" on="1"/>
        <pt x="88" y="743" on="1"/>
        <pt x="145" y="891" on="1"/>
      </contour>
      <contour>
        <pt x="170" y="75" on="1"/>
        <pt x="548" y="75" on="1"/>
        <pt x="548" y="0" on="1"/>
        <pt x="132" y="0" on="1"/>
        <pt x="90" y="0" on="1"/>
        <pt x="90" y="660" on="1"/>
        <pt x="170" y="660" on="1"/>
      </contour>
    </TTGlyph>
    <TTGlyph name="Lacute.swsh" xMin="96" yMin="0" xMax="617" yMax="891">
      <contour>
        <pt x="238" y="891" on="1"/>
        <pt x="177" y="743" on="1"/>
        <pt x="96" y="743" on="1"/>
        <pt x="153" y="891" on="1"/>
      </contour>
      <contour>
        <pt x="458" y="348" on="1"/>
        <pt x="526" y="346" on="0"/>
        <pt x="617" y="257" on="0"/>
        <pt x="617" y="179" on="1"/>
        <pt x="617" y="90" on="0"/>
        <pt x="506" y="0" on="0"/>
        <pt x="408" y="0" on="1"/>
        <pt x="264" y="0" on="1"/>
        <pt x="140" y="0" on="1"/>
        <pt x="98" y="0" on="1"/>
        <pt x="98" y="660" on="1"/>
        <pt x="178" y="660" on="1"/>
        <pt x="178" y="75" on="1"/>
        <pt x="336" y="75" on="1"/>
        <pt x="391" y="75" on="1"/>
        <pt x="462" y="75" on="0"/>
        <pt x="537" y="122" on="0"/>
        <pt x="537" y="180" on="1"/>
        <pt x="537" y="231" on="0"/>
        <pt x="477" y="283" on="0"/>
        <pt x="427" y="284" on="1"/>
      </contour>
    </TTGlyph>
    <TTGlyph name="Lcaron" xMin="90" yMin="0" xMax="548" yMax="700">
      <contour>
        <pt x="363" y="700" on="1"/>
        <pt x="322" y="503" on="1"/>
        <pt x="247" y="503" on="1"/>
        <pt x="287" y="700" on="1"/>
      </contour>
      <contour>
        <pt x="170" y="75" on="1"/>
        <pt x="548" y="75" on="1"/>
        <pt x="548" y="0" on="1"/>
        <pt x="132" y="0" on="1"/>
        <pt x="90" y="0" on="1"/>
        <pt x="90" y="660" on="1"/>
        <pt x="170" y="660" on="1"/>
      </contour>
    </TTGlyph>
    <TTGlyph name="Lcaron.swsh" xMin="-21" yMin="0" xMax="617" yMax="905">
      <contour>
        <pt x="297" y="905" on="1"/>
        <pt x="183" y="738" on="1"/>
        <pt x="93" y="738" on="1"/>
        <pt x="-21" y="905" on="1"/>
        <pt x="52" y="905" on="1"/>
        <pt x="138" y="790" on="1"/>
        <pt x="224" y="905" on="1"/>
      </contour>
      <contour>
        <pt x="458" y="348" on="1"/>
        <pt x="526" y="346" on="0"/>
        <pt x="617" y="257" on="0"/>
        <pt x="617" y="179" on="1"/>
        <pt x="617" y="90" on="0"/>
        <pt x="506" y="0" on="0"/>
        <pt x="408" y="0" on="1"/>
        <pt x="264" y="0" on="1"/>
        <pt x="140" y="0" on="1"/>
        <pt x="98" y="0" on="1"/>
        <pt x="98" y="660" on="1"/>
        <pt x="178" y="660" on="1"/>
        <pt x="178" y="75" on="1"/>
        <pt x="336" y="75" on="1"/>
        <pt x="391" y="75" on="1"/>
        <pt x="462" y="75" on="0"/>
        <pt x="537" y="122" on="0"/>
        <pt x="537" y="180" on="1"/>
        <pt x="537" y="231" on="0"/>
        <pt x="477" y="283" on="0"/>
        <pt x="427" y="284" on="1"/>
      </contour>
    </TTGlyph>
    <TTGlyph name="Lcommaaccent.sc" xMin="84" yMin="-237" xMax="498" yMax="560">
      <contour>
        <pt x="164" y="69" on="1"/>
        <pt x="498" y="69" on="1"/>
        <pt x="498" y="0" on="1"/>
        <pt x="125" y="0" on="1"/>
        <pt x="84" y="0" on="1"/>
        <pt x="84" y="560" on="1"/>
        <pt x="164" y="560" on="1"/>
      </contour>
      <contour>
        <pt x="220" y="-237" on="1"/>
        <pt x="277" y="-76" on="1"/>
        <pt x="348" y="-76" on="1"/>
        <pt x="290" y="-237" on="1"/>
      </contour>
    </TTGlyph>
    <TTGlyph name="Lcommaaccent.swsh" xMin="98" yMin="-237" xMax="617" yMax="660">
      <contour>
        <pt x="458" y="348" on="1"/>
        <pt x="526" y="346" on="0"/>
        <pt x="617" y="257" on="0"/>
        <pt x="617" y="179" on="1"/>
        <pt x="617" y="90" on="0"/>
        <pt x="506" y="0" on="0"/>
        <pt x="408" y="0" on="1"/>
        <pt x="264" y="0" on="1"/>
        <pt x="140" y="0" on="1"/>
        <pt x="98" y="0" on="1"/>
        <pt x="98" y="660" on="1"/>
        <pt x="178" y="660" on="1"/>
        <pt x="178" y="75" on="1"/>
        <pt x="336" y="75" on="1"/>
        <pt x="391" y="75" on="1"/>
        <pt x="462" y="75" on="0"/>
        <pt x="537" y="122" on="0"/>
        <pt x="537" y="180" on="1"/>
        <pt x="537" y="231" on="0"/>
        <pt x="477" y="283" on="0"/>
        <pt x="427" y="284" on="1"/>
      </contour>
      <contour>
        <pt x="269" y="-237" on="1"/>
        <pt x="326" y="-76" on="1"/>
        <pt x="397" y="-76" on="1"/>
        <pt x="339" y="-237" on="1"/>
      </contour>
    </TTGlyph>
    <TTGlyph name="Ldot" xMin="90" yMin="0" xMax="577" yMax="660">
      <contour>
        <pt x="170" y="660" on="1"/>
        <pt x="170" y="75" on="1"/>
        <pt x="548" y="75" on="1"/>
        <pt x="548" y="0" on="1"/>
        <pt x="132" y="0" on="1"/>
        <pt x="90" y="0" on="1"/>
        <pt x="90" y="660" on="1"/>
      </contour>
      <contour>
        <pt x="484" y="408" on="0"/>
        <pt x="538" y="408" on="0"/>
        <pt x="577" y="370" on="0"/>
        <pt x="577" y="343" on="1"/>
        <pt x="577" y="315" on="0"/>
        <pt x="538" y="277" on="0"/>
        <pt x="484" y="277" on="0"/>
        <pt x="445" y="315" on="0"/>
        <pt x="445" y="343" on="1"/>
        <pt x="445" y="370" on="0"/>
      </contour>
    </TTGlyph>
    <TTGlyph name="Lslash" xMin="23" yMin="0" xMax="578" yMax="660">
      <contour>
        <pt x="200" y="75" on="1"/>
        <pt x="578" y="75" on="1"/>
        <pt x="578" y="0" on="1"/>
        <pt x="162" y="0" on="1"/>
        <pt x="120" y="0" on="1"/>
        <pt x="120" y="250" on="1"/>
        <pt x="23" y="196" on="1"/>
        <pt x="23" y="279" on="1"/>
        <pt x="120" y="333" on="1"/>
        <pt x="120" y="660" on="1"/>
        <pt x="200" y="660" on="1"/>
        <pt x="200" y="378" on="1"/>
        <pt x="385" y="481" on="1"/>
        <pt x="385" y="398" on="1"/>
        <pt x="200" y="295" on="1"/>
      </contour>
    </TTGlyph>
    <TTGlyph name="Lslash.swsh" xMin="23" yMin="0" xMax="647" yMax="660">
      <contour>
        <pt x="488" y="348" on="1"/>
        <pt x="556" y="346" on="0"/>
        <pt x="647" y="257" on="0"/>
        <pt x="647" y="179" on="1"/>
        <pt x="647" y="90" on="0"/>
        <pt x="536" y="0" on="0"/>
        <pt x="438" y="0" on="1"/>
        <pt x="294" y="0" on="1"/>
        <pt x="170" y="0" on="1"/>
        <pt x="128" y="0" on="1"/>
        <pt x="128" y="255" on="1"/>
        <pt x="23" y="196" on="1"/>
        <pt x="23" y="279" on="1"/>
        <pt x="128" y="338" on="1"/>
        <pt x="128" y="660" on="1"/>
        <pt x="208" y="660" on="1"/>
        <pt x="208" y="382" on="1"/>
        <pt x="385" y="481" on="1"/>
        <pt x="385" y="398" on="1"/>
        <pt x="208" y="299" on="1"/>
        <pt x="208" y="75" on="1"/>
        <pt x="366" y="75" on="1"/>
        <pt x="421" y="75" on="1"/>
        <pt x="492" y="75" on="0"/>
        <pt x="567" y="122" on="0"/>
        <pt x="567" y="180" on="1"/>
        <pt x="567" y="231" on="0"/>
        <pt x="507" y="283" on="0"/>
        <pt x="457" y="284" on="1"/>
      </contour>
    </TTGlyph>
    <TTGlyph name="M" xMin="85" yMin="0" xMax="723" yMax="660">
      <contour>
        <pt x="723" y="660" on="1"/>
        <pt x="723" y="0" on="1"/>
        <pt x="647" y="0" on="1"/>
        <pt x="647" y="415" on="1"/>
        <pt x="656" y="589" on="1"/>
        <pt x="655" y="589" on="1"/>
        <pt x="438" y="0" on="1"/>
        <pt x="370" y="0" on="1"/>
        <pt x="153" y="589" on="1"/>
        <pt x="152" y="589" on="1"/>
        <pt x="161" y="415" on="1"/>
        <pt x="161" y="0" on="1"/>
        <pt x="85" y="0" on="1"/>
        <pt x="85" y="660" on="1"/>
        <pt x="208" y="660" on="1"/>
        <pt x="353" y="259" on="1"/>
        <pt x="403" y="94" on="1"/>
        <pt x="405" y="94" on="1"/>
        <pt x="456" y="258" on="1"/>
        <pt x="600" y="660" on="1"/>
      </contour>
    </TTGlyph>
    <TTGlyph name="M.swsh" xMin="0" yMin="-110" xMax="955" yMax="660">
      <contour>
        <pt x="832" y="660" on="1"/>
        <pt x="955" y="660" on="1"/>
        <pt x="955" y="0" on="1"/>
        <pt x="879" y="0" on="1"/>
        <pt x="879" y="415" on="1"/>
        <pt x="888" y="589" on="1"/>
        <pt x="887" y="589" on="1"/>
        <pt x="670" y="0" on="1"/>
        <pt x="602" y="0" on="1"/>
        <pt x="385" y="589" on="1"/>
        <pt x="384" y="589" on="1"/>
        <pt x="393" y="415" on="1"/>
        <pt x="393" y="200" on="1"/>
        <pt x="393" y="66" on="1"/>
        <pt x="393" y="-7" on="0"/>
        <pt x="291" y="-110" on="0"/>
        <pt x="201" y="-110" on="1"/>
        <pt x="48" y="-110" on="0"/>
        <pt x="28" y="21" on="1"/>
        <pt x="87" y="64" on="1"/>
        <pt x="96" y="8" on="0"/>
        <pt x="148" y="-41" on="0"/>
        <pt x="201" y="-41" on="1"/>
        <pt x="255" y="-41" on="0"/>
        <pt x="317" y="31" on="0"/>
        <pt x="317" y="90" on="1"/>
        <pt x="317" y="202" on="1"/>
        <pt x="317" y="595" on="1"/>
        <pt x="226" y="595" on="1"/>
        <pt x="158" y="595" on="0"/>
        <pt x="80" y="537" on="0"/>
        <pt x="80" y="480" on="1"/>
        <pt x="80" y="435" on="0"/>
        <pt x="141" y="374" on="0"/>
        <pt x="190" y="366" on="1"/>
        <pt x="159" y="302" on="1"/>
        <pt x="92" y="312" on="0"/>
        <pt x="0" y="410" on="0"/>
        <pt x="0" y="481" on="1"/>
        <pt x="0" y="564" on="0"/>
        <pt x="113" y="660" on="0"/>
        <pt x="209" y="660" on="1"/>
        <pt x="423" y="660" on="1"/>
        <pt x="440" y="660" on="1"/>
        <pt x="585" y="259" on="1"/>
        <pt x="635" y="94" on="1"/>
        <pt x="637" y="94" on="1"/>
        <pt x="688" y="258" on="1"/>
      </contour>
    </TTGlyph>
    <TTGlyph name="M.swsh.001" xMin="0" yMin="0" xMax="942" yMax="660">
      <contour>
        <pt x="819" y="660" on="1"/>
        <pt x="942" y="660" on="1"/>
        <pt x="942" y="0" on="1"/>
        <pt x="866" y="0" on="1"/>
        <pt x="866" y="415" on="1"/>
        <pt x="875" y="589" on="1"/>
        <pt x="874" y="589" on="1"/>
        <pt x="657" y="0" on="1"/>
        <pt x="589" y="0" on="1"/>
        <pt x="372" y="589" on="1"/>
        <pt x="371" y="589" on="1"/>
        <pt x="380" y="415" on="1"/>
        <pt x="380" y="0" on="1"/>
        <pt x="304" y="0" on="1"/>
        <pt x="304" y="595" on="1"/>
        <pt x="226" y="595" on="1"/>
        <pt x="158" y="595" on="0"/>
        <pt x="80" y="537" on="0"/>
        <pt x="80" y="480" on="1"/>
        <pt x="80" y="435" on="0"/>
        <pt x="141" y="374" on="0"/>
        <pt x="190" y="366" on="1"/>
        <pt x="159" y="302" on="1"/>
        <pt x="92" y="312" on="0"/>
        <pt x="0" y="410" on="0"/>
        <pt x="0" y="481" on="1"/>
        <pt x="0" y="564" on="0"/>
        <pt x="113" y="660" on="0"/>
        <pt x="209" y="660" on="1"/>
        <pt x="423" y="660" on="1"/>
        <pt x="427" y="660" on="1"/>
        <pt x="572" y="259" on="1"/>
        <pt x="622" y="94" on="1"/>
        <pt x="624" y="94" on="1"/>
        <pt x="675" y="258" on="1"/>
      </contour>
    </TTGlyph>
    <TTGlyph name="N" xMin="98" yMin="0" xMax="616" yMax="660">
      <contour>
        <pt x="616" y="660" on="1"/>
        <pt x="616" y="0" on="1"/>
        <pt x="517" y="0" on="1"/>
        <pt x="241" y="442" on="1"/>
        <pt x="171" y="572" on="1"/>
        <pt x="170" y="572" on="1"/>
        <pt x="174" y="466" on="1"/>
        <pt x="174" y="0" on="1"/>
        <pt x="98" y="0" on="1"/>
        <pt x="98" y="660" on="1"/>
        <pt x="197" y="660" on="1"/>
        <pt x="472" y="220" on="1"/>
        <pt x="543" y="88" on="1"/>
        <pt x="544" y="88" on="1"/>
        <pt x="540" y="194" on="1"/>
        <pt x="540" y="660" on="1"/>
      </contour>
    </TTGlyph>
    <TTGlyph name="N.swsh" xMin="98" yMin="0" xMax="905" yMax="735">
      <contour>
        <pt x="732" y="735" on="1"/>
        <pt x="885" y="735" on="0"/>
        <pt x="905" y="604" on="1"/>
        <pt x="846" y="561" on="1"/>
        <pt x="837" y="617" on="0"/>
        <pt x="785" y="666" on="0"/>
        <pt x="732" y="666" on="1"/>
        <pt x="678" y="666" on="0"/>
        <pt x="616" y="594" on="0"/>
        <pt x="616" y="535" on="1"/>
        <pt x="616" y="423" on="1"/>
        <pt x="616" y="0" on="1"/>
        <pt x="517" y="0" on="1"/>
        <pt x="241" y="442" on="1"/>
        <pt x="171" y="572" on="1"/>
        <pt x="170" y="572" on="1"/>
        <pt x="174" y="466" on="1"/>
        <pt x="174" y="0" on="1"/>
        <pt x="98" y="0" on="1"/>
        <pt x="98" y="660" on="1"/>
        <pt x="197" y="660" on="1"/>
        <pt x="472" y="220" on="1"/>
        <pt x="543" y="88" on="1"/>
        <pt x="544" y="88" on="1"/>
        <pt x="540" y="194" on="1"/>
        <pt x="540" y="492" on="1"/>
        <pt x="540" y="559" on="1"/>
        <pt x="540" y="632" on="0"/>
        <pt x="642" y="735" on="0"/>
      </contour>
    </TTGlyph>
    <TTGlyph name="Nacute" xMin="98" yMin="0" xMax="616" yMax="891">
      <contour>
        <pt x="376" y="891" on="1"/>
        <pt x="461" y="891" on="1"/>
        <pt x="400" y="743" on="1"/>
        <pt x="319" y="743" on="1"/>
      </contour>
      <contour>
        <pt x="616" y="660" on="1"/>
        <pt x="616" y="0" on="1"/>
        <pt x="517" y="0" on="1"/>
        <pt x="241" y="442" on="1"/>
        <pt x="171" y="572" on="1"/>
        <pt x="170" y="572" on="1"/>
        <pt x="174" y="466" on="1"/>
        <pt x="174" y="0" on="1"/>
        <pt x="98" y="0" on="1"/>
        <pt x="98" y="660" on="1"/>
        <pt x="197" y="660" on="1"/>
        <pt x="472" y="220" on="1"/>
        <pt x="543" y="88" on="1"/>
        <pt x="544" y="88" on="1"/>
        <pt x="540" y="194" on="1"/>
        <pt x="540" y="660" on="1"/>
      </contour>
    </TTGlyph>
    <TTGlyph name="Nacute.swsh" xMin="98" yMin="0" xMax="905" yMax="891">
      <contour>
        <pt x="461" y="891" on="1"/>
        <pt x="400" y="743" on="1"/>
        <pt x="319" y="743" on="1"/>
        <pt x="376" y="891" on="1"/>
      </contour>
      <contour>
        <pt x="732" y="735" on="1"/>
        <pt x="885" y="735" on="0"/>
        <pt x="905" y="604" on="1"/>
        <pt x="846" y="561" on="1"/>
        <pt x="837" y="617" on="0"/>
        <pt x="785" y="666" on="0"/>
        <pt x="732" y="666" on="1"/>
        <pt x="678" y="666" on="0"/>
        <pt x="616" y="594" on="0"/>
        <pt x="616" y="535" on="1"/>
        <pt x="616" y="423" on="1"/>
        <pt x="616" y="0" on="1"/>
        <pt x="517" y="0" on="1"/>
        <pt x="241" y="442" on="1"/>
        <pt x="171" y="572" on="1"/>
        <pt x="170" y="572" on="1"/>
        <pt x="174" y="466" on="1"/>
        <pt x="174" y="0" on="1"/>
        <pt x="98" y="0" on="1"/>
        <pt x="98" y="660" on="1"/>
        <pt x="197" y="660" on="1"/>
        <pt x="472" y="220" on="1"/>
        <pt x="543" y="88" on="1"/>
        <pt x="544" y="88" on="1"/>
        <pt x="540" y="194" on="1"/>
        <pt x="540" y="492" on="1"/>
        <pt x="540" y="559" on="1"/>
        <pt x="540" y="632" on="0"/>
        <pt x="642" y="735" on="0"/>
      </contour>
    </TTGlyph>
    <TTGlyph name="Ncaron" xMin="98" yMin="0" xMax="616" yMax="905">
      <contour>
        <pt x="520" y="905" on="1"/>
        <pt x="406" y="738" on="1"/>
        <pt x="316" y="738" on="1"/>
        <pt x="202" y="905" on="1"/>
        <pt x="275" y="905" on="1"/>
        <pt x="361" y="790" on="1"/>
        <pt x="447" y="905" on="1"/>
      </contour>
      <contour>
        <pt x="616" y="660" on="1"/>
        <pt x="616" y="0" on="1"/>
        <pt x="517" y="0" on="1"/>
        <pt x="241" y="442" on="1"/>
        <pt x="171" y="572" on="1"/>
        <pt x="170" y="572" on="1"/>
        <pt x="174" y="466" on="1"/>
        <pt x="174" y="0" on="1"/>
        <pt x="98" y="0" on="1"/>
        <pt x="98" y="660" on="1"/>
        <pt x="197" y="660" on="1"/>
        <pt x="472" y="220" on="1"/>
        <pt x="543" y="88" on="1"/>
        <pt x="544" y="88" on="1"/>
        <pt x="540" y="194" on="1"/>
        <pt x="540" y="660" on="1"/>
      </contour>
    </TTGlyph>
    <TTGlyph name="Ncaron.swsh" xMin="98" yMin="0" xMax="905" yMax="905">
      <contour>
        <pt x="406" y="738" on="1"/>
        <pt x="316" y="738" on="1"/>
        <pt x="202" y="905" on="1"/>
        <pt x="275" y="905" on="1"/>
        <pt x="361" y="790" on="1"/>
        <pt x="447" y="905" on="1"/>
        <pt x="520" y="905" on="1"/>
      </contour>
      <contour>
        <pt x="732" y="735" on="1"/>
        <pt x="885" y="735" on="0"/>
        <pt x="905" y="604" on="1"/>
        <pt x="846" y="561" on="1"/>
        <pt x="837" y="617" on="0"/>
        <pt x="785" y="666" on="0"/>
        <pt x="732" y="666" on="1"/>
        <pt x="678" y="666" on="0"/>
        <pt x="616" y="594" on="0"/>
        <pt x="616" y="535" on="1"/>
        <pt x="616" y="423" on="1"/>
        <pt x="616" y="0" on="1"/>
        <pt x="517" y="0" on="1"/>
        <pt x="241" y="442" on="1"/>
        <pt x="171" y="572" on="1"/>
        <pt x="170" y="572" on="1"/>
        <pt x="174" y="466" on="1"/>
        <pt x="174" y="0" on="1"/>
        <pt x="98" y="0" on="1"/>
        <pt x="98" y="660" on="1"/>
        <pt x="197" y="660" on="1"/>
        <pt x="472" y="220" on="1"/>
        <pt x="543" y="88" on="1"/>
        <pt x="544" y="88" on="1"/>
        <pt x="540" y="194" on="1"/>
        <pt x="540" y="492" on="1"/>
        <pt x="540" y="559" on="1"/>
        <pt x="540" y="632" on="0"/>
        <pt x="642" y="735" on="0"/>
      </contour>
    </TTGlyph>
    <TTGlyph name="Ncommaaccent.sc" xMin="84" yMin="-237" xMax="557" yMax="560">
      <contour>
        <pt x="557" y="560" on="1"/>
        <pt x="557" y="0" on="1"/>
        <pt x="450" y="0" on="1"/>
        <pt x="206" y="392" on="1"/>
        <pt x="158" y="477" on="1"/>
        <pt x="157" y="477" on="1"/>
        <pt x="161" y="407" on="1"/>
        <pt x="161" y="0" on="1"/>
        <pt x="84" y="0" on="1"/>
        <pt x="84" y="560" on="1"/>
        <pt x="191" y="560" on="1"/>
        <pt x="435" y="167" on="1"/>
        <pt x="483" y="83" on="1"/>
        <pt x="484" y="83" on="1"/>
        <pt x="480" y="153" on="1"/>
        <pt x="480" y="560" on="1"/>
      </contour>
      <contour>
        <pt x="372" y="-76" on="1"/>
        <pt x="314" y="-237" on="1"/>
        <pt x="244" y="-237" on="1"/>
        <pt x="301" y="-76" on="1"/>
      </contour>
    </TTGlyph>
    <TTGlyph name="Ncommaaccent.swsh" xMin="98" yMin="-237" xMax="905" yMax="735">
      <contour>
        <pt x="732" y="735" on="1"/>
        <pt x="885" y="735" on="0"/>
        <pt x="905" y="604" on="1"/>
        <pt x="846" y="561" on="1"/>
        <pt x="837" y="617" on="0"/>
        <pt x="785" y="666" on="0"/>
        <pt x="732" y="666" on="1"/>
        <pt x="678" y="666" on="0"/>
        <pt x="616" y="594" on="0"/>
        <pt x="616" y="535" on="1"/>
        <pt x="616" y="423" on="1"/>
        <pt x="616" y="0" on="1"/>
        <pt x="517" y="0" on="1"/>
        <pt x="241" y="442" on="1"/>
        <pt x="171" y="572" on="1"/>
        <pt x="170" y="572" on="1"/>
        <pt x="174" y="466" on="1"/>
        <pt x="174" y="0" on="1"/>
        <pt x="98" y="0" on="1"/>
        <pt x="98" y="660" on="1"/>
        <pt x="197" y="660" on="1"/>
        <pt x="472" y="220" on="1"/>
        <pt x="543" y="88" on="1"/>
        <pt x="544" y="88" on="1"/>
        <pt x="540" y="194" on="1"/>
        <pt x="540" y="492" on="1"/>
        <pt x="540" y="559" on="1"/>
        <pt x="540" y="632" on="0"/>
        <pt x="642" y="735" on="0"/>
      </contour>
      <contour>
        <pt x="289" y="-237" on="1"/>
        <pt x="346" y="-76" on="1"/>
        <pt x="417" y="-76" on="1"/>
        <pt x="359" y="-237" on="1"/>
      </contour>
    </TTGlyph>
    <TTGlyph name="Ntilde" xMin="98" yMin="0" xMax="616" yMax="877">
      <contour>
        <pt x="541" y="877" on="1"/>
        <pt x="530" y="743" on="0"/>
        <pt x="429" y="743" on="1"/>
        <pt x="397" y="743" on="0"/>
        <pt x="346" y="777" on="0"/>
        <pt x="308" y="811" on="0"/>
        <pt x="291" y="811" on="1"/>
        <pt x="253" y="811" on="0"/>
        <pt x="242" y="742" on="1"/>
        <pt x="179" y="742" on="1"/>
        <pt x="190" y="876" on="0"/>
        <pt x="292" y="876" on="1"/>
        <pt x="323" y="876" on="0"/>
        <pt x="374" y="842" on="0"/>
        <pt x="412" y="808" on="0"/>
        <pt x="428" y="808" on="1"/>
        <pt x="467" y="808" on="0"/>
        <pt x="478" y="877" on="1"/>
      </contour>
      <contour>
        <pt x="616" y="660" on="1"/>
        <pt x="616" y="0" on="1"/>
        <pt x="517" y="0" on="1"/>
        <pt x="241" y="442" on="1"/>
        <pt x="171" y="572" on="1"/>
        <pt x="170" y="572" on="1"/>
        <pt x="174" y="466" on="1"/>
        <pt x="174" y="0" on="1"/>
        <pt x="98" y="0" on="1"/>
        <pt x="98" y="660" on="1"/>
        <pt x="197" y="660" on="1"/>
        <pt x="472" y="220" on="1"/>
        <pt x="543" y="88" on="1"/>
        <pt x="544" y="88" on="1"/>
        <pt x="540" y="194" on="1"/>
        <pt x="540" y="660" on="1"/>
      </contour>
    </TTGlyph>
    <TTGlyph name="Ntilde.swsh" xMin="98" yMin="0" xMax="905" yMax="877">
      <contour>
        <pt x="291" y="811" on="1"/>
        <pt x="253" y="811" on="0"/>
        <pt x="242" y="742" on="1"/>
        <pt x="179" y="742" on="1"/>
        <pt x="190" y="876" on="0"/>
        <pt x="292" y="876" on="1"/>
        <pt x="323" y="876" on="0"/>
        <pt x="374" y="842" on="0"/>
        <pt x="412" y="808" on="0"/>
        <pt x="428" y="808" on="1"/>
        <pt x="467" y="808" on="0"/>
        <pt x="478" y="877" on="1"/>
        <pt x="541" y="877" on="1"/>
        <pt x="530" y="743" on="0"/>
        <pt x="429" y="743" on="1"/>
        <pt x="397" y="743" on="0"/>
        <pt x="346" y="777" on="0"/>
        <pt x="308" y="811" on="0"/>
      </contour>
      <contour>
        <pt x="732" y="735" on="1"/>
        <pt x="885" y="735" on="0"/>
        <pt x="905" y="604" on="1"/>
        <pt x="846" y="561" on="1"/>
        <pt x="837" y="617" on="0"/>
        <pt x="785" y="666" on="0"/>
        <pt x="732" y="666" on="1"/>
        <pt x="678" y="666" on="0"/>
        <pt x="616" y="594" on="0"/>
        <pt x="616" y="535" on="1"/>
        <pt x="616" y="423" on="1"/>
        <pt x="616" y="0" on="1"/>
        <pt x="517" y="0" on="1"/>
        <pt x="241" y="442" on="1"/>
        <pt x="171" y="572" on="1"/>
        <pt x="170" y="572" on="1"/>
        <pt x="174" y="466" on="1"/>
        <pt x="174" y="0" on="1"/>
        <pt x="98" y="0" on="1"/>
        <pt x="98" y="660" on="1"/>
        <pt x="197" y="660" on="1"/>
        <pt x="472" y="220" on="1"/>
        <pt x="543" y="88" on="1"/>
        <pt x="544" y="88" on="1"/>
        <pt x="540" y="194" on="1"/>
        <pt x="540" y="492" on="1"/>
        <pt x="540" y="559" on="1"/>
        <pt x="540" y="632" on="0"/>
        <pt x="642" y="735" on="0"/>
      </contour>
    </TTGlyph>
    <TTGlyph name="O" xMin="35" yMin="-9" xMax="711" yMax="669">
      <contour>
        <pt x="35" y="331" on="1"/>
        <pt x="35" y="470" on="0"/>
        <pt x="234" y="669" on="0"/>
        <pt x="512" y="669" on="0"/>
        <pt x="711" y="470" on="0"/>
        <pt x="711" y="331" on="1"/>
        <pt x="711" y="190" on="0"/>
        <pt x="513" y="-9" on="0"/>
        <pt x="233" y="-9" on="0"/>
        <pt x="35" y="190" on="0"/>
      </contour>
      <contour>
        <pt x="112" y="330" on="1"/>
        <pt x="112" y="223" on="0"/>
        <pt x="266" y="69" on="0"/>
        <pt x="480" y="69" on="0"/>
        <pt x="633" y="223" on="0"/>
        <pt x="633" y="330" on="1"/>
        <pt x="633" y="438" on="0"/>
        <pt x="480" y="592" on="0"/>
        <pt x="266" y="592" on="0"/>
        <pt x="112" y="438" on="0"/>
      </contour>
    </TTGlyph>
    <TTGlyph name="OE" xMin="58" yMin="-10" xMax="1018" yMax="670">
      <contour>
        <pt x="649" y="75" on="1"/>
        <pt x="1018" y="75" on="1"/>
        <pt x="1018" y="0" on="1"/>
        <pt x="618" y="0" on="1"/>
        <pt x="576" y="0" on="1"/>
        <pt x="576" y="99" on="1"/>
        <pt x="500" y="-10" on="0"/>
        <pt x="362" y="-10" on="1"/>
        <pt x="221" y="-10" on="0"/>
        <pt x="58" y="173" on="0"/>
        <pt x="58" y="330" on="1"/>
        <pt x="58" y="488" on="0"/>
        <pt x="221" y="670" on="0"/>
        <pt x="366" y="670" on="1"/>
        <pt x="502" y="670" on="0"/>
        <pt x="576" y="563" on="1"/>
        <pt x="576" y="660" on="1"/>
        <pt x="649" y="660" on="1"/>
        <pt x="1003" y="660" on="1"/>
        <pt x="1003" y="585" on="1"/>
        <pt x="649" y="585" on="1"/>
        <pt x="649" y="372" on="1"/>
        <pt x="918" y="372" on="1"/>
        <pt x="918" y="297" on="1"/>
        <pt x="649" y="297" on="1"/>
      </contour>
      <contour>
        <pt x="366" y="65" on="1"/>
        <pt x="461" y="65" on="0"/>
        <pt x="576" y="207" on="0"/>
        <pt x="576" y="453" on="0"/>
        <pt x="461" y="595" on="0"/>
        <pt x="366" y="595" on="1"/>
        <pt x="259" y="595" on="0"/>
        <pt x="142" y="455" on="0"/>
        <pt x="142" y="205" on="0"/>
        <pt x="259" y="65" on="0"/>
      </contour>
    </TTGlyph>
    <TTGlyph name="Oacute" xMin="35" yMin="-9" xMax="711" yMax="891">
      <contour>
        <pt x="389" y="891" on="1"/>
        <pt x="474" y="891" on="1"/>
        <pt x="413" y="743" on="1"/>
        <pt x="332" y="743" on="1"/>
      </contour>
      <contour>
        <pt x="35" y="331" on="1"/>
        <pt x="35" y="470" on="0"/>
        <pt x="234" y="669" on="0"/>
        <pt x="512" y="669" on="0"/>
        <pt x="711" y="470" on="0"/>
        <pt x="711" y="331" on="1"/>
        <pt x="711" y="190" on="0"/>
        <pt x="513" y="-9" on="0"/>
        <pt x="233" y="-9" on="0"/>
        <pt x="35" y="190" on="0"/>
      </contour>
      <contour>
        <pt x="112" y="330" on="1"/>
        <pt x="112" y="223" on="0"/>
        <pt x="266" y="69" on="0"/>
        <pt x="480" y="69" on="0"/>
        <pt x="633" y="223" on="0"/>
        <pt x="633" y="330" on="1"/>
        <pt x="633" y="438" on="0"/>
        <pt x="480" y="592" on="0"/>
        <pt x="266" y="592" on="0"/>
        <pt x="112" y="438" on="0"/>
      </contour>
    </TTGlyph>
    <TTGlyph name="Ocircumflex" xMin="35" yMin="-9" xMax="711" yMax="903">
      <contour>
        <pt x="533" y="736" on="1"/>
        <pt x="460" y="736" on="1"/>
        <pt x="374" y="851" on="1"/>
        <pt x="288" y="736" on="1"/>
        <pt x="215" y="736" on="1"/>
        <pt x="329" y="903" on="1"/>
        <pt x="419" y="903" on="1"/>
      </contour>
      <contour>
        <pt x="35" y="331" on="1"/>
        <pt x="35" y="470" on="0"/>
        <pt x="234" y="669" on="0"/>
        <pt x="512" y="669" on="0"/>
        <pt x="711" y="470" on="0"/>
        <pt x="711" y="331" on="1"/>
        <pt x="711" y="190" on="0"/>
        <pt x="513" y="-9" on="0"/>
        <pt x="233" y="-9" on="0"/>
        <pt x="35" y="190" on="0"/>
      </contour>
      <contour>
        <pt x="112" y="330" on="1"/>
        <pt x="112" y="223" on="0"/>
        <pt x="266" y="69" on="0"/>
        <pt x="480" y="69" on="0"/>
        <pt x="633" y="223" on="0"/>
        <pt x="633" y="330" on="1"/>
        <pt x="633" y="438" on="0"/>
        <pt x="480" y="592" on="0"/>
        <pt x="266" y="592" on="0"/>
        <pt x="112" y="438" on="0"/>
      </contour>
    </TTGlyph>
    <TTGlyph name="Odieresis" xMin="35" yMin="-9" xMax="711" yMax="856">
      <contour>
        <pt x="277" y="742" on="1"/>
        <pt x="253" y="742" on="0"/>
        <pt x="220" y="776" on="0"/>
        <pt x="220" y="822" on="0"/>
        <pt x="253" y="856" on="0"/>
        <pt x="277" y="856" on="1"/>
        <pt x="300" y="856" on="0"/>
        <pt x="334" y="822" on="0"/>
        <pt x="334" y="776" on="0"/>
        <pt x="300" y="742" on="0"/>
      </contour>
      <contour>
        <pt x="471" y="742" on="1"/>
        <pt x="447" y="742" on="0"/>
        <pt x="414" y="776" on="0"/>
        <pt x="414" y="822" on="0"/>
        <pt x="447" y="856" on="0"/>
        <pt x="471" y="856" on="1"/>
        <pt x="494" y="856" on="0"/>
        <pt x="528" y="822" on="0"/>
        <pt x="528" y="776" on="0"/>
        <pt x="494" y="742" on="0"/>
      </contour>
      <contour>
        <pt x="35" y="331" on="1"/>
        <pt x="35" y="470" on="0"/>
        <pt x="234" y="669" on="0"/>
        <pt x="512" y="669" on="0"/>
        <pt x="711" y="470" on="0"/>
        <pt x="711" y="331" on="1"/>
        <pt x="711" y="190" on="0"/>
        <pt x="513" y="-9" on="0"/>
        <pt x="233" y="-9" on="0"/>
        <pt x="35" y="190" on="0"/>
      </contour>
      <contour>
        <pt x="112" y="330" on="1"/>
        <pt x="112" y="223" on="0"/>
        <pt x="266" y="69" on="0"/>
        <pt x="480" y="69" on="0"/>
        <pt x="633" y="223" on="0"/>
        <pt x="633" y="330" on="1"/>
        <pt x="633" y="438" on="0"/>
        <pt x="480" y="592" on="0"/>
        <pt x="266" y="592" on="0"/>
        <pt x="112" y="438" on="0"/>
      </contour>
    </TTGlyph>
    <TTGlyph name="Odieresis.titl" xMin="58" yMin="-10" xMax="670" yMax="670">
      <contour>
        <pt x="223" y="670" on="0"/>
        <pt x="505" y="670" on="0"/>
        <pt x="670" y="487" on="0"/>
        <pt x="670" y="173" on="0"/>
        <pt x="505" y="-10" on="0"/>
        <pt x="223" y="-10" on="0"/>
        <pt x="58" y="173" on="0"/>
        <pt x="58" y="487" on="0"/>
      </contour>
      <contour>
        <pt x="467" y="595" on="0"/>
        <pt x="261" y="595" on="0"/>
        <pt x="142" y="454" on="0"/>
        <pt x="142" y="206" on="0"/>
        <pt x="261" y="65" on="0"/>
        <pt x="467" y="65" on="0"/>
        <pt x="586" y="206" on="0"/>
        <pt x="586" y="454" on="0"/>
      </contour>
      <contour>
        <pt x="297" y="560" on="1"/>
        <pt x="322" y="560" on="0"/>
        <pt x="352" y="530" on="0"/>
        <pt x="352" y="506" on="1"/>
        <pt x="352" y="481" on="0"/>
        <pt x="322" y="451" on="0"/>
        <pt x="297" y="451" on="1"/>
        <pt x="273" y="451" on="0"/>
        <pt x="243" y="481" on="0"/>
        <pt x="243" y="506" on="1"/>
        <pt x="243" y="530" on="0"/>
        <pt x="273" y="560" on="0"/>
      </contour>
      <contour>
        <pt x="431" y="560" on="1"/>
        <pt x="455" y="560" on="0"/>
        <pt x="485" y="530" on="0"/>
        <pt x="485" y="506" on="1"/>
        <pt x="485" y="481" on="0"/>
        <pt x="455" y="451" on="0"/>
        <pt x="431" y="451" on="1"/>
        <pt x="406" y="451" on="0"/>
        <pt x="376" y="481" on="0"/>
        <pt x="376" y="506" on="1"/>
        <pt x="376" y="530" on="0"/>
        <pt x="406" y="560" on="0"/>
      </contour>
    </TTGlyph>
    <TTGlyph name="Ograve" xMin="35" yMin="-9" xMax="711" yMax="891">
      <contour>
        <pt x="350" y="891" on="1"/>
        <pt x="407" y="743" on="1"/>
        <pt x="326" y="743" on="1"/>
        <pt x="265" y="891" on="1"/>
      </contour>
      <contour>
        <pt x="35" y="331" on="1"/>
        <pt x="35" y="470" on="0"/>
        <pt x="234" y="669" on="0"/>
        <pt x="512" y="669" on="0"/>
        <pt x="711" y="470" on="0"/>
        <pt x="711" y="331" on="1"/>
        <pt x="711" y="190" on="0"/>
        <pt x="513" y="-9" on="0"/>
        <pt x="233" y="-9" on="0"/>
        <pt x="35" y="190" on="0"/>
      </contour>
      <contour>
        <pt x="112" y="330" on="1"/>
        <pt x="112" y="223" on="0"/>
        <pt x="266" y="69" on="0"/>
        <pt x="480" y="69" on="0"/>
        <pt x="633" y="223" on="0"/>
        <pt x="633" y="330" on="1"/>
        <pt x="633" y="438" on="0"/>
        <pt x="480" y="592" on="0"/>
        <pt x="266" y="592" on="0"/>
        <pt x="112" y="438" on="0"/>
      </contour>
    </TTGlyph>
    <TTGlyph name="Ohungarumlaut" xMin="35" yMin="-9" xMax="711" yMax="891">
      <contour>
        <pt x="302" y="891" on="1"/>
        <pt x="387" y="891" on="1"/>
        <pt x="326" y="743" on="1"/>
        <pt x="245" y="743" on="1"/>
      </contour>
      <contour>
        <pt x="479" y="891" on="1"/>
        <pt x="564" y="891" on="1"/>
        <pt x="503" y="743" on="1"/>
        <pt x="422" y="743" on="1"/>
      </contour>
      <contour>
        <pt x="35" y="331" on="1"/>
        <pt x="35" y="470" on="0"/>
        <pt x="234" y="669" on="0"/>
        <pt x="512" y="669" on="0"/>
        <pt x="711" y="470" on="0"/>
        <pt x="711" y="331" on="1"/>
        <pt x="711" y="190" on="0"/>
        <pt x="513" y="-9" on="0"/>
        <pt x="233" y="-9" on="0"/>
        <pt x="35" y="190" on="0"/>
      </contour>
      <contour>
        <pt x="112" y="330" on="1"/>
        <pt x="112" y="223" on="0"/>
        <pt x="266" y="69" on="0"/>
        <pt x="480" y="69" on="0"/>
        <pt x="633" y="223" on="0"/>
        <pt x="633" y="330" on="1"/>
        <pt x="633" y="438" on="0"/>
        <pt x="480" y="592" on="0"/>
        <pt x="266" y="592" on="0"/>
        <pt x="112" y="438" on="0"/>
      </contour>
    </TTGlyph>
    <TTGlyph name="Oinferior" xMin="30" yMin="-196" xMax="438" yMax="212">
      <contour>
        <pt x="30" y="8" on="1"/>
        <pt x="30" y="92" on="0"/>
        <pt x="149" y="212" on="0"/>
        <pt x="234" y="212" on="1"/>
        <pt x="318" y="212" on="0"/>
        <pt x="438" y="92" on="0"/>
        <pt x="438" y="8" on="1"/>
        <pt x="438" y="-77" on="0"/>
        <pt x="318" y="-196" on="0"/>
        <pt x="234" y="-196" on="1"/>
        <pt x="149" y="-196" on="0"/>
        <pt x="30" y="-77" on="0"/>
      </contour>
      <contour>
        <pt x="85" y="70" on="0"/>
        <pt x="85" y="-54" on="0"/>
        <pt x="172" y="-141" on="0"/>
        <pt x="296" y="-141" on="0"/>
        <pt x="383" y="-54" on="0"/>
        <pt x="383" y="70" on="0"/>
        <pt x="296" y="157" on="0"/>
        <pt x="172" y="157" on="0"/>
      </contour>
    </TTGlyph>
    <TTGlyph name="Omacron" xMin="35" yMin="-9" xMax="711" yMax="823">
      <contour>
        <pt x="548" y="823" on="1"/>
        <pt x="548" y="756" on="1"/>
        <pt x="200" y="756" on="1"/>
        <pt x="200" y="823" on="1"/>
      </contour>
      <contour>
        <pt x="35" y="331" on="1"/>
        <pt x="35" y="470" on="0"/>
        <pt x="234" y="669" on="0"/>
        <pt x="512" y="669" on="0"/>
        <pt x="711" y="470" on="0"/>
        <pt x="711" y="331" on="1"/>
        <pt x="711" y="190" on="0"/>
        <pt x="513" y="-9" on="0"/>
        <pt x="233" y="-9" on="0"/>
        <pt x="35" y="190" on="0"/>
      </contour>
      <contour>
        <pt x="112" y="330" on="1"/>
        <pt x="112" y="223" on="0"/>
        <pt x="266" y="69" on="0"/>
        <pt x="480" y="69" on="0"/>
        <pt x="633" y="223" on="0"/>
        <pt x="633" y="330" on="1"/>
        <pt x="633" y="438" on="0"/>
        <pt x="480" y="592" on="0"/>
        <pt x="266" y="592" on="0"/>
        <pt x="112" y="438" on="0"/>
      </contour>
    </TTGlyph>
    <TTGlyph name="Oslash" xMin="35" yMin="-37" xMax="711" yMax="683">
      <contour>
        <pt x="608" y="574" on="1"/>
        <pt x="711" y="473" on="0"/>
        <pt x="711" y="331" on="1"/>
        <pt x="711" y="190" on="0"/>
        <pt x="513" y="-9" on="0"/>
        <pt x="373" y="-9" on="1"/>
        <pt x="295" y="-9" on="0"/>
        <pt x="225" y="25" on="1"/>
        <pt x="182" y="-37" on="1"/>
        <pt x="111" y="-37" on="1"/>
        <pt x="175" y="55" on="1"/>
        <pt x="110" y="102" on="0"/>
        <pt x="35" y="248" on="0"/>
        <pt x="35" y="331" on="1"/>
        <pt x="35" y="470" on="0"/>
        <pt x="234" y="669" on="0"/>
        <pt x="373" y="669" on="1"/>
        <pt x="475" y="669" on="0"/>
        <pt x="562" y="611" on="1"/>
        <pt x="613" y="683" on="1"/>
        <pt x="684" y="683" on="1"/>
      </contour>
      <contour>
        <pt x="112" y="330" on="1"/>
        <pt x="112" y="267" on="0"/>
        <pt x="170" y="156" on="0"/>
        <pt x="220" y="119" on="1"/>
        <pt x="518" y="547" on="1"/>
        <pt x="452" y="592" on="0"/>
        <pt x="373" y="592" on="1"/>
        <pt x="266" y="592" on="0"/>
        <pt x="112" y="438" on="0"/>
      </contour>
      <contour>
        <pt x="373" y="69" on="1"/>
        <pt x="480" y="69" on="0"/>
        <pt x="633" y="223" on="0"/>
        <pt x="633" y="330" on="1"/>
        <pt x="633" y="432" on="0"/>
        <pt x="563" y="509" on="1"/>
        <pt x="271" y="90" on="1"/>
        <pt x="321" y="69" on="0"/>
      </contour>
    </TTGlyph>
    <TTGlyph name="Osuperior" xMin="30" yMin="326" xMax="438" yMax="734">
      <contour>
        <pt x="30" y="530" on="1"/>
        <pt x="30" y="614" on="0"/>
        <pt x="149" y="734" on="0"/>
        <pt x="234" y="734" on="1"/>
        <pt x="318" y="734" on="0"/>
        <pt x="438" y="614" on="0"/>
        <pt x="438" y="530" on="1"/>
        <pt x="438" y="445" on="0"/>
        <pt x="318" y="326" on="0"/>
        <pt x="234" y="326" on="1"/>
        <pt x="149" y="326" on="0"/>
        <pt x="30" y="445" on="0"/>
      </contour>
      <contour>
        <pt x="85" y="592" on="0"/>
        <pt x="85" y="468" on="0"/>
        <pt x="172" y="381" on="0"/>
        <pt x="296" y="381" on="0"/>
        <pt x="383" y="468" on="0"/>
        <pt x="383" y="592" on="0"/>
        <pt x="296" y="679" on="0"/>
        <pt x="172" y="679" on="0"/>
      </contour>
    </TTGlyph>
    <TTGlyph name="Otilde" xMin="35" yMin="-9" xMax="711" yMax="877">
      <contour>
        <pt x="554" y="877" on="1"/>
        <pt x="543" y="743" on="0"/>
        <pt x="442" y="743" on="1"/>
        <pt x="410" y="743" on="0"/>
        <pt x="359" y="777" on="0"/>
        <pt x="321" y="811" on="0"/>
        <pt x="304" y="811" on="1"/>
        <pt x="266" y="811" on="0"/>
        <pt x="255" y="742" on="1"/>
        <pt x="192" y="742" on="1"/>
        <pt x="203" y="876" on="0"/>
        <pt x="305" y="876" on="1"/>
        <pt x="336" y="876" on="0"/>
        <pt x="387" y="842" on="0"/>
        <pt x="425" y="808" on="0"/>
        <pt x="441" y="808" on="1"/>
        <pt x="480" y="808" on="0"/>
        <pt x="491" y="877" on="1"/>
      </contour>
      <contour>
        <pt x="35" y="331" on="1"/>
        <pt x="35" y="470" on="0"/>
        <pt x="234" y="669" on="0"/>
        <pt x="512" y="669" on="0"/>
        <pt x="711" y="470" on="0"/>
        <pt x="711" y="331" on="1"/>
        <pt x="711" y="190" on="0"/>
        <pt x="513" y="-9" on="0"/>
        <pt x="233" y="-9" on="0"/>
        <pt x="35" y="190" on="0"/>
      </contour>
      <contour>
        <pt x="112" y="330" on="1"/>
        <pt x="112" y="223" on="0"/>
        <pt x="266" y="69" on="0"/>
        <pt x="480" y="69" on="0"/>
        <pt x="633" y="223" on="0"/>
        <pt x="633" y="330" on="1"/>
        <pt x="633" y="438" on="0"/>
        <pt x="480" y="592" on="0"/>
        <pt x="266" y="592" on="0"/>
        <pt x="112" y="438" on="0"/>
      </contour>
    </TTGlyph>
    <TTGlyph name="P" xMin="98" yMin="0" xMax="585" yMax="660">
      <contour>
        <pt x="348" y="660" on="1"/>
        <pt x="448" y="660" on="0"/>
        <pt x="585" y="532" on="0"/>
        <pt x="585" y="352" on="0"/>
        <pt x="447" y="219" on="0"/>
        <pt x="348" y="219" on="1"/>
        <pt x="178" y="219" on="1"/>
        <pt x="178" y="0" on="1"/>
        <pt x="98" y="0" on="1"/>
        <pt x="98" y="660" on="1"/>
        <pt x="178" y="660" on="1"/>
      </contour>
      <contour>
        <pt x="347" y="294" on="1"/>
        <pt x="415" y="294" on="0"/>
        <pt x="501" y="381" on="0"/>
        <pt x="501" y="503" on="0"/>
        <pt x="416" y="585" on="0"/>
        <pt x="347" y="585" on="1"/>
        <pt x="178" y="585" on="1"/>
        <pt x="178" y="294" on="1"/>
      </contour>
    </TTGlyph>
    <TTGlyph name="Q" xMin="35" yMin="-79" xMax="711" yMax="669">
      <contour>
        <pt x="711" y="331" on="1"/>
        <pt x="711" y="186" on="0"/>
        <pt x="607" y="85" on="1"/>
        <pt x="690" y="-31" on="1"/>
        <pt x="622" y="-79" on="1"/>
        <pt x="540" y="35" on="1"/>
        <pt x="463" y="-9" on="0"/>
        <pt x="373" y="-9" on="1"/>
        <pt x="233" y="-9" on="0"/>
        <pt x="35" y="190" on="0"/>
        <pt x="35" y="331" on="1"/>
        <pt x="35" y="470" on="0"/>
        <pt x="234" y="669" on="0"/>
        <pt x="512" y="669" on="0"/>
        <pt x="711" y="470" on="0"/>
      </contour>
      <contour>
        <pt x="112" y="330" on="1"/>
        <pt x="112" y="223" on="0"/>
        <pt x="266" y="69" on="0"/>
        <pt x="480" y="69" on="0"/>
        <pt x="633" y="223" on="0"/>
        <pt x="633" y="330" on="1"/>
        <pt x="633" y="438" on="0"/>
        <pt x="480" y="592" on="0"/>
        <pt x="266" y="592" on="0"/>
        <pt x="112" y="438" on="0"/>
      </contour>
    </TTGlyph>
    <TTGlyph name="R" xMin="98" yMin="0" xMax="611" yMax="660">
      <contour>
        <pt x="611" y="0" on="1"/>
        <pt x="516" y="0" on="1"/>
        <pt x="371" y="220" on="1"/>
        <pt x="364" y="219" on="0"/>
        <pt x="348" y="219" on="1"/>
        <pt x="178" y="219" on="1"/>
        <pt x="178" y="0" on="1"/>
        <pt x="98" y="0" on="1"/>
        <pt x="98" y="660" on="1"/>
        <pt x="178" y="660" on="1"/>
        <pt x="348" y="660" on="1"/>
        <pt x="448" y="660" on="0"/>
        <pt x="585" y="532" on="0"/>
        <pt x="585" y="442" on="1"/>
        <pt x="585" y="379" on="0"/>
        <pt x="513" y="270" on="0"/>
        <pt x="453" y="242" on="1"/>
      </contour>
      <contour>
        <pt x="347" y="294" on="1"/>
        <pt x="415" y="294" on="0"/>
        <pt x="501" y="381" on="0"/>
        <pt x="501" y="503" on="0"/>
        <pt x="416" y="585" on="0"/>
        <pt x="347" y="585" on="1"/>
        <pt x="178" y="585" on="1"/>
        <pt x="178" y="294" on="1"/>
      </contour>
    </TTGlyph>
    <TTGlyph name="R.ss03" xMin="98" yMin="0" xMax="611" yMax="660">
      <contour>
        <pt x="611" y="0" on="1"/>
        <pt x="516" y="0" on="1"/>
        <pt x="371" y="220" on="1"/>
        <pt x="364" y="219" on="0"/>
        <pt x="348" y="219" on="1"/>
        <pt x="178" y="219" on="1"/>
        <pt x="178" y="0" on="1"/>
        <pt x="98" y="0" on="1"/>
        <pt x="98" y="660" on="1"/>
        <pt x="178" y="660" on="1"/>
        <pt x="348" y="660" on="1"/>
        <pt x="448" y="660" on="0"/>
        <pt x="585" y="532" on="0"/>
        <pt x="585" y="442" on="1"/>
        <pt x="585" y="379" on="0"/>
        <pt x="513" y="270" on="0"/>
        <pt x="453" y="242" on="1"/>
      </contour>
      <contour>
        <pt x="347" y="294" on="1"/>
        <pt x="415" y="294" on="0"/>
        <pt x="501" y="381" on="0"/>
        <pt x="501" y="503" on="0"/>
        <pt x="416" y="585" on="0"/>
        <pt x="347" y="585" on="1"/>
        <pt x="178" y="585" on="1"/>
        <pt x="178" y="294" on="1"/>
      </contour>
    </TTGlyph>
    <TTGlyph name="R.swsh" xMin="0" yMin="-110" xMax="830" yMax="660">
      <contour>
        <pt x="830" y="0" on="1"/>
        <pt x="735" y="0" on="1"/>
        <pt x="591" y="219" on="1"/>
        <pt x="584" y="219" on="1"/>
        <pt x="397" y="219" on="1"/>
        <pt x="397" y="188" on="1"/>
        <pt x="397" y="66" on="1"/>
        <pt x="397" y="-7" on="0"/>
        <pt x="293" y="-110" on="0"/>
        <pt x="201" y="-110" on="1"/>
        <pt x="48" y="-110" on="0"/>
        <pt x="28" y="21" on="1"/>
        <pt x="87" y="64" on="1"/>
        <pt x="96" y="8" on="0"/>
        <pt x="148" y="-41" on="0"/>
        <pt x="201" y="-41" on="1"/>
        <pt x="255" y="-41" on="0"/>
        <pt x="317" y="31" on="0"/>
        <pt x="317" y="90" on="1"/>
        <pt x="317" y="202" on="1"/>
        <pt x="317" y="595" on="1"/>
        <pt x="226" y="595" on="1"/>
        <pt x="158" y="595" on="0"/>
        <pt x="80" y="537" on="0"/>
        <pt x="80" y="480" on="1"/>
        <pt x="80" y="435" on="0"/>
        <pt x="141" y="374" on="0"/>
        <pt x="190" y="366" on="1"/>
        <pt x="159" y="302" on="1"/>
        <pt x="92" y="312" on="0"/>
        <pt x="0" y="410" on="0"/>
        <pt x="0" y="481" on="1"/>
        <pt x="0" y="564" on="0"/>
        <pt x="113" y="660" on="0"/>
        <pt x="209" y="660" on="1"/>
        <pt x="374" y="660" on="1"/>
        <pt x="423" y="660" on="1"/>
        <pt x="584" y="660" on="1"/>
        <pt x="684" y="660" on="0"/>
        <pt x="821" y="532" on="0"/>
        <pt x="821" y="442" on="1"/>
        <pt x="821" y="375" on="0"/>
        <pt x="741" y="262" on="0"/>
        <pt x="675" y="236" on="1"/>
      </contour>
      <contour>
        <pt x="397" y="585" on="1"/>
        <pt x="397" y="294" on="1"/>
        <pt x="583" y="294" on="1"/>
        <pt x="651" y="294" on="0"/>
        <pt x="737" y="381" on="0"/>
        <pt x="737" y="503" on="0"/>
        <pt x="652" y="585" on="0"/>
        <pt x="583" y="585" on="1"/>
      </contour>
    </TTGlyph>
    <TTGlyph name="R.swsh.001" xMin="98" yMin="-86" xMax="675" yMax="660">
      <contour>
        <pt x="525" y="90" on="1"/>
        <pt x="549" y="57" on="0"/>
        <pt x="640" y="-19" on="0"/>
        <pt x="675" y="-31" on="1"/>
        <pt x="632" y="-86" on="1"/>
        <pt x="578" y="-59" on="0"/>
        <pt x="505" y="-4" on="0"/>
        <pt x="473" y="33" on="0"/>
        <pt x="449" y="68" on="1"/>
        <pt x="343" y="219" on="1"/>
        <pt x="178" y="219" on="1"/>
        <pt x="178" y="0" on="1"/>
        <pt x="98" y="0" on="1"/>
        <pt x="98" y="660" on="1"/>
        <pt x="178" y="660" on="1"/>
        <pt x="348" y="660" on="1"/>
        <pt x="448" y="660" on="0"/>
        <pt x="585" y="532" on="0"/>
        <pt x="585" y="442" on="1"/>
        <pt x="585" y="371" on="0"/>
        <pt x="495" y="253" on="0"/>
        <pt x="423" y="231" on="1"/>
      </contour>
      <contour>
        <pt x="178" y="585" on="1"/>
        <pt x="178" y="294" on="1"/>
        <pt x="347" y="294" on="1"/>
        <pt x="415" y="294" on="0"/>
        <pt x="501" y="381" on="0"/>
        <pt x="501" y="503" on="0"/>
        <pt x="416" y="585" on="0"/>
        <pt x="347" y="585" on="1"/>
      </contour>
    </TTGlyph>
    <TTGlyph name="Racute" xMin="98" yMin="0" xMax="611" yMax="891">
      <contour>
        <pt x="412" y="891" on="1"/>
        <pt x="351" y="743" on="1"/>
        <pt x="270" y="743" on="1"/>
        <pt x="327" y="891" on="1"/>
      </contour>
      <contour>
        <pt x="611" y="0" on="1"/>
        <pt x="516" y="0" on="1"/>
        <pt x="371" y="220" on="1"/>
        <pt x="364" y="219" on="0"/>
        <pt x="348" y="219" on="1"/>
        <pt x="178" y="219" on="1"/>
        <pt x="178" y="0" on="1"/>
        <pt x="98" y="0" on="1"/>
        <pt x="98" y="660" on="1"/>
        <pt x="178" y="660" on="1"/>
        <pt x="348" y="660" on="1"/>
        <pt x="448" y="660" on="0"/>
        <pt x="585" y="532" on="0"/>
        <pt x="585" y="442" on="1"/>
        <pt x="585" y="379" on="0"/>
        <pt x="513" y="270" on="0"/>
        <pt x="453" y="242" on="1"/>
      </contour>
      <contour>
        <pt x="347" y="294" on="1"/>
        <pt x="415" y="294" on="0"/>
        <pt x="501" y="381" on="0"/>
        <pt x="501" y="503" on="0"/>
        <pt x="416" y="585" on="0"/>
        <pt x="347" y="585" on="1"/>
        <pt x="178" y="585" on="1"/>
        <pt x="178" y="294" on="1"/>
      </contour>
    </TTGlyph>
    <TTGlyph name="Racute.ss03" xMin="98" yMin="0" xMax="611" yMax="891">
      <contour>
        <pt x="412" y="891" on="1"/>
        <pt x="351" y="743" on="1"/>
        <pt x="270" y="743" on="1"/>
        <pt x="327" y="891" on="1"/>
      </contour>
      <contour>
        <pt x="611" y="0" on="1"/>
        <pt x="516" y="0" on="1"/>
        <pt x="371" y="220" on="1"/>
        <pt x="364" y="219" on="0"/>
        <pt x="348" y="219" on="1"/>
        <pt x="178" y="219" on="1"/>
        <pt x="178" y="0" on="1"/>
        <pt x="98" y="0" on="1"/>
        <pt x="98" y="660" on="1"/>
        <pt x="178" y="660" on="1"/>
        <pt x="348" y="660" on="1"/>
        <pt x="448" y="660" on="0"/>
        <pt x="585" y="532" on="0"/>
        <pt x="585" y="442" on="1"/>
        <pt x="585" y="379" on="0"/>
        <pt x="513" y="270" on="0"/>
        <pt x="453" y="242" on="1"/>
      </contour>
      <contour>
        <pt x="347" y="294" on="1"/>
        <pt x="415" y="294" on="0"/>
        <pt x="501" y="381" on="0"/>
        <pt x="501" y="503" on="0"/>
        <pt x="416" y="585" on="0"/>
        <pt x="347" y="585" on="1"/>
        <pt x="178" y="585" on="1"/>
        <pt x="178" y="294" on="1"/>
      </contour>
    </TTGlyph>
    <TTGlyph name="Racute.swsh" xMin="0" yMin="-110" xMax="830" yMax="891">
      <contour>
        <pt x="631" y="891" on="1"/>
        <pt x="570" y="743" on="1"/>
        <pt x="489" y="743" on="1"/>
        <pt x="546" y="891" on="1"/>
      </contour>
      <contour>
        <pt x="830" y="0" on="1"/>
        <pt x="735" y="0" on="1"/>
        <pt x="591" y="219" on="1"/>
        <pt x="584" y="219" on="1"/>
        <pt x="397" y="219" on="1"/>
        <pt x="397" y="188" on="1"/>
        <pt x="397" y="66" on="1"/>
        <pt x="397" y="-7" on="0"/>
        <pt x="293" y="-110" on="0"/>
        <pt x="201" y="-110" on="1"/>
        <pt x="48" y="-110" on="0"/>
        <pt x="28" y="21" on="1"/>
        <pt x="87" y="64" on="1"/>
        <pt x="96" y="8" on="0"/>
        <pt x="148" y="-41" on="0"/>
        <pt x="201" y="-41" on="1"/>
        <pt x="255" y="-41" on="0"/>
        <pt x="317" y="31" on="0"/>
        <pt x="317" y="90" on="1"/>
        <pt x="317" y="202" on="1"/>
        <pt x="317" y="595" on="1"/>
        <pt x="226" y="595" on="1"/>
        <pt x="158" y="595" on="0"/>
        <pt x="80" y="537" on="0"/>
        <pt x="80" y="480" on="1"/>
        <pt x="80" y="435" on="0"/>
        <pt x="141" y="374" on="0"/>
        <pt x="190" y="366" on="1"/>
        <pt x="159" y="302" on="1"/>
        <pt x="92" y="312" on="0"/>
        <pt x="0" y="410" on="0"/>
        <pt x="0" y="481" on="1"/>
        <pt x="0" y="564" on="0"/>
        <pt x="113" y="660" on="0"/>
        <pt x="209" y="660" on="1"/>
        <pt x="374" y="660" on="1"/>
        <pt x="423" y="660" on="1"/>
        <pt x="584" y="660" on="1"/>
        <pt x="684" y="660" on="0"/>
        <pt x="821" y="532" on="0"/>
        <pt x="821" y="442" on="1"/>
        <pt x="821" y="375" on="0"/>
        <pt x="741" y="262" on="0"/>
        <pt x="675" y="236" on="1"/>
      </contour>
      <contour>
        <pt x="397" y="585" on="1"/>
        <pt x="397" y="294" on="1"/>
        <pt x="583" y="294" on="1"/>
        <pt x="651" y="294" on="0"/>
        <pt x="737" y="381" on="0"/>
        <pt x="737" y="503" on="0"/>
        <pt x="652" y="585" on="0"/>
        <pt x="583" y="585" on="1"/>
      </contour>
    </TTGlyph>
    <TTGlyph name="Racute.swsh.001" xMin="98" yMin="-86" xMax="675" yMax="891">
      <contour>
        <pt x="412" y="891" on="1"/>
        <pt x="351" y="743" on="1"/>
        <pt x="270" y="743" on="1"/>
        <pt x="327" y="891" on="1"/>
      </contour>
      <contour>
        <pt x="525" y="90" on="1"/>
        <pt x="549" y="57" on="0"/>
        <pt x="640" y="-19" on="0"/>
        <pt x="675" y="-31" on="1"/>
        <pt x="632" y="-86" on="1"/>
        <pt x="578" y="-59" on="0"/>
        <pt x="505" y="-4" on="0"/>
        <pt x="473" y="33" on="0"/>
        <pt x="449" y="68" on="1"/>
        <pt x="343" y="219" on="1"/>
        <pt x="178" y="219" on="1"/>
        <pt x="178" y="0" on="1"/>
        <pt x="98" y="0" on="1"/>
        <pt x="98" y="660" on="1"/>
        <pt x="178" y="660" on="1"/>
        <pt x="348" y="660" on="1"/>
        <pt x="448" y="660" on="0"/>
        <pt x="585" y="532" on="0"/>
        <pt x="585" y="442" on="1"/>
        <pt x="585" y="371" on="0"/>
        <pt x="495" y="253" on="0"/>
        <pt x="423" y="231" on="1"/>
      </contour>
      <contour>
        <pt x="178" y="585" on="1"/>
        <pt x="178" y="294" on="1"/>
        <pt x="347" y="294" on="1"/>
        <pt x="415" y="294" on="0"/>
        <pt x="501" y="381" on="0"/>
        <pt x="501" y="503" on="0"/>
        <pt x="416" y="585" on="0"/>
        <pt x="347" y="585" on="1"/>
      </contour>
    </TTGlyph>
    <TTGlyph name="Rcaron" xMin="98" yMin="0" xMax="611" yMax="905">
      <contour>
        <pt x="357" y="738" on="1"/>
        <pt x="267" y="738" on="1"/>
        <pt x="153" y="905" on="1"/>
        <pt x="226" y="905" on="1"/>
        <pt x="312" y="790" on="1"/>
        <pt x="398" y="905" on="1"/>
        <pt x="471" y="905" on="1"/>
      </contour>
      <contour>
        <pt x="611" y="0" on="1"/>
        <pt x="516" y="0" on="1"/>
        <pt x="371" y="220" on="1"/>
        <pt x="364" y="219" on="0"/>
        <pt x="348" y="219" on="1"/>
        <pt x="178" y="219" on="1"/>
        <pt x="178" y="0" on="1"/>
        <pt x="98" y="0" on="1"/>
        <pt x="98" y="660" on="1"/>
        <pt x="178" y="660" on="1"/>
        <pt x="348" y="660" on="1"/>
        <pt x="448" y="660" on="0"/>
        <pt x="585" y="532" on="0"/>
        <pt x="585" y="442" on="1"/>
        <pt x="585" y="379" on="0"/>
        <pt x="513" y="270" on="0"/>
        <pt x="453" y="242" on="1"/>
      </contour>
      <contour>
        <pt x="347" y="294" on="1"/>
        <pt x="415" y="294" on="0"/>
        <pt x="501" y="381" on="0"/>
        <pt x="501" y="503" on="0"/>
        <pt x="416" y="585" on="0"/>
        <pt x="347" y="585" on="1"/>
        <pt x="178" y="585" on="1"/>
        <pt x="178" y="294" on="1"/>
      </contour>
    </TTGlyph>
    <TTGlyph name="Rcaron.ss03" xMin="98" yMin="0" xMax="611" yMax="905">
      <contour>
        <pt x="357" y="738" on="1"/>
        <pt x="267" y="738" on="1"/>
        <pt x="153" y="905" on="1"/>
        <pt x="226" y="905" on="1"/>
        <pt x="312" y="790" on="1"/>
        <pt x="398" y="905" on="1"/>
        <pt x="471" y="905" on="1"/>
      </contour>
      <contour>
        <pt x="611" y="0" on="1"/>
        <pt x="516" y="0" on="1"/>
        <pt x="371" y="220" on="1"/>
        <pt x="364" y="219" on="0"/>
        <pt x="348" y="219" on="1"/>
        <pt x="178" y="219" on="1"/>
        <pt x="178" y="0" on="1"/>
        <pt x="98" y="0" on="1"/>
        <pt x="98" y="660" on="1"/>
        <pt x="178" y="660" on="1"/>
        <pt x="348" y="660" on="1"/>
        <pt x="448" y="660" on="0"/>
        <pt x="585" y="532" on="0"/>
        <pt x="585" y="442" on="1"/>
        <pt x="585" y="379" on="0"/>
        <pt x="513" y="270" on="0"/>
        <pt x="453" y="242" on="1"/>
      </contour>
      <contour>
        <pt x="347" y="294" on="1"/>
        <pt x="415" y="294" on="0"/>
        <pt x="501" y="381" on="0"/>
        <pt x="501" y="503" on="0"/>
        <pt x="416" y="585" on="0"/>
        <pt x="347" y="585" on="1"/>
        <pt x="178" y="585" on="1"/>
        <pt x="178" y="294" on="1"/>
      </contour>
    </TTGlyph>
    <TTGlyph name="Rcaron.swsh" xMin="0" yMin="-110" xMax="830" yMax="905">
      <contour>
        <pt x="576" y="738" on="1"/>
        <pt x="486" y="738" on="1"/>
        <pt x="372" y="905" on="1"/>
        <pt x="445" y="905" on="1"/>
        <pt x="531" y="790" on="1"/>
        <pt x="617" y="905" on="1"/>
        <pt x="690" y="905" on="1"/>
      </contour>
      <contour>
        <pt x="830" y="0" on="1"/>
        <pt x="735" y="0" on="1"/>
        <pt x="591" y="219" on="1"/>
        <pt x="584" y="219" on="1"/>
        <pt x="397" y="219" on="1"/>
        <pt x="397" y="188" on="1"/>
        <pt x="397" y="66" on="1"/>
        <pt x="397" y="-7" on="0"/>
        <pt x="293" y="-110" on="0"/>
        <pt x="201" y="-110" on="1"/>
        <pt x="48" y="-110" on="0"/>
        <pt x="28" y="21" on="1"/>
        <pt x="87" y="64" on="1"/>
        <pt x="96" y="8" on="0"/>
        <pt x="148" y="-41" on="0"/>
        <pt x="201" y="-41" on="1"/>
        <pt x="255" y="-41" on="0"/>
        <pt x="317" y="31" on="0"/>
        <pt x="317" y="90" on="1"/>
        <pt x="317" y="202" on="1"/>
        <pt x="317" y="595" on="1"/>
        <pt x="226" y="595" on="1"/>
        <pt x="158" y="595" on="0"/>
        <pt x="80" y="537" on="0"/>
        <pt x="80" y="480" on="1"/>
        <pt x="80" y="435" on="0"/>
        <pt x="141" y="374" on="0"/>
        <pt x="190" y="366" on="1"/>
        <pt x="159" y="302" on="1"/>
        <pt x="92" y="312" on="0"/>
        <pt x="0" y="410" on="0"/>
        <pt x="0" y="481" on="1"/>
        <pt x="0" y="564" on="0"/>
        <pt x="113" y="660" on="0"/>
        <pt x="209" y="660" on="1"/>
        <pt x="374" y="660" on="1"/>
        <pt x="423" y="660" on="1"/>
        <pt x="584" y="660" on="1"/>
        <pt x="684" y="660" on="0"/>
        <pt x="821" y="532" on="0"/>
        <pt x="821" y="442" on="1"/>
        <pt x="821" y="375" on="0"/>
        <pt x="741" y="262" on="0"/>
        <pt x="675" y="236" on="1"/>
      </contour>
      <contour>
        <pt x="397" y="585" on="1"/>
        <pt x="397" y="294" on="1"/>
        <pt x="583" y="294" on="1"/>
        <pt x="651" y="294" on="0"/>
        <pt x="737" y="381" on="0"/>
        <pt x="737" y="503" on="0"/>
        <pt x="652" y="585" on="0"/>
        <pt x="583" y="585" on="1"/>
      </contour>
    </TTGlyph>
    <TTGlyph name="Rcaron.swsh.001" xMin="98" yMin="-86" xMax="675" yMax="905">
      <contour>
        <pt x="357" y="738" on="1"/>
        <pt x="267" y="738" on="1"/>
        <pt x="153" y="905" on="1"/>
        <pt x="226" y="905" on="1"/>
        <pt x="312" y="790" on="1"/>
        <pt x="398" y="905" on="1"/>
        <pt x="471" y="905" on="1"/>
      </contour>
      <contour>
        <pt x="525" y="90" on="1"/>
        <pt x="549" y="57" on="0"/>
        <pt x="640" y="-19" on="0"/>
        <pt x="675" y="-31" on="1"/>
        <pt x="632" y="-86" on="1"/>
        <pt x="578" y="-59" on="0"/>
        <pt x="505" y="-4" on="0"/>
        <pt x="473" y="33" on="0"/>
        <pt x="449" y="68" on="1"/>
        <pt x="343" y="219" on="1"/>
        <pt x="178" y="219" on="1"/>
        <pt x="178" y="0" on="1"/>
        <pt x="98" y="0" on="1"/>
        <pt x="98" y="660" on="1"/>
        <pt x="178" y="660" on="1"/>
        <pt x="348" y="660" on="1"/>
        <pt x="448" y="660" on="0"/>
        <pt x="585" y="532" on="0"/>
        <pt x="585" y="442" on="1"/>
        <pt x="585" y="371" on="0"/>
        <pt x="495" y="253" on="0"/>
        <pt x="423" y="231" on="1"/>
      </contour>
      <contour>
        <pt x="178" y="585" on="1"/>
        <pt x="178" y="294" on="1"/>
        <pt x="347" y="294" on="1"/>
        <pt x="415" y="294" on="0"/>
        <pt x="501" y="381" on="0"/>
        <pt x="501" y="503" on="0"/>
        <pt x="416" y="585" on="0"/>
        <pt x="347" y="585" on="1"/>
      </contour>
    </TTGlyph>
    <TTGlyph name="Rcommaaccent.sc" xMin="84" yMin="-237" xMax="553" yMax="560">
      <contour>
        <pt x="418" y="195" on="1"/>
        <pt x="553" y="0" on="1"/>
        <pt x="461" y="0" on="1"/>
        <pt x="342" y="173" on="1"/>
        <pt x="334" y="172" on="0"/>
        <pt x="317" y="172" on="1"/>
        <pt x="164" y="172" on="1"/>
        <pt x="164" y="0" on="1"/>
        <pt x="84" y="0" on="1"/>
        <pt x="84" y="560" on="1"/>
        <pt x="164" y="560" on="1"/>
        <pt x="317" y="560" on="1"/>
        <pt x="407" y="560" on="0"/>
        <pt x="526" y="446" on="0"/>
        <pt x="526" y="367" on="1"/>
        <pt x="526" y="313" on="0"/>
        <pt x="468" y="220" on="0"/>
      </contour>
      <contour>
        <pt x="315" y="240" on="1"/>
        <pt x="375" y="240" on="0"/>
        <pt x="446" y="315" on="0"/>
        <pt x="446" y="417" on="0"/>
        <pt x="375" y="491" on="0"/>
        <pt x="315" y="491" on="1"/>
        <pt x="164" y="491" on="1"/>
        <pt x="164" y="240" on="1"/>
      </contour>
      <contour>
        <pt x="220" y="-237" on="1"/>
        <pt x="277" y="-76" on="1"/>
        <pt x="348" y="-76" on="1"/>
        <pt x="290" y="-237" on="1"/>
      </contour>
    </TTGlyph>
    <TTGlyph name="Rcommaaccent.sc.ss03" xMin="84" yMin="-237" xMax="528" yMax="560">
      <contour>
        <pt x="84" y="0" on="1"/>
        <pt x="84" y="560" on="1"/>
        <pt x="317" y="560" on="1"/>
        <pt x="410" y="560" on="0"/>
        <pt x="519" y="471" on="0"/>
        <pt x="519" y="395" on="1"/>
        <pt x="519" y="281" on="0"/>
        <pt x="396" y="253" on="1"/>
        <pt x="396" y="251" on="1"/>
        <pt x="494" y="235" on="0"/>
        <pt x="500" y="140" on="1"/>
        <pt x="506" y="37" on="0"/>
        <pt x="528" y="3" on="1"/>
        <pt x="528" y="0" on="1"/>
        <pt x="443" y="0" on="1"/>
        <pt x="428" y="34" on="0"/>
        <pt x="422" y="132" on="1"/>
        <pt x="416" y="228" on="0"/>
        <pt x="286" y="228" on="1"/>
        <pt x="164" y="228" on="1"/>
        <pt x="164" y="0" on="1"/>
      </contour>
      <contour>
        <pt x="164" y="296" on="1"/>
        <pt x="312" y="296" on="1"/>
        <pt x="439" y="296" on="0"/>
        <pt x="439" y="393" on="1"/>
        <pt x="439" y="491" on="0"/>
        <pt x="312" y="491" on="1"/>
        <pt x="164" y="491" on="1"/>
      </contour>
      <contour>
        <pt x="348" y="-76" on="1"/>
        <pt x="290" y="-237" on="1"/>
        <pt x="220" y="-237" on="1"/>
        <pt x="277" y="-76" on="1"/>
      </contour>
    </TTGlyph>
    <TTGlyph name="Rcommaaccent.ss03" xMin="98" yMin="-237" xMax="611" yMax="660">
      <contour>
        <pt x="453" y="242" on="1"/>
        <pt x="611" y="0" on="1"/>
        <pt x="516" y="0" on="1"/>
        <pt x="371" y="220" on="1"/>
        <pt x="364" y="219" on="0"/>
        <pt x="348" y="219" on="1"/>
        <pt x="178" y="219" on="1"/>
        <pt x="178" y="0" on="1"/>
        <pt x="98" y="0" on="1"/>
        <pt x="98" y="660" on="1"/>
        <pt x="178" y="660" on="1"/>
        <pt x="348" y="660" on="1"/>
        <pt x="448" y="660" on="0"/>
        <pt x="585" y="532" on="0"/>
        <pt x="585" y="442" on="1"/>
        <pt x="585" y="379" on="0"/>
        <pt x="513" y="270" on="0"/>
      </contour>
      <contour>
        <pt x="347" y="294" on="1"/>
        <pt x="415" y="294" on="0"/>
        <pt x="501" y="381" on="0"/>
        <pt x="501" y="503" on="0"/>
        <pt x="416" y="585" on="0"/>
        <pt x="347" y="585" on="1"/>
        <pt x="178" y="585" on="1"/>
        <pt x="178" y="294" on="1"/>
      </contour>
      <contour>
        <pt x="257" y="-237" on="1"/>
        <pt x="314" y="-76" on="1"/>
        <pt x="385" y="-76" on="1"/>
        <pt x="327" y="-237" on="1"/>
      </contour>
    </TTGlyph>
    <TTGlyph name="Rcommaaccent.swsh" xMin="0" yMin="-237" xMax="830" yMax="660">
      <contour>
        <pt x="675" y="236" on="1"/>
        <pt x="830" y="0" on="1"/>
        <pt x="735" y="0" on="1"/>
        <pt x="591" y="219" on="1"/>
        <pt x="584" y="219" on="1"/>
        <pt x="397" y="219" on="1"/>
        <pt x="397" y="188" on="1"/>
        <pt x="397" y="66" on="1"/>
        <pt x="397" y="-7" on="0"/>
        <pt x="293" y="-110" on="0"/>
        <pt x="201" y="-110" on="1"/>
        <pt x="48" y="-110" on="0"/>
        <pt x="28" y="21" on="1"/>
        <pt x="87" y="64" on="1"/>
        <pt x="96" y="8" on="0"/>
        <pt x="148" y="-41" on="0"/>
        <pt x="201" y="-41" on="1"/>
        <pt x="255" y="-41" on="0"/>
        <pt x="317" y="31" on="0"/>
        <pt x="317" y="90" on="1"/>
        <pt x="317" y="202" on="1"/>
        <pt x="317" y="595" on="1"/>
        <pt x="226" y="595" on="1"/>
        <pt x="158" y="595" on="0"/>
        <pt x="80" y="537" on="0"/>
        <pt x="80" y="480" on="1"/>
        <pt x="80" y="435" on="0"/>
        <pt x="141" y="374" on="0"/>
        <pt x="190" y="366" on="1"/>
        <pt x="159" y="302" on="1"/>
        <pt x="92" y="312" on="0"/>
        <pt x="0" y="410" on="0"/>
        <pt x="0" y="481" on="1"/>
        <pt x="0" y="564" on="0"/>
        <pt x="113" y="660" on="0"/>
        <pt x="209" y="660" on="1"/>
        <pt x="374" y="660" on="1"/>
        <pt x="423" y="660" on="1"/>
        <pt x="584" y="660" on="1"/>
        <pt x="684" y="660" on="0"/>
        <pt x="821" y="532" on="0"/>
        <pt x="821" y="442" on="1"/>
        <pt x="821" y="375" on="0"/>
        <pt x="741" y="262" on="0"/>
      </contour>
      <contour>
        <pt x="397" y="585" on="1"/>
        <pt x="397" y="294" on="1"/>
        <pt x="583" y="294" on="1"/>
        <pt x="651" y="294" on="0"/>
        <pt x="737" y="381" on="0"/>
        <pt x="737" y="503" on="0"/>
        <pt x="652" y="585" on="0"/>
        <pt x="583" y="585" on="1"/>
      </contour>
      <contour>
        <pt x="476" y="-237" on="1"/>
        <pt x="533" y="-76" on="1"/>
        <pt x="604" y="-76" on="1"/>
        <pt x="546" y="-237" on="1"/>
      </contour>
    </TTGlyph>
    <TTGlyph name="Rcommaaccent.swsh.001" xMin="98" yMin="-237" xMax="675" yMax="660">
      <contour>
        <pt x="525" y="90" on="1"/>
        <pt x="549" y="57" on="0"/>
        <pt x="640" y="-19" on="0"/>
        <pt x="675" y="-31" on="1"/>
        <pt x="632" y="-86" on="1"/>
        <pt x="578" y="-59" on="0"/>
        <pt x="505" y="-4" on="0"/>
        <pt x="473" y="33" on="0"/>
        <pt x="449" y="68" on="1"/>
        <pt x="343" y="219" on="1"/>
        <pt x="178" y="219" on="1"/>
        <pt x="178" y="0" on="1"/>
        <pt x="98" y="0" on="1"/>
        <pt x="98" y="660" on="1"/>
        <pt x="178" y="660" on="1"/>
        <pt x="348" y="660" on="1"/>
        <pt x="448" y="660" on="0"/>
        <pt x="585" y="532" on="0"/>
        <pt x="585" y="442" on="1"/>
        <pt x="585" y="371" on="0"/>
        <pt x="495" y="253" on="0"/>
        <pt x="423" y="231" on="1"/>
      </contour>
      <contour>
        <pt x="178" y="585" on="1"/>
        <pt x="178" y="294" on="1"/>
        <pt x="347" y="294" on="1"/>
        <pt x="415" y="294" on="0"/>
        <pt x="501" y="381" on="0"/>
        <pt x="501" y="503" on="0"/>
        <pt x="416" y="585" on="0"/>
        <pt x="347" y="585" on="1"/>
      </contour>
      <contour>
        <pt x="257" y="-237" on="1"/>
        <pt x="314" y="-76" on="1"/>
        <pt x="385" y="-76" on="1"/>
        <pt x="327" y="-237" on="1"/>
      </contour>
    </TTGlyph>
    <TTGlyph name="S" xMin="60" yMin="-10" xMax="510" yMax="671">
      <contour>
        <pt x="287" y="-10" on="1"/>
        <pt x="185" y="-10" on="0"/>
        <pt x="60" y="96" on="0"/>
        <pt x="60" y="160" on="1"/>
        <pt x="60" y="186" on="0"/>
        <pt x="63" y="204" on="1"/>
        <pt x="130" y="204" on="1"/>
        <pt x="130" y="170" on="1"/>
        <pt x="130" y="131" on="0"/>
        <pt x="213" y="60" on="0"/>
        <pt x="289" y="60" on="1"/>
        <pt x="358" y="60" on="0"/>
        <pt x="433" y="122" on="0"/>
        <pt x="433" y="171" on="1"/>
        <pt x="433" y="195" on="0"/>
        <pt x="412" y="233" on="0"/>
        <pt x="386" y="257" on="0"/>
        <pt x="337" y="280" on="0"/>
        <pt x="306" y="290" on="0"/>
        <pt x="278" y="298" on="1"/>
        <pt x="170" y="330" on="0"/>
        <pt x="72" y="409" on="0"/>
        <pt x="72" y="483" on="1"/>
        <pt x="72" y="568" on="0"/>
        <pt x="190" y="671" on="0"/>
        <pt x="282" y="671" on="1"/>
        <pt x="373" y="671" on="0"/>
        <pt x="498" y="568" on="0"/>
        <pt x="498" y="476" on="1"/>
        <pt x="425" y="476" on="1"/>
        <pt x="424" y="540" on="0"/>
        <pt x="349" y="601" on="0"/>
        <pt x="287" y="601" on="1"/>
        <pt x="224" y="601" on="0"/>
        <pt x="149" y="543" on="0"/>
        <pt x="149" y="489" on="1"/>
        <pt x="149" y="438" on="0"/>
        <pt x="220" y="392" on="0"/>
        <pt x="311" y="365" on="1"/>
        <pt x="346" y="354" on="0"/>
        <pt x="387" y="340" on="0"/>
        <pt x="449" y="307" on="0"/>
        <pt x="484" y="272" on="0"/>
        <pt x="510" y="215" on="0"/>
        <pt x="510" y="180" on="1"/>
        <pt x="510" y="97" on="0"/>
        <pt x="388" y="-10" on="0"/>
      </contour>
    </TTGlyph>
    <TTGlyph name="S.swsh" xMin="56" yMin="-110" xMax="575" yMax="670">
      <contour>
        <pt x="310" y="-110" on="1"/>
        <pt x="192" y="-110" on="0"/>
        <pt x="56" y="-3" on="0"/>
        <pt x="56" y="87" on="1"/>
        <pt x="56" y="115" on="0"/>
        <pt x="59" y="136" on="1"/>
        <pt x="134" y="136" on="1"/>
        <pt x="131" y="115" on="0"/>
        <pt x="131" y="97" on="1"/>
        <pt x="131" y="-35" on="0"/>
        <pt x="309" y="-35" on="1"/>
        <pt x="492" y="-35" on="0"/>
        <pt x="492" y="99" on="1"/>
        <pt x="492" y="159" on="0"/>
        <pt x="415" y="210" on="0"/>
        <pt x="308" y="241" on="1"/>
        <pt x="259" y="255" on="0"/>
        <pt x="202" y="275" on="0"/>
        <pt x="132" y="311" on="0"/>
        <pt x="95" y="350" on="0"/>
        <pt x="69" y="412" on="0"/>
        <pt x="69" y="452" on="1"/>
        <pt x="69" y="551" on="0"/>
        <pt x="206" y="670" on="0"/>
        <pt x="320" y="670" on="1"/>
        <pt x="430" y="670" on="0"/>
        <pt x="562" y="555" on="0"/>
        <pt x="562" y="451" on="1"/>
        <pt x="483" y="451" on="1"/>
        <pt x="481" y="527" on="0"/>
        <pt x="404" y="595" on="0"/>
        <pt x="326" y="595" on="1"/>
        <pt x="242" y="595" on="0"/>
        <pt x="153" y="525" on="0"/>
        <pt x="153" y="461" on="1"/>
        <pt x="153" y="428" on="0"/>
        <pt x="176" y="382" on="0"/>
        <pt x="237" y="347" on="0"/>
        <pt x="287" y="329" on="0"/>
        <pt x="343" y="312" on="1"/>
        <pt x="393" y="297" on="0"/>
        <pt x="449" y="277" on="0"/>
        <pt x="517" y="243" on="0"/>
        <pt x="551" y="205" on="0"/>
        <pt x="575" y="147" on="0"/>
        <pt x="575" y="109" on="1"/>
        <pt x="575" y="9" on="0"/>
        <pt x="433" y="-110" on="0"/>
      </contour>
    </TTGlyph>
    <TTGlyph name="Sacute" xMin="60" yMin="-10" xMax="510" yMax="891">
      <contour>
        <pt x="301" y="891" on="1"/>
        <pt x="386" y="891" on="1"/>
        <pt x="325" y="743" on="1"/>
        <pt x="244" y="743" on="1"/>
      </contour>
      <contour>
        <pt x="287" y="-10" on="1"/>
        <pt x="185" y="-10" on="0"/>
        <pt x="60" y="96" on="0"/>
        <pt x="60" y="160" on="1"/>
        <pt x="60" y="186" on="0"/>
        <pt x="63" y="204" on="1"/>
        <pt x="130" y="204" on="1"/>
        <pt x="130" y="170" on="1"/>
        <pt x="130" y="131" on="0"/>
        <pt x="213" y="60" on="0"/>
        <pt x="289" y="60" on="1"/>
        <pt x="358" y="60" on="0"/>
        <pt x="433" y="122" on="0"/>
        <pt x="433" y="171" on="1"/>
        <pt x="433" y="195" on="0"/>
        <pt x="412" y="233" on="0"/>
        <pt x="386" y="257" on="0"/>
        <pt x="337" y="280" on="0"/>
        <pt x="306" y="290" on="0"/>
        <pt x="278" y="298" on="1"/>
        <pt x="170" y="330" on="0"/>
        <pt x="72" y="409" on="0"/>
        <pt x="72" y="483" on="1"/>
        <pt x="72" y="568" on="0"/>
        <pt x="190" y="671" on="0"/>
        <pt x="282" y="671" on="1"/>
        <pt x="373" y="671" on="0"/>
        <pt x="498" y="568" on="0"/>
        <pt x="498" y="476" on="1"/>
        <pt x="425" y="476" on="1"/>
        <pt x="424" y="540" on="0"/>
        <pt x="349" y="601" on="0"/>
        <pt x="287" y="601" on="1"/>
        <pt x="224" y="601" on="0"/>
        <pt x="149" y="543" on="0"/>
        <pt x="149" y="489" on="1"/>
        <pt x="149" y="438" on="0"/>
        <pt x="220" y="392" on="0"/>
        <pt x="311" y="365" on="1"/>
        <pt x="346" y="354" on="0"/>
        <pt x="387" y="340" on="0"/>
        <pt x="449" y="307" on="0"/>
        <pt x="484" y="272" on="0"/>
        <pt x="510" y="215" on="0"/>
        <pt x="510" y="180" on="1"/>
        <pt x="510" y="97" on="0"/>
        <pt x="388" y="-10" on="0"/>
      </contour>
    </TTGlyph>
    <TTGlyph name="Sacute.swsh" xMin="56" yMin="-110" xMax="575" yMax="891">
      <contour>
        <pt x="331" y="891" on="1"/>
        <pt x="416" y="891" on="1"/>
        <pt x="355" y="743" on="1"/>
        <pt x="274" y="743" on="1"/>
      </contour>
      <contour>
        <pt x="310" y="-110" on="1"/>
        <pt x="192" y="-110" on="0"/>
        <pt x="56" y="-3" on="0"/>
        <pt x="56" y="87" on="1"/>
        <pt x="56" y="115" on="0"/>
        <pt x="59" y="136" on="1"/>
        <pt x="134" y="136" on="1"/>
        <pt x="131" y="115" on="0"/>
        <pt x="131" y="97" on="1"/>
        <pt x="131" y="-35" on="0"/>
        <pt x="309" y="-35" on="1"/>
        <pt x="492" y="-35" on="0"/>
        <pt x="492" y="99" on="1"/>
        <pt x="492" y="159" on="0"/>
        <pt x="415" y="210" on="0"/>
        <pt x="308" y="241" on="1"/>
        <pt x="259" y="255" on="0"/>
        <pt x="202" y="275" on="0"/>
        <pt x="132" y="311" on="0"/>
        <pt x="95" y="350" on="0"/>
        <pt x="69" y="412" on="0"/>
        <pt x="69" y="452" on="1"/>
        <pt x="69" y="551" on="0"/>
        <pt x="206" y="670" on="0"/>
        <pt x="320" y="670" on="1"/>
        <pt x="430" y="670" on="0"/>
        <pt x="562" y="555" on="0"/>
        <pt x="562" y="451" on="1"/>
        <pt x="483" y="451" on="1"/>
        <pt x="481" y="527" on="0"/>
        <pt x="404" y="595" on="0"/>
        <pt x="326" y="595" on="1"/>
        <pt x="242" y="595" on="0"/>
        <pt x="153" y="525" on="0"/>
        <pt x="153" y="461" on="1"/>
        <pt x="153" y="428" on="0"/>
        <pt x="176" y="382" on="0"/>
        <pt x="237" y="347" on="0"/>
        <pt x="287" y="329" on="0"/>
        <pt x="343" y="312" on="1"/>
        <pt x="393" y="297" on="0"/>
        <pt x="449" y="277" on="0"/>
        <pt x="517" y="243" on="0"/>
        <pt x="551" y="205" on="0"/>
        <pt x="575" y="147" on="0"/>
        <pt x="575" y="109" on="1"/>
        <pt x="575" y="9" on="0"/>
        <pt x="433" y="-110" on="0"/>
      </contour>
    </TTGlyph>
    <TTGlyph name="Scaron" xMin="60" yMin="-10" xMax="510" yMax="905">
      <contour>
        <pt x="445" y="905" on="1"/>
        <pt x="331" y="738" on="1"/>
        <pt x="241" y="738" on="1"/>
        <pt x="127" y="905" on="1"/>
        <pt x="200" y="905" on="1"/>
        <pt x="286" y="790" on="1"/>
        <pt x="372" y="905" on="1"/>
      </contour>
      <contour>
        <pt x="287" y="-10" on="1"/>
        <pt x="185" y="-10" on="0"/>
        <pt x="60" y="96" on="0"/>
        <pt x="60" y="160" on="1"/>
        <pt x="60" y="186" on="0"/>
        <pt x="63" y="204" on="1"/>
        <pt x="130" y="204" on="1"/>
        <pt x="130" y="170" on="1"/>
        <pt x="130" y="131" on="0"/>
        <pt x="213" y="60" on="0"/>
        <pt x="289" y="60" on="1"/>
        <pt x="358" y="60" on="0"/>
        <pt x="433" y="122" on="0"/>
        <pt x="433" y="171" on="1"/>
        <pt x="433" y="195" on="0"/>
        <pt x="412" y="233" on="0"/>
        <pt x="386" y="257" on="0"/>
        <pt x="337" y="280" on="0"/>
        <pt x="306" y="290" on="0"/>
        <pt x="278" y="298" on="1"/>
        <pt x="170" y="330" on="0"/>
        <pt x="72" y="409" on="0"/>
        <pt x="72" y="483" on="1"/>
        <pt x="72" y="568" on="0"/>
        <pt x="190" y="671" on="0"/>
        <pt x="282" y="671" on="1"/>
        <pt x="373" y="671" on="0"/>
        <pt x="498" y="568" on="0"/>
        <pt x="498" y="476" on="1"/>
        <pt x="425" y="476" on="1"/>
        <pt x="424" y="540" on="0"/>
        <pt x="349" y="601" on="0"/>
        <pt x="287" y="601" on="1"/>
        <pt x="224" y="601" on="0"/>
        <pt x="149" y="543" on="0"/>
        <pt x="149" y="489" on="1"/>
        <pt x="149" y="438" on="0"/>
        <pt x="220" y="392" on="0"/>
        <pt x="311" y="365" on="1"/>
        <pt x="346" y="354" on="0"/>
        <pt x="387" y="340" on="0"/>
        <pt x="449" y="307" on="0"/>
        <pt x="484" y="272" on="0"/>
        <pt x="510" y="215" on="0"/>
        <pt x="510" y="180" on="1"/>
        <pt x="510" y="97" on="0"/>
        <pt x="388" y="-10" on="0"/>
      </contour>
    </TTGlyph>
    <TTGlyph name="Scaron.swsh" xMin="56" yMin="-110" xMax="575" yMax="905">
      <contour>
        <pt x="475" y="905" on="1"/>
        <pt x="361" y="738" on="1"/>
        <pt x="271" y="738" on="1"/>
        <pt x="157" y="905" on="1"/>
        <pt x="230" y="905" on="1"/>
        <pt x="316" y="790" on="1"/>
        <pt x="402" y="905" on="1"/>
      </contour>
      <contour>
        <pt x="310" y="-110" on="1"/>
        <pt x="192" y="-110" on="0"/>
        <pt x="56" y="-3" on="0"/>
        <pt x="56" y="87" on="1"/>
        <pt x="56" y="115" on="0"/>
        <pt x="59" y="136" on="1"/>
        <pt x="134" y="136" on="1"/>
        <pt x="131" y="115" on="0"/>
        <pt x="131" y="97" on="1"/>
        <pt x="131" y="-35" on="0"/>
        <pt x="309" y="-35" on="1"/>
        <pt x="492" y="-35" on="0"/>
        <pt x="492" y="99" on="1"/>
        <pt x="492" y="159" on="0"/>
        <pt x="415" y="210" on="0"/>
        <pt x="308" y="241" on="1"/>
        <pt x="259" y="255" on="0"/>
        <pt x="202" y="275" on="0"/>
        <pt x="132" y="311" on="0"/>
        <pt x="95" y="350" on="0"/>
        <pt x="69" y="412" on="0"/>
        <pt x="69" y="452" on="1"/>
        <pt x="69" y="551" on="0"/>
        <pt x="206" y="670" on="0"/>
        <pt x="320" y="670" on="1"/>
        <pt x="430" y="670" on="0"/>
        <pt x="562" y="555" on="0"/>
        <pt x="562" y="451" on="1"/>
        <pt x="483" y="451" on="1"/>
        <pt x="481" y="527" on="0"/>
        <pt x="404" y="595" on="0"/>
        <pt x="326" y="595" on="1"/>
        <pt x="242" y="595" on="0"/>
        <pt x="153" y="525" on="0"/>
        <pt x="153" y="461" on="1"/>
        <pt x="153" y="428" on="0"/>
        <pt x="176" y="382" on="0"/>
        <pt x="237" y="347" on="0"/>
        <pt x="287" y="329" on="0"/>
        <pt x="343" y="312" on="1"/>
        <pt x="393" y="297" on="0"/>
        <pt x="449" y="277" on="0"/>
        <pt x="517" y="243" on="0"/>
        <pt x="551" y="205" on="0"/>
        <pt x="575" y="147" on="0"/>
        <pt x="575" y="109" on="1"/>
        <pt x="575" y="9" on="0"/>
        <pt x="433" y="-110" on="0"/>
      </contour>
    </TTGlyph>
    <TTGlyph name="Scedilla.sc" xMin="33" yMin="-215" xMax="515" yMax="568">
      <contour>
        <pt x="515" y="155" on="1"/>
        <pt x="515" y="89" on="0"/>
        <pt x="421" y="7" on="0"/>
        <pt x="339" y="-4" on="1"/>
        <pt x="396" y="-48" on="0"/>
        <pt x="396" y="-108" on="1"/>
        <pt x="396" y="-152" on="0"/>
        <pt x="333" y="-215" on="0"/>
        <pt x="280" y="-215" on="1"/>
        <pt x="209" y="-215" on="0"/>
        <pt x="170" y="-180" on="1"/>
        <pt x="200" y="-125" on="1"/>
        <pt x="228" y="-155" on="0"/>
        <pt x="269" y="-155" on="1"/>
        <pt x="293" y="-155" on="0"/>
        <pt x="326" y="-123" on="0"/>
        <pt x="326" y="-97" on="1"/>
        <pt x="326" y="-68" on="0"/>
        <pt x="293" y="-29" on="0"/>
        <pt x="248" y="-7" on="1"/>
        <pt x="96" y="6" on="0"/>
        <pt x="33" y="110" on="1"/>
        <pt x="93" y="165" on="1"/>
        <pt x="142" y="61" on="0"/>
        <pt x="285" y="61" on="1"/>
        <pt x="353" y="61" on="0"/>
        <pt x="435" y="107" on="0"/>
        <pt x="435" y="148" on="1"/>
        <pt x="435" y="186" on="0"/>
        <pt x="357" y="226" on="0"/>
        <pt x="245" y="245" on="0"/>
        <pt x="133" y="271" on="0"/>
        <pt x="55" y="339" on="0"/>
        <pt x="55" y="397" on="1"/>
        <pt x="55" y="472" on="0"/>
        <pt x="177" y="568" on="0"/>
        <pt x="283" y="568" on="1"/>
        <pt x="440" y="568" on="0"/>
        <pt x="511" y="452" on="1"/>
        <pt x="451" y="398" on="1"/>
        <pt x="425" y="451" on="0"/>
        <pt x="346" y="499" on="0"/>
        <pt x="284" y="499" on="1"/>
        <pt x="214" y="499" on="0"/>
        <pt x="135" y="447" on="0"/>
        <pt x="135" y="407" on="1"/>
        <pt x="135" y="375" on="0"/>
        <pt x="191" y="334" on="0"/>
        <pt x="276" y="319" on="0"/>
        <pt x="374" y="296" on="0"/>
        <pt x="459" y="269" on="0"/>
        <pt x="515" y="204" on="0"/>
      </contour>
    </TTGlyph>
    <TTGlyph name="Scedilla.swsh" xMin="56" yMin="-315" xMax="575" yMax="670">
      <contour>
        <pt x="575" y="109" on="1"/>
        <pt x="575" y="19" on="0"/>
        <pt x="459" y="-97" on="0"/>
        <pt x="355" y="-108" on="1"/>
        <pt x="408" y="-150" on="0"/>
        <pt x="408" y="-208" on="1"/>
        <pt x="408" y="-252" on="0"/>
        <pt x="345" y="-315" on="0"/>
        <pt x="292" y="-315" on="1"/>
        <pt x="221" y="-315" on="0"/>
        <pt x="182" y="-280" on="1"/>
        <pt x="212" y="-225" on="1"/>
        <pt x="240" y="-255" on="0"/>
        <pt x="281" y="-255" on="1"/>
        <pt x="305" y="-255" on="0"/>
        <pt x="338" y="-223" on="0"/>
        <pt x="338" y="-197" on="1"/>
        <pt x="338" y="-168" on="0"/>
        <pt x="305" y="-129" on="0"/>
        <pt x="261" y="-107" on="1"/>
        <pt x="165" y="-97" on="0"/>
        <pt x="56" y="7" on="0"/>
        <pt x="56" y="87" on="1"/>
        <pt x="56" y="115" on="0"/>
        <pt x="59" y="136" on="1"/>
        <pt x="134" y="136" on="1"/>
        <pt x="131" y="115" on="0"/>
        <pt x="131" y="97" on="1"/>
        <pt x="131" y="-35" on="0"/>
        <pt x="309" y="-35" on="1"/>
        <pt x="492" y="-35" on="0"/>
        <pt x="492" y="99" on="1"/>
        <pt x="492" y="159" on="0"/>
        <pt x="415" y="210" on="0"/>
        <pt x="308" y="241" on="1"/>
        <pt x="259" y="255" on="0"/>
        <pt x="202" y="275" on="0"/>
        <pt x="132" y="311" on="0"/>
        <pt x="95" y="350" on="0"/>
        <pt x="69" y="412" on="0"/>
        <pt x="69" y="452" on="1"/>
        <pt x="69" y="551" on="0"/>
        <pt x="206" y="670" on="0"/>
        <pt x="320" y="670" on="1"/>
        <pt x="430" y="670" on="0"/>
        <pt x="562" y="555" on="0"/>
        <pt x="562" y="451" on="1"/>
        <pt x="483" y="451" on="1"/>
        <pt x="481" y="527" on="0"/>
        <pt x="404" y="595" on="0"/>
        <pt x="326" y="595" on="1"/>
        <pt x="242" y="595" on="0"/>
        <pt x="153" y="525" on="0"/>
        <pt x="153" y="461" on="1"/>
        <pt x="153" y="428" on="0"/>
        <pt x="176" y="382" on="0"/>
        <pt x="237" y="347" on="0"/>
        <pt x="287" y="329" on="0"/>
        <pt x="343" y="312" on="1"/>
        <pt x="393" y="297" on="0"/>
        <pt x="449" y="277" on="0"/>
        <pt x="517" y="243" on="0"/>
        <pt x="551" y="205" on="0"/>
        <pt x="575" y="147" on="0"/>
      </contour>
    </TTGlyph>
    <TTGlyph name="Scommaaccent.sc" xMin="33" yMin="-237" xMax="515" yMax="568">
      <contour>
        <pt x="283" y="568" on="1"/>
        <pt x="440" y="568" on="0"/>
        <pt x="511" y="452" on="1"/>
        <pt x="451" y="398" on="1"/>
        <pt x="425" y="451" on="0"/>
        <pt x="346" y="499" on="0"/>
        <pt x="284" y="499" on="1"/>
        <pt x="214" y="499" on="0"/>
        <pt x="135" y="447" on="0"/>
        <pt x="135" y="407" on="1"/>
        <pt x="135" y="375" on="0"/>
        <pt x="191" y="334" on="0"/>
        <pt x="276" y="319" on="0"/>
        <pt x="374" y="296" on="0"/>
        <pt x="459" y="269" on="0"/>
        <pt x="515" y="204" on="0"/>
        <pt x="515" y="155" on="1"/>
        <pt x="515" y="79" on="0"/>
        <pt x="389" y="-8" on="0"/>
        <pt x="283" y="-8" on="1"/>
        <pt x="104" y="-8" on="0"/>
        <pt x="33" y="110" on="1"/>
        <pt x="93" y="165" on="1"/>
        <pt x="142" y="61" on="0"/>
        <pt x="285" y="61" on="1"/>
        <pt x="353" y="61" on="0"/>
        <pt x="435" y="107" on="0"/>
        <pt x="435" y="148" on="1"/>
        <pt x="435" y="186" on="0"/>
        <pt x="357" y="226" on="0"/>
        <pt x="245" y="245" on="0"/>
        <pt x="133" y="271" on="0"/>
        <pt x="55" y="339" on="0"/>
        <pt x="55" y="397" on="1"/>
        <pt x="55" y="472" on="0"/>
        <pt x="177" y="568" on="0"/>
      </contour>
      <contour>
        <pt x="339" y="-76" on="1"/>
        <pt x="281" y="-237" on="1"/>
        <pt x="211" y="-237" on="1"/>
        <pt x="268" y="-76" on="1"/>
      </contour>
    </TTGlyph>
    <TTGlyph name="Scommaaccent.swsh" xMin="56" yMin="-337" xMax="575" yMax="670">
      <contour>
        <pt x="310" y="-110" on="1"/>
        <pt x="192" y="-110" on="0"/>
        <pt x="56" y="-3" on="0"/>
        <pt x="56" y="87" on="1"/>
        <pt x="56" y="115" on="0"/>
        <pt x="59" y="136" on="1"/>
        <pt x="134" y="136" on="1"/>
        <pt x="131" y="115" on="0"/>
        <pt x="131" y="97" on="1"/>
        <pt x="131" y="-35" on="0"/>
        <pt x="309" y="-35" on="1"/>
        <pt x="492" y="-35" on="0"/>
        <pt x="492" y="99" on="1"/>
        <pt x="492" y="159" on="0"/>
        <pt x="415" y="210" on="0"/>
        <pt x="308" y="241" on="1"/>
        <pt x="259" y="255" on="0"/>
        <pt x="202" y="275" on="0"/>
        <pt x="132" y="311" on="0"/>
        <pt x="95" y="350" on="0"/>
        <pt x="69" y="412" on="0"/>
        <pt x="69" y="452" on="1"/>
        <pt x="69" y="551" on="0"/>
        <pt x="206" y="670" on="0"/>
        <pt x="320" y="670" on="1"/>
        <pt x="430" y="670" on="0"/>
        <pt x="562" y="555" on="0"/>
        <pt x="562" y="451" on="1"/>
        <pt x="483" y="451" on="1"/>
        <pt x="481" y="527" on="0"/>
        <pt x="404" y="595" on="0"/>
        <pt x="326" y="595" on="1"/>
        <pt x="242" y="595" on="0"/>
        <pt x="153" y="525" on="0"/>
        <pt x="153" y="461" on="1"/>
        <pt x="153" y="428" on="0"/>
        <pt x="176" y="382" on="0"/>
        <pt x="237" y="347" on="0"/>
        <pt x="287" y="329" on="0"/>
        <pt x="343" y="312" on="1"/>
        <pt x="393" y="297" on="0"/>
        <pt x="449" y="277" on="0"/>
        <pt x="517" y="243" on="0"/>
        <pt x="551" y="205" on="0"/>
        <pt x="575" y="147" on="0"/>
        <pt x="575" y="109" on="1"/>
        <pt x="575" y="9" on="0"/>
        <pt x="433" y="-110" on="0"/>
      </contour>
      <contour>
        <pt x="356" y="-176" on="1"/>
        <pt x="298" y="-337" on="1"/>
        <pt x="228" y="-337" on="1"/>
        <pt x="285" y="-176" on="1"/>
      </contour>
    </TTGlyph>
    <TTGlyph name="T" xMin="30" yMin="0" xMax="570" yMax="660">
      <contour>
        <pt x="570" y="660" on="1"/>
        <pt x="570" y="585" on="1"/>
        <pt x="340" y="585" on="1"/>
        <pt x="340" y="0" on="1"/>
        <pt x="260" y="0" on="1"/>
        <pt x="260" y="585" on="1"/>
        <pt x="30" y="585" on="1"/>
        <pt x="30" y="660" on="1"/>
        <pt x="340" y="660" on="1"/>
      </contour>
    </TTGlyph>
    <TTGlyph name="T.swsh" xMin="0" yMin="0" xMax="667" yMax="660">
      <contour>
        <pt x="667" y="660" on="1"/>
        <pt x="667" y="585" on="1"/>
        <pt x="437" y="585" on="1"/>
        <pt x="437" y="0" on="1"/>
        <pt x="357" y="0" on="1"/>
        <pt x="357" y="585" on="1"/>
        <pt x="226" y="585" on="1"/>
        <pt x="80" y="585" on="0"/>
        <pt x="80" y="480" on="1"/>
        <pt x="80" y="435" on="0"/>
        <pt x="141" y="374" on="0"/>
        <pt x="190" y="366" on="1"/>
        <pt x="159" y="302" on="1"/>
        <pt x="92" y="312" on="0"/>
        <pt x="0" y="410" on="0"/>
        <pt x="0" y="481" on="1"/>
        <pt x="0" y="564" on="0"/>
        <pt x="113" y="660" on="0"/>
        <pt x="209" y="660" on="1"/>
        <pt x="357" y="660" on="1"/>
        <pt x="437" y="660" on="1"/>
      </contour>
    </TTGlyph>
    <TTGlyph name="Tcaron" xMin="30" yMin="0" xMax="570" yMax="905">
      <contour>
        <pt x="345" y="738" on="1"/>
        <pt x="255" y="738" on="1"/>
        <pt x="141" y="905" on="1"/>
        <pt x="214" y="905" on="1"/>
        <pt x="300" y="790" on="1"/>
        <pt x="386" y="905" on="1"/>
        <pt x="459" y="905" on="1"/>
      </contour>
      <contour>
        <pt x="570" y="660" on="1"/>
        <pt x="570" y="585" on="1"/>
        <pt x="340" y="585" on="1"/>
        <pt x="340" y="0" on="1"/>
        <pt x="260" y="0" on="1"/>
        <pt x="260" y="585" on="1"/>
        <pt x="30" y="585" on="1"/>
        <pt x="30" y="660" on="1"/>
        <pt x="340" y="660" on="1"/>
      </contour>
    </TTGlyph>
</ttFont>
